<svg width="348" height="316" viewBox="0 0 348 316" fill="none" xmlns="http://www.w3.org/2000/svg">
<g clip-path="url(#clip0_254_505)">
<path d="M348 169.67V302.42C347.996 306.021 346.795 309.472 344.659 312.018C342.523 314.564 339.627 315.996 336.606 316H251.167L251.961 314.803L346.996 171.191L348 169.67Z" fill="#F2F2F2"/>
<path d="M135.992 122.91H37.8846C37.0807 122.91 36.3097 123.29 35.7413 123.968C35.1728 124.645 34.8535 125.564 34.8535 126.522C34.8535 127.48 35.1728 128.399 35.7413 129.077C36.3097 129.754 37.0807 130.135 37.8846 130.135H135.992C136.796 130.135 137.567 129.754 138.135 129.077C138.704 128.399 139.023 127.48 139.023 126.522C139.023 125.564 138.704 124.645 138.135 123.968C137.567 123.29 136.796 122.91 135.992 122.91Z" fill="#E6E6E6"/>
<path d="M68.3029 102.654H37.8846C37.0807 102.654 36.3097 103.035 35.7413 103.712C35.1728 104.39 34.8535 105.309 34.8535 106.267C34.8535 107.225 35.1728 108.144 35.7413 108.821C36.3097 109.499 37.0807 109.879 37.8846 109.879H68.303C69.1069 109.879 69.8778 109.499 70.4463 108.821C71.0147 108.144 71.334 107.225 71.334 106.267C71.334 105.309 71.0147 104.39 70.4463 103.712C69.8778 103.035 69.1069 102.654 68.303 102.654H68.3029Z" fill="#E6E6E6"/>
<path d="M336.606 0H11.3941C8.37332 0.00433494 5.4773 1.43643 3.34128 3.98217C1.20525 6.5279 0.00363728 9.97941 0 13.5796V302.42C0.00363728 306.021 1.20525 309.472 3.34128 312.018C5.4773 314.564 8.37332 315.996 11.3941 316H336.606C339.627 315.996 342.523 314.564 344.659 312.018C346.795 309.472 347.996 306.021 348 302.42V13.5796C347.996 9.97941 346.795 6.5279 344.659 3.98217C342.523 1.43643 339.627 0.00433494 336.606 0ZM346.996 302.42C346.996 304.047 346.727 305.657 346.205 307.159C345.683 308.661 344.917 310.026 343.953 311.176C342.988 312.326 341.842 313.238 340.582 313.86C339.321 314.483 337.97 314.803 336.606 314.803H11.3941C8.63857 314.803 5.99589 313.498 4.04743 311.176C2.09897 308.854 1.00433 305.704 1.00433 302.42V94.3664C1.00433 69.6563 9.24057 45.9583 23.9012 28.4857C38.5618 11.013 58.4458 1.19697 79.1791 1.19697H336.606C337.97 1.19697 339.321 1.51726 340.582 2.13954C341.842 2.76183 342.988 3.67393 343.953 4.82377C344.917 5.9736 345.683 7.33865 346.205 8.84099C346.727 10.3433 346.996 11.9535 346.996 13.5796V302.42Z" fill="#E6E6E6"/>
<path d="M316.308 52.229H31.7165C31.5833 52.229 31.4556 52.1659 31.3614 52.0537C31.2673 51.9414 31.2144 51.7892 31.2144 51.6305C31.2144 51.4717 31.2673 51.3195 31.3614 51.2073C31.4556 51.095 31.5833 51.032 31.7165 51.032H316.308C316.442 51.032 316.569 51.095 316.664 51.2073C316.758 51.3195 316.811 51.4717 316.811 51.6305C316.811 51.7892 316.758 51.9414 316.664 52.0537C316.569 52.1659 316.442 52.229 316.308 52.229Z" fill="#E6E6E6"/>
<path d="M45.9556 34.2621C48.3009 34.2621 50.2022 31.9456 50.2022 29.0881C50.2022 26.2306 48.3009 23.9142 45.9556 23.9142C43.6103 23.9142 41.709 26.2306 41.709 29.0881C41.709 31.9456 43.6103 34.2621 45.9556 34.2621Z" fill="#E6E6E6"/>
<path d="M60.6255 34.2621C62.9708 34.2621 64.8721 31.9456 64.8721 29.0881C64.8721 26.2306 62.9708 23.9142 60.6255 23.9142C58.2802 23.9142 56.3789 26.2306 56.3789 29.0881C56.3789 31.9456 58.2802 34.2621 60.6255 34.2621Z" fill="#E6E6E6"/>
<path d="M75.2959 34.2621C77.6413 34.2621 79.5425 31.9456 79.5425 29.0881C79.5425 26.2306 77.6413 23.9142 75.2959 23.9142C72.9506 23.9142 71.0493 26.2306 71.0493 29.0881C71.0493 31.9456 72.9506 34.2621 75.2959 34.2621Z" fill="#E6E6E6"/>
<path d="M92.0234 33.1775C91.9565 33.1776 91.8902 33.1618 91.8286 33.1308C91.7669 33.0999 91.7111 33.0546 91.6644 32.9975L88.799 29.5065C88.7072 29.3948 88.6558 29.2445 88.6558 29.0881C88.6558 28.9316 88.7072 28.7814 88.799 28.6696L91.6644 25.1789C91.7103 25.1219 91.7653 25.0762 91.8261 25.0446C91.887 25.013 91.9525 24.9961 92.0188 24.9948C92.0851 24.9936 92.151 25.008 92.2127 25.0373C92.2743 25.0665 92.3305 25.1101 92.3779 25.1654C92.4254 25.2207 92.4631 25.2866 92.4891 25.3594C92.515 25.4322 92.5285 25.5105 92.5289 25.5895C92.5294 25.6686 92.5166 25.747 92.4914 25.8202C92.4663 25.8934 92.4292 25.9599 92.3823 26.0159L89.8605 29.0881L92.3823 32.1606C92.4514 32.2448 92.4982 32.3514 92.5166 32.4672C92.5351 32.5829 92.5245 32.7025 92.4862 32.8111C92.4479 32.9197 92.3835 33.0124 92.3012 33.0776C92.2189 33.1427 92.1222 33.1775 92.0234 33.1775Z" fill="#E6E6E6"/>
<path d="M96.8386 33.1775C96.7397 33.1775 96.6431 33.1427 96.5607 33.0775C96.4784 33.0124 96.414 32.9197 96.3757 32.8111C96.3374 32.7025 96.3268 32.5828 96.3453 32.4671C96.3638 32.3514 96.4105 32.2448 96.4796 32.1605L99.0012 29.088L96.4796 26.0158C96.388 25.902 96.3378 25.7497 96.3399 25.592C96.342 25.4343 96.3962 25.284 96.4908 25.1737C96.5854 25.0634 96.7128 25.0021 96.8451 25.0031C96.9774 25.004 97.1041 25.0672 97.1975 25.1789L100.063 28.6696C100.154 28.7814 100.206 28.9316 100.206 29.088C100.206 29.2445 100.154 29.3947 100.063 29.5065L97.1975 32.9975C97.1508 33.0545 97.095 33.0999 97.0333 33.1308C96.9717 33.1617 96.9054 33.1776 96.8386 33.1775Z" fill="#E6E6E6"/>
<path d="M290.93 24.5133H285.602C285.458 24.5133 285.315 24.5471 285.181 24.613C285.048 24.6788 284.927 24.7754 284.824 24.8971C284.722 25.0188 284.641 25.1633 284.586 25.3224C284.531 25.4814 284.502 25.6518 284.502 25.824V32.1799C284.502 32.352 284.531 32.5225 284.586 32.6815C284.641 32.8406 284.722 32.9851 284.824 33.1068C284.927 33.2285 285.048 33.3251 285.181 33.3909C285.315 33.4568 285.458 33.4906 285.602 33.4906H290.93C291.222 33.4909 291.503 33.3531 291.71 33.1074C291.917 32.8617 292.034 32.5282 292.035 32.1799V25.824C292.034 25.4757 291.917 25.1422 291.71 24.8965C291.503 24.6508 291.222 24.513 290.93 24.5133Z" fill="#E6E6E6"/>
<path d="M277.874 24.5133H272.546C272.402 24.5133 272.259 24.5471 272.125 24.613C271.992 24.6788 271.87 24.7754 271.768 24.8971C271.666 25.0188 271.585 25.1633 271.53 25.3224C271.475 25.4814 271.446 25.6518 271.446 25.824V32.1799C271.446 32.352 271.475 32.5225 271.53 32.6815C271.585 32.8406 271.666 32.9851 271.768 33.1068C271.87 33.2285 271.992 33.3251 272.125 33.3909C272.259 33.4568 272.402 33.4906 272.546 33.4906H277.874C278.166 33.4909 278.447 33.3531 278.654 33.1074C278.861 32.8617 278.978 32.5282 278.979 32.1799V25.824C278.978 25.4757 278.861 25.1422 278.654 24.8965C278.447 24.6508 278.166 24.513 277.874 24.5133Z" fill="#E6E6E6"/>
<path d="M303.233 24.8125H297.905C297.76 24.8124 297.617 24.8463 297.484 24.9122C297.351 24.978 297.229 25.0746 297.127 25.1963C297.025 25.318 296.944 25.4625 296.889 25.6215C296.834 25.7806 296.805 25.951 296.805 26.1232V32.4791C296.805 32.6512 296.834 32.8217 296.889 32.9807C296.944 33.1398 297.025 33.2843 297.127 33.406C297.229 33.5277 297.351 33.6243 297.484 33.6901C297.617 33.756 297.76 33.7898 297.905 33.7898H303.233C303.525 33.7901 303.806 33.6523 304.013 33.4066C304.22 33.1609 304.337 32.8274 304.338 32.4791V26.1232C304.337 25.7749 304.22 25.4414 304.013 25.1957C303.806 24.95 303.525 24.8122 303.233 24.8125Z" fill="#E6E6E6"/>
<path d="M195.307 27.2303H152.718C152.363 27.2303 152.022 27.3987 151.77 27.6984C151.519 27.9981 151.377 28.4045 151.377 28.8283C151.377 29.2521 151.519 29.6585 151.77 29.9582C152.022 30.2579 152.363 30.4263 152.718 30.4263H195.307C195.662 30.4263 196.003 30.2579 196.255 29.9582C196.506 29.6585 196.648 29.2521 196.648 28.8283C196.648 28.4045 196.506 27.9981 196.255 27.6984C196.003 27.3987 195.662 27.2303 195.307 27.2303Z" fill="#E6E6E6"/>
<path d="M81.1536 245.646L55.6853 244.686C52.153 244.553 48.1808 244.56 45.6613 246.736C42.8018 249.205 43.2348 253.58 45.6089 256.417C47.9831 259.255 51.774 260.876 55.4947 262.194C75.2618 269.196 97.1386 270.617 118.38 269.033C139.622 267.449 160.426 262.97 181.128 258.506C183.092 258.082 185.317 257.473 186.118 255.844C186.892 254.269 185.879 252.369 184.305 251.351C182.73 250.333 180.735 249.99 178.809 249.687C143.935 244.225 108.684 243.027 73.6057 246.11" fill="#FFB99B"/>
<path d="M126.912 222.301V215.119C122.539 215.193 106.891 215.066 102.808 215.119C102.504 240.22 100.642 235.303 117.897 235.401C118.69 235.405 119.45 235.782 120.01 236.452C120.57 237.121 120.885 238.027 120.886 238.972V239.08C120.886 240.027 120.571 240.935 120.009 241.604C119.447 242.274 118.685 242.65 117.891 242.65H102.808V249.831H126.912C126.946 249.807 126.888 242.897 126.912 242.65C127.931 221.843 125.915 229.326 111.262 228.492C110.606 228.452 109.989 228.113 109.537 227.546C109.085 226.978 108.833 226.225 108.834 225.443V225.353C108.834 224.544 109.104 223.768 109.584 223.195C110.065 222.623 110.716 222.301 111.395 222.301H126.912Z" fill="#3F3D56"/>
<path d="M156.54 222.301V215.119C152.167 215.193 136.518 215.066 132.436 215.119C132.129 240.439 130.237 235.216 147.979 235.405C148.653 235.413 149.298 235.738 149.773 236.31C150.247 236.881 150.514 237.653 150.514 238.457C150.514 238.834 150.514 239.22 150.514 239.598C150.514 239.999 150.447 240.396 150.319 240.766C150.19 241.136 150.001 241.473 149.763 241.756C149.526 242.04 149.243 242.264 148.933 242.418C148.622 242.571 148.289 242.65 147.953 242.65H132.436V249.831H156.54C156.573 249.807 156.515 242.897 156.54 242.65C157.559 221.843 155.542 229.326 140.889 228.492C140.234 228.452 139.616 228.113 139.164 227.546C138.712 226.978 138.461 226.225 138.462 225.443V225.353C138.462 224.544 138.731 223.768 139.212 223.195C139.692 222.623 140.343 222.301 141.023 222.301H156.54Z" fill="#3F3D56"/>
<path d="M95.7779 222.301V215.119H71.674C71.657 221.525 71.6863 238.479 71.674 245.044C66.9492 254.577 93.7905 247.977 95.7792 249.834C95.7779 249.832 95.7779 242.65 95.7779 242.65C77.4383 242.536 76.9775 246.627 77.5674 226.832C77.6029 225.616 78.0328 224.465 78.7666 223.62C79.5004 222.774 80.4808 222.302 81.5013 222.301C86.8032 222.301 95.7779 222.301 95.7779 222.301Z" fill="#3F3D56"/>
<path d="M143.422 159.863L117.953 159.063C114.421 158.952 110.449 158.958 107.929 160.771C105.07 162.829 105.503 166.476 107.877 168.841C110.251 171.207 114.042 172.558 117.763 173.657C137.53 179.494 159.407 180.679 180.648 179.358C201.89 178.037 222.695 174.303 243.397 170.582C245.36 170.229 247.585 169.722 248.386 168.364C249.161 167.051 248.147 165.467 246.573 164.619C244.999 163.77 243.003 163.484 241.077 163.231C206.144 158.677 170.949 157.679 135.874 160.25" fill="#1C85E8"/>
<path d="M138.964 128.339C138.554 139.427 141.973 142.917 130.176 141.504C129.379 134.89 133.421 125.711 124.15 128.041C126.007 132.84 118.977 169.243 130.174 162.75C130.803 151.813 126.658 147.016 138.964 148.689C139.951 155.45 135.345 165.399 144.99 163.05C143.133 158.25 150.164 121.849 138.964 128.339Z" fill="#3F3D56"/>
<path d="M200.73 128.339C201.557 128.948 193.152 139.545 192.971 140.413C192.719 139.672 184.696 129.304 185.665 128.339C174.502 121.765 181.459 158.38 179.637 163.053C179.639 163.051 185.665 163.051 185.665 163.051V140.31C194.135 153.925 192.562 151.634 200.73 139.641L200.73 163.051C211.893 169.628 204.936 133.008 206.758 128.337C206.756 128.339 200.73 128.339 200.73 128.339Z" fill="#3F3D56"/>
<path d="M174.115 128.339H150.011C148.595 138.407 153.278 135.03 159.051 135.521L159.05 163.051H165.076V135.521C170.823 135.055 175.549 138.362 174.115 128.339Z" fill="#3F3D56"/>
<path d="M217.804 155.869C216.412 146.768 216.412 137.441 217.804 128.339H211.778C211.813 132.889 211.767 151.25 211.771 159.647C211.77 160.553 212.072 161.422 212.609 162.063C213.147 162.705 213.876 163.065 214.636 163.066C220.707 163.075 232.297 163.022 235.882 163.051L235.882 155.869H217.804Z" fill="#3F3D56"/>
<path d="M63.8656 157.066H39.373C38.1744 157.066 37.0248 157.634 36.1772 158.644C35.3297 159.654 34.8535 161.024 34.8535 162.453C34.8535 163.881 35.3297 165.251 36.1772 166.261C37.0248 167.272 38.1744 167.839 39.373 167.839H63.8657C65.0643 167.839 66.2139 167.272 67.0614 166.261C67.909 165.251 68.3851 163.881 68.3851 162.453C68.3851 161.024 67.909 159.654 67.0614 158.644C66.2139 157.634 65.0643 157.066 63.8657 157.066H63.8656Z" fill="#E6E6E6"/>
<path d="M285.928 309.757L280.957 309.756L278.591 286.9L285.929 286.9L285.928 309.757Z" fill="#FFB6B6"/>
<path d="M286.103 315.938L270.814 315.937V315.707C270.814 313.826 271.441 312.022 272.557 310.692C273.673 309.362 275.187 308.615 276.765 308.615H276.765L279.558 306.089L284.769 308.615L286.104 308.615L286.103 315.938Z" fill="#2F2E41"/>
<path d="M303.504 309.757L298.532 309.756L296.167 286.9L303.505 286.9L303.504 309.757Z" fill="#FFB6B6"/>
<path d="M303.679 315.938L288.39 315.937V315.707C288.39 313.826 289.017 312.022 290.133 310.692C291.249 309.362 292.762 308.615 294.341 308.615H294.341L297.134 306.089L302.345 308.615L303.679 308.615L303.679 315.938Z" fill="#2F2E41"/>
<path d="M273.549 185.219C273.549 185.219 268.765 202.73 269.648 205.034C270.531 207.339 272.037 205.544 270.531 207.339C269.025 209.135 267.709 207.226 269.12 210.275C270.531 213.324 272.668 238.424 273.608 239.639C274.548 240.854 275.841 240.887 274.692 242.068C273.544 243.248 272.037 240.854 273.544 243.248C275.05 245.642 279.048 300.868 279.048 300.868H286.857C286.857 300.868 288.802 298.196 287.701 296.457C286.6 294.718 287.798 294.048 287.701 292.887C287.605 291.725 287.971 289.222 288.039 288.08C288.107 286.938 289.427 259.725 286.256 244.006L292.038 214.074L294.928 250.25C294.928 250.25 291.707 280.595 294.928 290.349C294.928 290.349 292.331 292.927 293.483 294.421C294.635 295.915 295.639 294.718 294.635 295.915C293.631 297.112 296.141 301.301 296.141 301.301L304.678 300.703L309.51 244.006C309.51 244.006 310.325 238.093 309.51 237.08C308.696 236.066 308.696 239.657 308.696 236.066V231.279C308.696 231.279 312.336 201.83 312.274 200.096C312.211 198.362 306.185 185.794 306.185 185.794L273.549 185.219Z" fill="#2F2E41"/>
<path d="M298.797 114.399L286.332 113.377L282.602 120.386L273.619 124.739V159.268C274.554 162.612 275.037 166.111 275.05 169.635C275.016 176.514 273.533 184.617 274.046 186.392C279.068 203.748 306.687 186.392 306.687 186.392L306.185 167.839L306.866 125.91L301.222 120.545L298.797 114.399Z" fill="#EFF7BF"/>
<path d="M273.043 192.715L272.184 181.798L266.882 181.513L268.136 193.017C267.814 193.582 267.631 194.243 267.608 194.925C267.584 195.607 267.721 196.284 268.002 196.879C268.283 197.473 268.698 197.963 269.2 198.292C269.702 198.621 270.271 198.777 270.844 198.742C271.416 198.707 271.968 198.482 272.439 198.093C272.91 197.704 273.281 197.166 273.509 196.54C273.738 195.914 273.815 195.224 273.733 194.548C273.651 193.873 273.412 193.238 273.043 192.715L273.043 192.715Z" fill="#FFB6B6"/>
<path d="M275.652 123.818L275.505 123.848C274.138 124.124 272.848 124.793 271.747 125.797C270.646 126.801 269.767 128.11 269.186 129.61C267.667 133.523 262.738 159.246 264.899 163.124C266.575 166.133 266.168 165.546 265.38 167.815C264.592 170.085 263.323 167.663 264.363 171.265C265.403 174.867 266.546 174.353 265.58 175.744C264.615 177.136 263.625 176.863 264.564 179.194C265.502 181.524 265.35 182.311 265.527 183.189C265.705 184.066 265.55 190.24 265.55 190.24C265.55 190.24 271.213 189.728 274.031 191.333C274.031 191.333 272.459 185.098 273.348 184.1C274.237 183.102 275.303 182.981 274.542 181.528C273.781 180.075 272.054 180.014 273.933 179.289C275.812 178.563 275.207 165.55 275.207 165.55C278.302 155.89 277.079 140.002 275.652 123.818Z" fill="#EFF7BF"/>
<path d="M309.796 193.494L310.193 182.539L315.475 181.936L314.71 193.5C315.055 194.045 315.266 194.694 315.318 195.374C315.371 196.054 315.263 196.738 315.007 197.349C314.751 197.96 314.358 198.474 313.87 198.833C313.383 199.192 312.821 199.382 312.248 199.381C311.675 199.38 311.114 199.189 310.627 198.829C310.14 198.469 309.747 197.954 309.493 197.342C309.238 196.731 309.131 196.047 309.185 195.367C309.239 194.687 309.45 194.038 309.796 193.494Z" fill="#FFB6B6"/>
<path d="M304.274 124.842L304.422 124.863C305.799 125.056 307.116 125.647 308.258 126.584C309.4 127.52 310.334 128.775 310.978 130.238C312.66 134.055 317.981 159.904 316.678 163.452C315.463 166.76 315.513 165.946 316.396 168.165C317.279 170.384 318.444 167.89 317.557 171.549C316.671 175.209 315.508 174.764 316.531 176.096C317.554 177.428 318.532 177.096 317.693 179.48C316.854 181.864 317.039 182.641 316.899 183.528C316.759 184.415 317.175 190.572 317.175 190.572C317.175 190.572 311.498 190.401 308.751 192.173C308.751 192.173 310.058 185.852 309.127 184.908C308.197 183.965 307.127 183.909 307.826 182.412C308.525 180.915 310.247 180.75 308.339 180.138C306.431 179.527 306.485 166.494 306.485 166.494L304.274 124.842Z" fill="#EFF7BF"/>
<path d="M292.871 111.182C298.241 111.182 302.594 105.994 302.594 99.5941C302.594 93.1942 298.241 88.0061 292.871 88.0061C287.501 88.0061 283.148 93.1942 283.148 99.5941C283.148 105.994 287.501 111.182 292.871 111.182Z" fill="#FFB6B6"/>
<path d="M299.637 109.513C300.99 108.252 301.121 105.848 302.275 104.332C304.204 101.798 305.111 99.0724 304.1 96.07C303.206 93.4146 303.396 90.1503 301.471 88.441C302.416 88.033 302.639 87.1858 301.805 87.1701C301.242 87.1596 299.144 88.4412 300.154 86.8447C301.163 85.2482 299.253 85.8784 299.379 85.2249C299.505 84.5713 300.315 84.2094 300.673 84.7274C300.371 84.3602 300.003 84.0799 299.597 83.908C299.19 83.7361 298.756 83.6771 298.328 83.7355C297.899 83.7939 297.487 83.9682 297.124 84.2451C296.761 84.5219 296.455 84.894 296.231 85.333C295.094 83.3018 293.886 81.9041 292.146 83.1932C290.437 84.4591 290.46 86.0241 288.622 85.648C287.758 85.4712 287.676 87.4166 287.086 88.1892C286.813 88.5997 286.458 88.9224 286.054 89.1279C285.65 89.3333 285.209 89.415 284.771 89.3655C283.91 89.1715 283.251 87.8921 283.734 87.0199L281.704 92.5401L280.885 91.3439C279.585 92.3537 280.012 94.9888 281.321 95.9828C282.63 96.9768 284.331 96.7643 285.838 96.3237C287.652 95.7933 289.525 95.6082 291.387 95.7752C294.233 96.2542 296.215 100.308 295.161 103.495C296.254 102.215 298.277 103.277 298.843 104.974C299.409 106.671 298.994 108.582 298.574 110.338" fill="#2F2E41"/>
</g>
<defs>
<clipPath id="clip0_254_505">
<rect width="348" height="316" fill="white"/>
</clipPath>
</defs>
</svg>
