<svg width="340" height="298" viewBox="0 0 340 298" fill="none" xmlns="http://www.w3.org/2000/svg">
<g clip-path="url(#clip0_254_449)">
<path d="M263.474 170.114C280.14 147.24 287.179 123.377 283.295 102.921C278.31 76.6693 256.165 58.5187 222.538 53.1229L222.414 54.6287C255.573 59.9491 277.38 77.6923 282.244 103.308C286.024 123.216 279.087 146.558 262.711 169.035L263.474 170.114Z" fill="#F0F0F0"/>
<path d="M102.673 251.311C123.473 251.311 146.076 247.001 168.528 238.714C196.292 228.466 221.749 212.999 242.147 193.982L241.543 192.723C221.244 211.647 195.899 227.044 168.25 237.249C143.263 246.472 118.09 250.745 95.4592 249.617L95.4199 251.131C97.8099 251.251 100.227 251.311 102.673 251.311Z" fill="#F0F0F0"/>
<path d="M54.9536 241.781L55.3018 240.345C36.6986 231.576 25.063 217.449 21.653 199.492C17.3184 176.664 26.7354 150.173 48.1696 124.9C69.7131 99.4978 100.779 78.4207 135.647 65.5517L135.368 64.0865C100.349 77.0122 69.1314 98.1985 47.4679 123.743C25.6952 149.415 16.154 176.454 20.6021 199.88C24.1098 218.352 35.9884 232.841 54.9536 241.781Z" fill="#F0F0F0"/>
<path d="M225.774 251.944C266.646 226.671 298.14 193.883 314.456 159.619L313.551 158.78C297.348 192.808 266.018 225.402 225.333 250.559L225.774 251.944Z" fill="#F0F0F0"/>
<path d="M82.0729 295.727C86.2886 295.727 90.5763 295.596 94.9361 295.333L94.8894 293.819C62.3541 295.783 33.6477 290.355 11.868 278.118L11.4614 279.524C30.4605 290.197 54.6763 295.727 82.0729 295.727Z" fill="#F0F0F0"/>
<path d="M105.787 54.4818C112.543 51.4154 119.491 48.5603 126.44 45.9956C166.426 31.237 205.732 25.997 240.112 30.8448L240.221 29.3368C205.714 24.473 166.272 29.7256 126.161 44.5304C119.193 47.1025 112.225 49.9658 105.451 53.0411L105.787 54.4818Z" fill="#F0F0F0"/>
<path d="M289.017 172.388C305.683 149.513 312.722 125.65 308.838 105.194C303.853 78.9424 281.708 60.7919 248.082 55.3961L247.958 56.9019C281.116 62.2222 302.923 79.9654 307.787 105.581C311.567 125.489 304.631 148.832 288.254 171.308L289.017 172.388Z" fill="#F0F0F0"/>
<path d="M128.216 253.584C149.017 253.584 171.62 249.274 194.072 240.987C221.836 230.74 247.293 215.272 267.691 196.255L267.087 194.996C246.787 213.92 221.443 229.317 193.794 239.522C168.807 248.745 143.634 253.018 121.003 251.891L120.964 253.405C123.354 253.525 125.771 253.584 128.216 253.584Z" fill="#F0F0F0"/>
<path d="M80.4975 244.054L80.8457 242.618C62.2425 233.849 50.607 219.723 47.197 201.765C42.8624 178.937 52.2794 152.446 73.7135 127.173C95.2571 101.771 126.323 80.6939 161.191 67.8249L160.912 66.3597C125.893 79.2854 94.6753 100.472 73.0119 126.016C51.2391 151.688 41.6979 178.728 46.1461 202.153C49.6538 220.625 61.5324 235.114 80.4975 244.054Z" fill="#F0F0F0"/>
<path d="M251.318 254.217C292.19 228.944 323.684 196.156 340 161.892L339.095 161.054C322.892 195.081 291.562 227.675 250.877 252.832L251.318 254.217Z" fill="#F0F0F0"/>
<path d="M107.616 298C111.832 298 116.12 297.869 120.479 297.606L120.433 296.092C87.8975 298.056 59.1911 292.628 37.4114 280.391L37.0049 281.797C56.004 292.47 80.2198 298 107.616 298Z" fill="#F0F0F0"/>
<path d="M131.331 56.755C138.086 53.6886 145.034 50.8334 151.983 48.2687C191.969 33.5102 231.276 28.2701 265.655 33.118L265.765 31.6099C231.257 26.7462 191.816 31.9988 151.705 46.8036C144.737 49.3757 137.769 52.239 130.994 55.3143L131.331 56.755Z" fill="#F0F0F0"/>
<path d="M321.473 131.797C313.662 119.587 301.202 112.146 289.911 116.6C300.252 126.725 307.877 142.115 311.009 159.182C312.229 165.83 313.09 173.401 317.055 177.465C319.522 179.994 322.792 180.598 325.826 180.022C328.86 179.446 331.729 177.801 334.56 176.171L335.321 176.263C333.132 160.189 329.284 144.007 321.473 131.797Z" fill="#F2F2F2"/>
<path d="M289.945 116.94C299.287 120.09 307.968 127.42 314.182 137.669C315.616 139.953 316.745 142.416 317.537 144.996C318.296 147.7 318.525 150.527 318.211 153.318C317.958 155.945 317.48 158.591 317.689 161.258C317.843 163.809 318.892 166.223 320.651 168.073C322.634 170.091 325.019 170.996 327.373 171.768C329.987 172.625 332.712 173.458 334.843 175.88C335.101 176.173 335.412 175.598 335.154 175.305C331.447 171.091 326.295 171.632 322.193 168.571C321.115 167.776 320.21 166.767 319.535 165.607C318.861 164.447 318.43 163.161 318.27 161.827C317.926 159.138 318.417 156.409 318.69 153.753C319.024 151.024 318.874 148.258 318.249 145.581C317.554 142.953 316.496 140.436 315.107 138.101C312.318 133.243 308.797 128.847 304.668 125.068C300.443 121.135 295.451 118.123 290.006 116.224C289.684 116.115 289.625 116.832 289.945 116.94V116.94Z" fill="white"/>
<path d="M312.288 134.189C314.551 130.683 314.636 125.326 312.502 121.675C312.291 121.316 311.881 121.754 312.091 122.114C314.09 125.534 313.991 130.477 311.875 133.754C311.653 134.099 312.067 134.532 312.288 134.189Z" fill="white"/>
<path d="M318.465 152.01C315.126 152.333 311.78 150.845 309.18 147.911C308.922 147.619 308.61 148.195 308.869 148.487C311.577 151.543 315.062 153.06 318.536 152.725C318.869 152.692 318.796 151.978 318.465 152.01Z" fill="white"/>
<path d="M300.062 121.918C299.406 123.508 298.209 124.545 296.895 124.649C296.562 124.675 296.635 125.389 296.966 125.363C298.398 125.25 299.759 124.087 300.475 122.353C300.514 122.273 300.531 122.182 300.522 122.093C300.513 122.004 300.479 121.919 300.424 121.848C300.399 121.82 300.368 121.8 300.333 121.788C300.298 121.776 300.26 121.774 300.224 121.781C300.187 121.788 300.153 121.804 300.125 121.828C300.097 121.852 300.075 121.883 300.062 121.918V121.918Z" fill="white"/>
<path d="M273.882 167.288C274.09 167.28 274.298 167.272 274.509 167.268C277.316 167.179 280.123 167.408 282.879 167.949C283.094 167.986 283.311 168.028 283.525 168.074C290.172 169.475 296.636 172.606 302.469 177.277C304.852 179.194 307.075 181.302 309.116 183.582C312.013 186.805 314.971 190.621 318.363 192.273C318.71 192.448 319.07 192.596 319.441 192.714L335.182 177.551C335.205 177.492 335.231 177.437 335.255 177.377L335.903 176.812C335.801 176.681 335.693 176.548 335.591 176.418C335.532 176.341 335.469 176.268 335.41 176.192C335.369 176.142 335.329 176.093 335.294 176.045C335.281 176.028 335.267 176.011 335.256 176C335.222 175.952 335.186 175.912 335.154 175.869C334.552 175.125 333.945 174.385 333.333 173.651C333.331 173.646 333.331 173.646 333.325 173.644C328.654 168.061 323.607 162.974 318.167 159.115C318.003 158.999 317.837 158.878 317.666 158.769C315.269 157.084 312.708 155.644 310.024 154.472C308.6 153.861 307.138 153.345 305.645 152.928C301.871 151.877 297.913 151.666 294.048 152.308C286.343 153.591 279.018 158.294 274.242 166.645C274.12 166.859 274.001 167.069 273.882 167.288Z" fill="#F2F2F2"/>
<path d="M274.055 167.532C282.874 162.205 292.971 160.772 302.358 163.739C304.486 164.356 306.471 165.386 308.202 166.772C309.998 168.268 311.314 170.325 312.334 172.852C313.265 175.162 314.027 177.675 315.345 179.629C316.734 181.689 318.647 182.627 320.653 182.584C323.108 182.531 325.403 181.252 327.616 179.892C330.073 178.383 332.609 176.76 335.356 176.905C335.689 176.923 335.689 176.202 335.356 176.184C330.577 175.932 326.697 180.688 322.1 181.688C319.955 182.154 317.696 181.722 316.055 179.596C314.619 177.738 313.832 175.147 312.903 172.797C311.928 170.329 310.715 168.222 309.022 166.642C307.361 165.144 305.406 164.008 303.284 163.307C298.803 161.752 294.039 161.191 289.32 161.663C283.817 162.215 278.509 164.009 273.795 166.909C273.49 167.093 273.753 167.715 274.055 167.532V167.532Z" fill="white"/>
<path d="M299.343 162.55C299.636 157.851 297.39 153.502 294.11 152.379C293.787 152.268 293.648 152.963 293.972 153.074C297.045 154.127 299.1 158.157 298.826 162.549C298.797 163.011 299.315 163.01 299.343 162.55Z" fill="white"/>
<path d="M311.972 171.594C309.445 174.654 306.131 176.275 302.788 176.115C302.456 176.099 302.455 176.82 302.788 176.836C306.27 177.003 309.708 175.288 312.337 172.104C312.589 171.799 312.222 171.29 311.972 171.594Z" fill="white"/>
<path d="M284.283 163.015C284.474 164.742 283.991 166.477 282.933 167.854C282.679 168.154 283.046 168.663 283.298 168.364C284.393 167.072 284.978 165.001 284.8 163.015C284.782 162.821 284.694 162.657 284.542 162.654C284.461 162.67 284.389 162.716 284.341 162.783C284.293 162.85 284.272 162.933 284.283 163.015Z" fill="white"/>
<path d="M15.4068 231.89C19.82 216.73 29.7612 203.882 41.4698 202.787C34.1712 217.168 30.6993 235.236 31.8638 252.778C32.3173 259.611 33.332 267.144 30.5772 272.83C29.8327 274.396 28.7669 275.785 27.4495 276.909C26.1322 278.032 24.5931 278.864 22.9331 279.349C19.9363 280.228 16.8375 280.023 13.7788 279.814L13.0836 280.257C11.2711 264.093 10.9936 247.049 15.4068 231.89Z" fill="#F2F2F2"/>
<path d="M41.5193 203.123C33.4801 210.467 27.0715 221.438 23.6899 234.003C22.8995 236.763 22.4316 239.607 22.2956 242.476C22.2126 245.258 22.6788 248.029 23.6674 250.63C24.5394 252.985 25.627 255.253 26.0733 257.862C26.5145 260.521 26.1134 263.251 24.9262 265.669C23.5454 268.5 21.5174 270.469 19.4862 272.3C17.231 274.332 14.8654 276.393 13.4424 279.672C13.27 280.07 12.8378 279.673 13.01 279.277C15.4857 273.571 20.4686 271.666 23.5938 266.862C25.2222 264.46 25.9551 261.56 25.6635 258.671C25.339 255.977 24.2189 253.637 23.3212 251.263C22.3284 248.746 21.8016 246.068 21.7669 243.36C21.7981 240.484 22.1863 237.623 22.9224 234.844C24.4179 228.86 26.6658 223.091 29.6121 217.677C32.6394 211.997 36.5853 206.861 41.2891 202.477C41.5668 202.223 41.7952 202.871 41.5193 203.123Z" fill="white"/>
<path d="M24.6347 229.838C21.6581 227.596 20.2868 222.59 21.4168 218.152C21.5281 217.715 22.0207 217.936 21.9092 218.373C20.8506 222.531 22.136 227.14 24.9185 229.235C25.2113 229.456 24.9259 230.057 24.6347 229.838Z" fill="white"/>
<path d="M23.1123 249.517C26.3351 248.256 29.1274 245.288 30.8689 241.306C31.0423 240.909 31.4745 241.306 31.3013 241.702C29.487 245.85 26.5703 248.911 23.2174 250.223C22.8964 250.349 22.793 249.642 23.1123 249.517Z" fill="white"/>
<path d="M33.1909 212.552C34.1917 213.742 35.5695 214.158 36.8323 213.64C37.152 213.509 37.2551 214.215 36.9374 214.346C35.5616 214.91 33.9991 214.453 32.9071 213.155C32.8488 213.087 32.8108 213.004 32.7976 212.916C32.7845 212.828 32.7967 212.737 32.8328 212.655C32.901 212.507 33.0846 212.425 33.1909 212.552H33.1909Z" fill="white"/>
<path d="M68.785 243.015C68.587 243.104 68.3891 243.194 68.1897 243.29C65.473 244.552 62.8875 246.081 60.4708 247.853C60.2774 247.989 60.083 248.131 59.8928 248.274C53.9699 252.708 48.6364 258.686 44.2693 265.818C42.4928 268.728 40.9091 271.753 39.5284 274.871C37.5767 279.264 35.7113 284.244 32.9149 287.389C32.6321 287.716 32.3285 288.023 32.0058 288.31L13.5255 281.405C13.4891 281.36 13.4514 281.321 13.4149 281.276L12.668 281.047C12.7326 280.876 12.8024 280.7 12.867 280.529C12.9042 280.43 12.9456 280.332 12.9828 280.232C13.0089 280.167 13.0352 280.101 13.0561 280.039C13.0648 280.017 13.0736 279.995 13.0811 279.979C13.102 279.918 13.126 279.864 13.1458 279.808C13.5335 278.825 13.9269 277.844 14.3259 276.866C14.327 276.86 14.327 276.86 14.3323 276.855C17.3861 269.409 20.9127 262.252 25.1063 256.069C25.2325 255.883 25.3597 255.691 25.4943 255.508C27.3407 252.804 29.4012 250.253 31.6559 247.881C32.8419 246.644 34.0943 245.474 35.4075 244.374C38.5774 241.689 42.2359 239.645 46.1809 238.356C53.7469 235.953 61.7799 236.951 68.2906 242.578C68.4571 242.722 68.6197 242.865 68.785 243.015Z" fill="#F2F2F2"/>
<path d="M68.681 243.326C59.0909 242.441 49.2359 245.823 41.1102 253.016C39.2352 254.617 37.6245 256.505 36.3378 258.611C35.005 260.967 34.1787 263.577 33.9118 266.273C33.5912 268.885 33.4801 271.609 32.7095 274.067C31.8973 276.658 30.3225 278.438 28.4224 279.338C26.0976 280.438 23.6278 280.309 21.2156 280.065C18.5373 279.795 15.7585 279.455 13.2061 280.879C12.8969 281.051 12.7229 280.372 13.0317 280.2C17.4724 277.722 22.2735 280.384 26.8437 279.171C28.0372 278.864 29.1361 278.264 30.0417 277.426C30.9474 276.588 31.6317 275.537 32.0332 274.369C32.9373 271.946 33.0536 269.137 33.3619 266.488C33.6856 263.707 34.3201 261.154 35.5337 258.873C36.734 256.687 38.2887 254.717 40.1342 253.043C43.8409 249.566 48.1681 246.821 52.8889 244.951C57.9286 242.934 63.3711 242.134 68.7761 242.617C69.1074 242.648 69.0101 243.356 68.681 243.326H68.681Z" fill="white"/>
<path d="M43.6629 250.483C42.2543 246.195 43.3212 241.047 46.14 238.452C46.4177 238.196 46.7157 238.786 46.4376 239.042C43.7969 241.473 42.833 246.232 44.1498 250.24C44.2884 250.662 43.8007 250.903 43.6629 250.483Z" fill="white"/>
<path d="M33.949 264.918C35.4393 265.751 37.1185 266.185 38.8245 266.177C40.5305 266.169 42.2056 265.72 43.6881 264.873C43.9978 264.702 44.1718 265.381 43.8625 265.552C42.3175 266.429 40.573 266.892 38.7977 266.895C37.0224 266.898 35.2762 266.442 33.7281 265.57C33.4175 265.401 33.6401 264.75 33.949 264.918Z" fill="white"/>
<path d="M57.9591 243.864C58.2444 245.654 59.1647 247.143 60.3968 247.789C60.7088 247.953 60.4858 248.603 60.1758 248.441C58.8335 247.737 57.7834 246.06 57.4722 244.107C57.4481 244.023 57.4502 243.934 57.4782 243.852C57.5061 243.769 57.5586 243.697 57.6285 243.646C57.6646 243.633 57.7031 243.629 57.7411 243.634C57.7791 243.638 57.8155 243.652 57.8475 243.673C57.8795 243.694 57.9062 243.722 57.9256 243.755C57.9449 243.788 57.9564 243.825 57.9591 243.864Z" fill="white"/>
<path d="M4.34787 136.771C6.74913 136.771 8.69574 134.057 8.69574 130.709C8.69574 127.361 6.74913 124.648 4.34787 124.648C1.94661 124.648 0 127.361 0 130.709C0 134.057 1.94661 136.771 4.34787 136.771Z" fill="#FD6584"/>
<path d="M85.6252 180.266C88.0265 180.266 89.9731 177.552 89.9731 174.204C89.9731 170.856 88.0265 168.142 85.6252 168.142C83.224 168.142 81.2773 170.856 81.2773 174.204C81.2773 177.552 83.224 180.266 85.6252 180.266Z" fill="#E6E6E6"/>
<path d="M166.529 12.1236C168.93 12.1236 170.876 9.4096 170.876 6.06178C170.876 2.71395 168.93 0 166.529 0C164.127 0 162.181 2.71395 162.181 6.06178C162.181 9.4096 164.127 12.1236 166.529 12.1236Z" fill="#E6E6E6"/>
<path d="M151.766 266.927C155.217 267.086 158.593 265.877 161.164 263.563C163.735 261.248 165.296 258.013 165.511 254.554C165.557 253.79 165.535 253.022 165.445 252.262L207.007 231.628L186.385 219.579L150.079 241.021C146.671 241.69 143.663 243.677 141.705 246.552C139.746 249.428 138.994 252.961 139.612 256.388C140.146 259.267 141.639 261.878 143.848 263.794C146.056 265.709 148.848 266.814 151.766 266.927L151.766 266.927Z" fill="#9E616A"/>
<path d="M165.035 230.683L165.615 231.846L166.32 233.248L170.175 240.961L171.536 243.672V243.676L172.741 246.088L173.764 248.132L173.853 248.306L175.343 251.288L180.64 248.662L215.388 231.43L249.688 214.417L253.104 212.724L251.723 206.911L236.589 143.306C235.595 139.125 233.003 135.502 229.371 133.219C225.74 130.936 221.359 130.175 217.174 131.1C212.988 132.025 209.332 134.562 206.994 138.165C204.656 141.768 203.822 146.147 204.673 150.361L214.163 197.384L204.624 202.668L192.64 209.306L189.015 216.417L181.401 215.1L175.363 220.849L172.978 223.12L165.035 230.683Z" fill="#3F3D56"/>
<path d="M80.7676 257.59C82.9227 259.417 85.1342 261.175 87.4021 262.867C100.659 272.771 115.615 280.154 131.528 284.647H131.532C133.359 285.657 135.411 286.186 137.498 286.183C147.618 288.537 157.973 289.724 168.362 289.718C170.642 289.718 172.914 289.661 175.166 289.548L174.956 278.684L174.872 274.284L161.035 263.675L158.142 261.457L157.047 260.612L156.189 259.954L142.4 249.381L142.194 249.409L140.124 249.684L136.1 250.221L131.653 250.811L121.159 252.209H121.155L116.595 252.819L80.7676 257.59Z" fill="#2F2E41"/>
<path d="M149.194 93.5115C164.685 93.5115 177.243 80.9164 177.243 65.3795C177.243 49.8427 164.685 37.2476 149.194 37.2476C133.703 37.2476 121.145 49.8427 121.145 65.3795C121.145 80.9164 133.703 93.5115 149.194 93.5115Z" fill="#FFB6B6"/>
<path d="M77.8833 255.073C78.834 255.926 79.7954 256.765 80.7675 257.59C82.9227 259.417 85.1342 261.175 87.4021 262.867C98.1011 260.903 115.471 258.415 132.071 259.081C132.792 259.114 133.509 259.15 134.227 259.19H134.231C136.422 259.316 138.597 259.501 140.732 259.756H140.736C142.795 259.998 144.814 260.307 146.795 260.681C149.184 261.129 151.546 261.707 153.872 262.414C154.634 262.645 155.38 262.892 156.112 263.158C156.289 263.218 156.466 263.279 156.64 263.348C157.723 263.744 158.775 264.173 159.794 264.636H159.798C166.364 267.622 171.56 272.002 174.42 278.256C174.458 278.372 174.529 278.474 174.624 278.55C174.72 278.626 174.835 278.673 174.956 278.684H174.98C175.031 278.684 175.081 278.677 175.129 278.664C175.649 278.518 176.056 278.405 174.187 262.196L172.213 249.676L172.169 249.385L172.241 248.969L172.257 248.88L172.741 246.088L173.53 241.559V241.555L174.138 238.072L177.063 235.139L177.45 234.751L172.128 229.414L172.31 228.077L172.334 227.879L172.978 223.12L174.223 213.864L174.815 209.464L175.041 207.816L175.339 205.59L175.391 205.202L176.189 200.964L184.257 158.223C185.782 150.116 184.597 141.732 180.887 134.37C177.177 127.008 171.149 121.079 163.737 117.502L157.155 101.244L125.03 101.002L112.74 114.419L88.5662 122.653L85.545 123.683L90.0567 217.237L78.0283 224.639L78.3022 224.885C78.3224 224.906 80.4291 226.816 81.3758 227.867C81.8189 228.497 81.0253 233.091 80.0102 237.143C79.978 237.272 79.9417 237.406 79.9095 237.535L78.5479 247.757L81.98 250.217L77.8833 255.073Z" fill="#1C85E8"/>
<path d="M126.907 280.155C128.021 282.038 129.616 283.588 131.527 284.647H131.531C133.358 285.657 135.411 286.186 137.497 286.183C139.33 286.174 141.14 285.766 142.8 284.986C144.46 284.206 145.931 283.073 147.111 281.665C148.291 280.258 149.152 278.611 149.633 276.836C150.115 275.062 150.206 273.204 149.9 271.392C149.814 270.888 149.697 270.39 149.55 269.901C149.337 269.199 149.063 268.518 148.732 267.864L149.832 266.697L151.705 264.709L153.872 262.414L156.188 259.954L157.006 259.085L170.976 244.266L171.536 243.676V243.672L173.53 241.559V241.555L179.222 235.519L177.063 235.139L168.893 233.701L166.319 233.248L163.947 232.832L156.728 231.56L148.748 241.361L144.76 246.258L142.194 249.409L139.451 252.779L138.532 253.902L134.23 259.19H134.226L132.172 261.715L131.221 262.883C128.384 264.616 126.34 267.399 125.533 270.632C124.725 273.864 125.219 277.285 126.907 280.155Z" fill="#FFB6B6"/>
<path d="M135.149 251.126L138.533 253.902L139.403 254.617H139.407L146.795 260.681L151.705 264.709L152.994 265.768L156.112 263.158L156.817 262.568L158.142 261.457L165.433 255.352L172.213 249.676L172.398 249.522L173.852 248.306L174.481 247.777H174.485L174.493 247.769L181.357 242.02L193.41 231.927L199.21 227.071L206.92 220.615L204.624 202.668L200.121 167.43L186.872 139.99C186.505 139.23 186.11 138.487 185.687 137.767C181.679 130.943 175.215 125.92 167.626 123.731C160.036 121.543 151.899 122.355 144.889 126.002L144.692 126.103L144.631 126.318C144.394 127.182 139.117 147.819 167.911 184.952L174.783 206.991L175.041 207.816L176.306 211.88L176.124 212.05L174.223 213.864L156.225 231.03L142.049 244.545L136.1 250.221L135.149 251.126Z" fill="#1C85E8"/>
<path d="M144.837 272.531C141.531 272.582 138.338 271.328 135.945 269.039C133.553 266.75 132.153 263.61 132.048 260.296C132.026 259.563 132.069 258.83 132.177 258.105L93.0186 237.158L113.092 226.233L147.2 247.8C150.441 248.539 153.261 250.527 155.051 253.334C156.841 256.142 157.458 259.543 156.767 262.803C156.174 265.542 154.67 267.996 152.502 269.764C150.334 271.532 147.631 272.508 144.837 272.531L144.837 272.531Z" fill="#FFB6B6"/>
<path d="M60.4932 179.26L67.6715 231.855L80.0101 237.143L116.595 252.819L127.471 257.477L128.357 256.063L131.652 250.811L137.425 241.62L139.753 237.907L97.1584 213.811L96.5823 185.607C112.115 141.222 100.574 123.332 100.075 122.593L99.9499 122.407L99.7324 122.374C95.6575 121.721 91.4929 121.9 87.4889 122.902C83.4849 123.904 79.7242 125.708 76.433 128.204C73.1253 130.678 70.3503 133.796 68.275 137.372C66.1996 140.949 64.8667 144.909 64.3563 149.015L60.4932 179.26Z" fill="#1C85E8"/>
<path d="M124.311 40.0226C126.748 32.9121 138.879 27.9803 158.545 27.2945C178.211 26.6087 183.199 49.853 183.199 49.853C196.328 60.5345 169.18 89.1316 167.867 88.1016L168.457 82.7287C169.435 73.8293 173.59 66.8855 168.306 57.6107L163.232 57.6692C156.678 58.933 150.125 60.1969 143.572 61.4608C146.158 59.177 148.744 56.8933 151.33 54.6095L151.111 54.27C147.721 55.83 144.228 57.2766 140.521 57.4951C136.351 57.741 131.792 56.0765 129.795 52.3969C129.262 51.3855 128.936 50.2772 128.837 49.1375C123.213 51.3907 120.642 58.3434 120.642 58.3434C120.642 58.3434 121.874 47.133 124.311 40.0226Z" fill="#2F2E41"/>
<path d="M176.213 289.491C201.695 288.054 226.249 279.403 247.03 264.544C247.638 264.107 248.242 263.667 248.842 263.222L237.877 230.917L215.388 231.43L206.993 231.62L193.41 231.927L182.424 232.178L181.357 242.02L181.091 244.496L180.64 248.662L179.19 262.031L176.213 289.491Z" fill="#2F2E41"/>
<path d="M169.377 229.721C168.833 230.267 168.708 231.685 168.894 233.701C169.165 236.146 169.593 238.571 170.175 240.961C170.416 242.02 170.686 243.127 170.976 244.266C171.359 245.765 171.778 247.316 172.221 248.896C172.226 248.921 172.232 248.945 172.241 248.969C172.293 249.154 172.342 249.34 172.398 249.522C173.361 252.944 174.432 256.463 175.48 259.784C175.68 260.431 176.083 260.995 176.627 261.395C177.172 261.795 177.83 262.01 178.505 262.006H178.565L179.19 262.03L247.03 264.543C247.638 264.107 248.242 263.667 248.842 263.222C249.805 262.511 250.758 261.787 251.702 261.049C251.625 260.714 251.497 260.392 251.324 260.095L251.622 259.845L251.215 259.364C250.337 258.322 248.391 253.696 248.818 252.952L254.708 247.046C254.965 246.805 255.166 246.512 255.299 246.185C255.431 245.858 255.49 245.507 255.473 245.155C255.364 243.135 252.77 241.03 250.478 239.171C249.688 238.529 248.943 237.923 248.395 237.394C248.27 237.272 248.057 237.042 248.065 236.86C248.073 236.549 248.625 236.089 249.112 235.681C249.938 234.986 250.877 234.202 250.929 233.018C250.965 232.19 250.55 231.358 249.664 230.469C249.346 230.166 249.055 229.836 248.794 229.483C248.871 229.463 248.951 229.439 249.024 229.422C250.083 229.148 252.287 228.582 251.416 224.651C251.372 224.445 251.638 223.984 251.872 223.576C252.625 222.259 253.89 220.053 250.925 217.08C250.203 216.373 249.763 215.426 249.688 214.417C249.515 212.599 250.232 210.207 251.723 206.911C253.197 203.654 255.425 199.517 258.297 194.18L259.856 191.283C268.347 175.466 251.489 134.03 249.539 129.36C249.428 129.087 249.278 128.833 249.092 128.604L234.361 110.137C234.065 109.762 233.687 109.46 233.257 109.252C232.827 109.045 232.356 108.939 231.879 108.941L208.246 108.133C207.594 108.133 206.959 108.334 206.425 108.709C205.891 109.083 205.485 109.612 205.261 110.226L193.571 122.128C193.406 122.588 193.069 122.966 192.632 123.182C190.997 124.003 188.918 130.382 185.687 137.767C185.083 139.149 184.435 140.567 183.742 141.993C181.26 147.108 178.191 152.292 174.32 156.142C162.678 167.725 172.229 179.583 175.504 184.847C175.649 185.081 175.742 185.344 175.777 185.617C175.812 185.891 175.787 186.168 175.705 186.431C173.953 191.986 175.488 197.449 176.189 200.964C176.535 202.681 176.68 203.929 176.148 204.499C175.837 204.83 175.566 205.196 175.339 205.59C175.087 206.027 174.899 206.5 174.783 206.991C174.591 207.806 174.602 208.655 174.815 209.464C175.071 210.406 175.517 211.286 176.124 212.05C176.132 212.062 176.14 212.07 176.148 212.082C177.804 214.231 174.839 217.649 175.363 220.849C175.397 221.077 175.451 221.301 175.524 221.52C176.225 223.629 176.217 224.954 175.762 225.855C175.198 226.974 173.953 227.451 172.547 227.984C172.467 228.016 172.39 228.045 172.31 228.077C171.991 228.198 171.673 228.319 171.359 228.457C171.353 228.456 171.348 228.458 171.343 228.461L171.339 228.465C171.335 228.465 171.335 228.469 171.331 228.469C170.739 228.716 170.185 229.043 169.683 229.443L169.679 229.447C169.574 229.533 169.473 229.624 169.377 229.721Z" fill="#FFB99B"/>
<path d="M224.939 102.198C218.508 103.787 211.733 103.192 205.675 100.505C205.232 100.307 204.793 100.101 204.362 99.8829C200.566 97.9792 197.214 95.2903 194.529 91.9932C191.844 88.6962 189.885 84.8658 188.783 80.7546C187.681 76.6434 187.46 72.3446 188.135 68.1415C188.81 63.9384 190.365 59.9264 192.698 56.3699C195.031 52.8133 198.089 49.793 201.67 47.5079C205.251 45.2227 209.275 43.7247 213.476 43.1125C217.676 42.5002 221.958 42.7877 226.04 43.9559C230.122 45.1241 233.91 47.1466 237.156 49.89C237.156 49.894 237.156 49.894 237.164 49.894C237.983 50.5857 238.764 51.3207 239.505 52.0959L239.509 52.0999C243.152 55.9221 245.729 60.6384 246.98 65.7753C248.231 70.9123 248.112 76.2889 246.636 81.3653C245.16 86.4417 242.377 91.0391 238.569 94.6958C234.76 98.3526 230.06 100.94 224.939 102.198Z" fill="#9E616A"/>
<path d="M222.328 36.2605L225.973 37.2336L227.211 37.564L241.082 41.267C253.377 44.5492 260.359 58.4557 256.677 72.3281C263.475 84.1475 257.585 95.1087 246.88 105.744C232.509 103.928 218.998 103.802 205.517 105.794L205.756 97.8298L199.683 106.781C196.216 107.454 192.739 108.273 189.25 109.238C197.179 93.5763 203.025 77.3994 204.021 63.8867L197.669 62.191L199.519 55.2193L195.513 61.6154L183.998 58.5412V58.5412C185.056 54.5539 186.887 50.8147 189.386 47.5371C191.885 44.2595 195.003 41.5077 198.562 39.4388C202.121 37.3698 206.052 36.0242 210.13 35.4789C214.208 34.9336 218.353 35.1992 222.328 36.2605Z" fill="#2F2E41"/>
<path d="M247.932 54.884C255.745 54.884 262.08 48.5312 262.08 40.6945C262.08 32.8579 255.745 26.505 247.932 26.505C240.118 26.505 233.784 32.8579 233.784 40.6945C233.784 48.5312 240.118 54.884 247.932 54.884Z" fill="#2F2E41"/>
<path opacity="0.2" d="M98.4854 179.879L100.123 210.116L137.492 239.82L103.693 208.817L98.4854 179.879Z" fill="black"/>
<path opacity="0.2" d="M173.199 213.46L144.091 240.693L169.806 212.612L173.199 213.46Z" fill="black"/>
<path opacity="0.2" d="M192.133 88.6149C188.048 81.8671 186.756 73.7854 188.531 66.095C190.777 66.9142 192.751 68.3444 194.231 70.2255C195.712 72.1065 196.641 74.364 196.914 76.7449C197.187 78.9678 196.891 81.2238 196.055 83.3004C195.218 85.3771 193.869 87.206 192.133 88.6149Z" fill="black"/>
<path d="M193.693 76.7457C194.113 80.1853 193.168 83.6525 191.062 86.3997C188.956 89.1469 185.858 90.954 182.436 91.4313C181.679 91.535 180.915 91.5712 180.152 91.5396L162.795 134.671L149.25 114.963L167.809 77.0263C168.215 73.5677 169.962 70.4084 172.672 68.2313C175.382 66.0542 178.838 65.0342 182.292 65.3919C185.195 65.7064 187.904 67.0016 189.976 69.0648C192.048 71.128 193.359 73.8366 193.693 76.7456L193.693 76.7457Z" fill="#9E616A"/>
<path d="M230.217 155.488L221.24 119.092L166.466 148.867L166.532 129.338L176.903 102.13L155.691 95.0849L133.47 151.696L130.106 169.32C129.635 171.788 129.803 174.336 130.593 176.721C131.383 179.105 132.77 181.247 134.62 182.941C136.616 184.768 139.076 186.006 141.73 186.519C144.383 187.031 147.126 186.798 149.656 185.845L230.217 155.488Z" fill="#FFB99B"/>
</g>
<defs>
<clipPath id="clip0_254_449">
<rect width="340" height="298" fill="white"/>
</clipPath>
</defs>
</svg>
