<svg width="366" height="282" viewBox="0 0 366 282" fill="none" xmlns="http://www.w3.org/2000/svg">
<g clip-path="url(#clip0_259_1342)">
<path d="M104.173 226.084L104.133 219.883L103.55 127.872L103.528 124.429L103.207 73.7874C98.3887 70.9441 93.3579 68.43 88.1538 66.2648C67.7655 57.8005 43.5232 54.3102 23.4498 63.4075C12.7333 68.4527 4.44244 77.1036 0.234339 87.6312C0.115837 87.9094 0.006531 88.1788 -0.0935278 88.4483C-3.4413 97.4004 -3.41665 107.123 1.48429 115.517C10.2577 130.603 29.8783 136.175 47.3047 141.499C64.7219 146.822 84.0382 155.492 88.3812 172.181C84.7234 167.966 79.9345 164.74 74.5065 162.835C69.0785 160.93 63.2073 160.414 57.4961 161.34C51.785 162.267 46.44 164.602 42.0105 168.106C37.5809 171.611 34.2265 176.158 32.2921 181.28C31.9736 182.114 31.6829 182.957 31.4292 183.809C30.8227 185.854 30.4575 187.956 30.3403 190.077C29.49 206.257 42.7189 220.754 58.4153 227.545C72.6088 233.676 88.5379 234.845 104.232 235.434L104.173 226.084Z" fill="#F0F0F0"/>
<path d="M104.134 219.883L104.173 226.084C100.658 217.638 95.3542 209.947 88.5807 203.477C81.8072 197.006 73.705 191.889 64.7634 188.436C54.1958 184.454 42.7741 182.868 31.429 183.809C31.6829 182.957 31.9734 182.114 32.292 181.28C36.6997 180.986 41.1262 181.049 45.5225 181.466C61.212 182.964 75.9709 189.156 87.6172 199.125C94.4452 205.027 100.045 212.065 104.134 219.883Z" fill="white"/>
<path d="M103.528 124.429L103.55 127.872C99.8714 124.549 95.9035 121.519 91.6878 118.814C78.5896 110.361 63.7934 103.973 48.7756 99.1909C33.384 94.2649 17.407 91.1237 1.20123 89.8373C0.8364 89.806 0.498424 89.6442 0.257351 89.3856C0.0162788 89.127 -0.109404 88.7913 -0.0936501 88.4482C-0.103716 88.1459 0.0140965 87.8522 0.234097 87.6311C0.349257 87.5279 0.488744 87.4518 0.641218 87.4087C0.793692 87.3657 0.954851 87.3569 1.11159 87.3833C3.11101 87.5369 5.10108 87.708 7.10042 87.9224C23.6894 89.6776 39.9813 93.3597 55.6011 98.884C70.6778 104.195 85.5881 111.05 98.3308 120.364C100.125 121.646 101.863 122.998 103.528 124.429Z" fill="white"/>
<path d="M16.8479 47.8998C19.9135 47.8998 22.3986 45.5699 22.3986 42.6959C22.3986 39.8219 19.9135 37.4921 16.8479 37.4921C13.7823 37.4921 11.2971 39.8219 11.2971 42.6959C11.2971 45.5699 13.7823 47.8998 16.8479 47.8998Z" fill="#F0F0F0"/>
<path d="M244.404 64.2802H242.819V23.5649C242.819 20.4703 242.169 17.4061 240.905 14.547C239.642 11.688 237.791 9.09022 235.457 6.90201C233.123 4.71381 230.352 2.97803 227.302 1.79378C224.252 0.609529 220.984 2.67579e-06 217.683 0H125.672C119.006 -6.48478e-06 112.612 2.48271 107.898 6.90198C103.184 11.3212 100.536 17.3151 100.536 23.5649V246.932C100.536 253.182 103.184 259.176 107.898 263.595C112.612 268.014 119.005 270.497 125.672 270.497H217.683C224.349 270.497 230.743 268.014 235.457 263.595C240.17 259.176 242.819 253.182 242.819 246.932V93.2621H244.404V64.2802Z" fill="#3F3D56"/>
<path d="M237.469 23.7296V246.77C237.469 247.096 237.46 247.418 237.439 247.74C237.175 252.233 235.086 256.461 231.599 259.553C228.113 262.646 223.495 264.369 218.695 264.367H126.243C121.432 264.368 116.804 262.637 113.316 259.53C109.828 256.424 107.746 252.18 107.5 247.675C107.483 247.378 107.474 247.076 107.474 246.77V23.7296C107.473 19.0622 109.451 14.5858 112.97 11.2851C116.49 7.98433 121.265 6.12966 126.243 6.12903H137.462C136.91 7.39849 136.699 8.77579 136.848 10.1397C136.997 11.5035 137.502 12.8122 138.317 13.9502C139.132 15.0883 140.234 16.021 141.524 16.666C142.815 17.3111 144.255 17.6488 145.717 17.6495H198.431C199.893 17.6487 201.333 17.3109 202.623 16.6658C203.913 16.0207 205.015 15.0881 205.83 13.95C206.646 12.812 207.15 11.5034 207.299 10.1396C207.448 8.77575 207.237 7.39847 206.685 6.12903H218.695C223.674 6.1295 228.449 7.98398 231.97 11.2846C235.49 14.5853 237.469 19.0618 237.469 23.7296Z" fill="white"/>
<path d="M235.762 191.939H109.178C108.734 191.939 108.307 191.773 107.993 191.478C107.678 191.184 107.502 190.784 107.501 190.367V44.7731C107.502 44.3562 107.678 43.9565 107.993 43.6618C108.307 43.367 108.734 43.2013 109.178 43.2008H235.762C236.206 43.2012 236.633 43.367 236.947 43.6618C237.262 43.9565 237.439 44.3562 237.439 44.7731V190.367C237.439 190.784 237.262 191.184 236.947 191.478C236.633 191.773 236.206 191.939 235.762 191.939Z" fill="#F0F0F0"/>
<path d="M226.472 53.3599H118.728C118.283 53.3601 117.856 53.5259 117.541 53.8209C117.227 54.1158 117.05 54.5158 117.05 54.9329V160.133C117.051 160.549 117.228 160.948 117.543 161.242C117.857 161.536 118.283 161.702 118.728 161.702H226.472C226.916 161.702 227.342 161.536 227.657 161.242C227.971 160.948 228.148 160.549 228.15 160.133V54.9329C228.149 54.5157 227.972 54.1158 227.658 53.8209C227.343 53.5259 226.917 53.3601 226.472 53.3599Z" fill="#DCE1F2"/>
<path d="M116.859 37.8988C119.259 37.8988 121.205 36.0743 121.205 33.8237C121.205 31.573 119.259 29.7485 116.859 29.7485C114.458 29.7485 112.512 31.573 112.512 33.8237C112.512 36.0743 114.458 37.8988 116.859 37.8988Z" fill="#1C85E8"/>
<path d="M137.534 166.889C130.112 155.682 132.669 141.364 133.919 128.224C135.785 108.509 134.101 88.6413 128.937 69.4508C135.088 75.8897 139.146 83.8431 140.633 92.3731C141.859 99.486 141.253 106.804 142.641 113.89C145.618 129.086 157.603 142.79 155.748 158.142C155.338 161.535 153.959 165.185 150.746 166.792C147.118 168.607 142.691 167.164 138.886 165.703" fill="#C2BBFF"/>
<path d="M125.008 171.541C124.195 170.775 123.091 170.343 121.938 170.341C120.786 170.338 119.68 170.765 118.863 171.527C118.046 172.289 117.585 173.324 117.582 174.404C117.579 175.484 118.034 176.522 118.847 177.287L118.862 177.301L125.008 183.062L131.153 177.301C131.964 176.537 132.419 175.502 132.417 174.423C132.416 173.345 131.958 172.311 131.144 171.548C130.331 170.786 129.228 170.357 128.077 170.355C126.927 170.354 125.823 170.78 125.008 171.541V171.541Z" fill="#FBC3DE"/>
<path d="M144.133 171.541C143.321 170.775 142.217 170.343 141.064 170.341C139.912 170.338 138.806 170.765 137.989 171.527C137.172 172.289 136.711 173.324 136.708 174.404C136.705 175.484 137.16 176.522 137.973 177.287L137.988 177.301L144.133 183.062L150.279 177.301C151.09 176.537 151.545 175.502 151.543 174.423C151.542 173.345 151.084 172.311 150.27 171.548C149.457 170.786 148.354 170.357 147.203 170.355C146.053 170.354 144.949 170.78 144.133 171.541V171.541Z" fill="#FBC3DE"/>
<path d="M163.259 171.541C162.447 170.775 161.343 170.343 160.19 170.341C159.038 170.338 157.931 170.765 157.115 171.527C156.298 172.289 155.837 173.324 155.834 174.404C155.831 175.484 156.286 176.522 157.099 177.287L157.114 177.301L163.259 183.062L169.405 177.301C170.216 176.537 170.671 175.502 170.669 174.423C170.668 173.345 170.21 172.311 169.396 171.548C168.583 170.786 167.48 170.357 166.329 170.355C165.179 170.354 164.075 170.78 163.259 171.541V171.541Z" fill="#FBC3DE"/>
<path d="M197.043 37.0196H135.747C135.306 37.02 134.87 36.9391 134.462 36.7812C134.055 36.6234 133.685 36.3919 133.373 36.0998C133.061 35.8078 132.813 35.461 132.645 35.0792C132.476 34.6975 132.389 34.2883 132.389 33.875C132.389 33.4618 132.476 33.0526 132.645 32.6708C132.813 32.2891 133.061 31.9423 133.373 31.6502C133.685 31.3582 134.055 31.1266 134.462 30.9688C134.87 30.811 135.306 30.73 135.747 30.7305H197.043C197.484 30.73 197.92 30.811 198.328 30.9688C198.735 31.1266 199.105 31.3582 199.417 31.6502C199.729 31.9423 199.977 32.2891 200.145 32.6708C200.314 33.0526 200.401 33.4618 200.401 33.875C200.401 34.2883 200.314 34.6975 200.145 35.0792C199.977 35.461 199.729 35.8078 199.417 36.0998C199.105 36.3919 198.735 36.6234 198.328 36.7812C197.92 36.9391 197.484 37.02 197.043 37.0196Z" fill="#1C85E8"/>
<path d="M235.761 219.247H109.178C108.733 219.247 108.306 219.413 107.992 219.708C107.677 220.003 107.5 220.403 107.5 220.82V247.675C107.746 252.18 109.828 256.424 113.316 259.53C116.804 262.637 121.432 264.368 126.243 264.367H218.695C223.495 264.369 228.113 262.646 231.599 259.553C235.086 256.461 237.175 252.233 237.439 247.74V220.82C237.438 220.403 237.261 220.003 236.947 219.708C236.632 219.413 236.206 219.247 235.761 219.247Z" fill="#F0F0F0"/>
<path d="M226.472 229.406H118.728C118.283 229.406 117.856 229.572 117.541 229.867C117.227 230.162 117.05 230.562 117.05 230.979V262.113C119.856 263.595 123.023 264.372 126.243 264.367H218.695C222.018 264.371 225.281 263.545 228.15 261.975V230.979C228.149 230.562 227.972 230.162 227.658 229.867C227.343 229.572 226.917 229.406 226.472 229.406Z" fill="white"/>
<path d="M116.859 213.945C119.259 213.945 121.205 212.121 121.205 209.87C121.205 207.619 119.259 205.795 116.859 205.795C114.458 205.795 112.512 207.619 112.512 209.87C112.512 212.121 114.458 213.945 116.859 213.945Z" fill="#E4E4E4"/>
<path d="M197.043 213.066H135.747C135.306 213.066 134.87 212.985 134.462 212.827C134.055 212.67 133.685 212.438 133.373 212.146C133.061 211.854 132.813 211.507 132.645 211.125C132.476 210.744 132.389 210.335 132.389 209.921C132.389 209.508 132.476 209.099 132.645 208.717C132.813 208.335 133.061 207.989 133.373 207.696C133.685 207.404 134.055 207.173 134.462 207.015C134.87 206.857 135.306 206.776 135.747 206.777H197.043C197.484 206.776 197.92 206.857 198.328 207.015C198.735 207.173 199.105 207.404 199.417 207.696C199.729 207.989 199.977 208.335 200.145 208.717C200.314 209.099 200.401 209.508 200.401 209.921C200.401 210.335 200.314 210.744 200.145 211.125C199.977 211.507 199.729 211.854 199.417 212.146C199.105 212.438 198.735 212.67 198.328 212.827C197.92 212.985 197.484 213.066 197.043 213.066Z" fill="#E4E4E4"/>
<path d="M162.396 264.367H130.547C133.79 258.384 139.775 253.511 146.83 253.254C147.893 253.217 148.957 253.291 150.003 253.474C150.442 253.547 150.872 253.645 151.303 253.751C154.009 254.403 156.473 255.738 158.428 257.609C160.383 259.48 161.755 261.817 162.396 264.367Z" fill="#F2F2F2"/>
<path d="M213.336 264.367H170.089C170.754 262.506 171.318 260.616 171.78 258.702C173.723 250.833 175.701 241.998 182.869 237.524C186.859 235.03 191.715 234.622 196.318 235.723C196.457 235.755 196.601 235.792 196.74 235.833C202.169 237.245 206.83 240.527 209.789 245.022C213.453 250.784 214.27 257.639 213.336 264.367Z" fill="#F2F2F2"/>
<path d="M151.75 259.562C151.73 261.172 151.577 262.779 151.294 264.367H150.051C150.704 260.76 150.688 257.075 150.003 253.474C150.442 253.547 150.872 253.645 151.303 253.751C151.632 255.672 151.782 257.617 151.75 259.562Z" fill="white"/>
<path d="M196.9 236.208C196.905 237.088 196.9 237.972 196.874 238.856C196.682 246.208 195.514 253.508 193.397 260.589C193.023 261.852 192.619 263.112 192.184 264.367H190.906C191.689 262.134 192.371 259.872 192.962 257.606C194.791 250.652 195.702 243.513 195.675 236.35C195.675 236.188 195.743 236.033 195.862 235.916C195.982 235.799 196.145 235.73 196.318 235.723C196.468 235.707 196.619 235.746 196.74 235.833C196.796 235.879 196.84 235.937 196.868 236.002C196.895 236.067 196.907 236.138 196.9 236.208Z" fill="white"/>
<path d="M219.857 243.72C221.298 243.72 222.465 242.626 222.465 241.275C222.465 239.925 221.298 238.83 219.857 238.83C218.417 238.83 217.249 239.925 217.249 241.275C217.249 242.626 218.417 243.72 219.857 243.72Z" fill="#F2F2F2"/>
<path d="M157.342 65.2829C158.783 65.2829 159.95 64.1882 159.95 62.8378C159.95 61.4874 158.783 60.3927 157.342 60.3927C155.902 60.3927 154.734 61.4874 154.734 62.8378C154.734 64.1882 155.902 65.2829 157.342 65.2829Z" fill="#6C63FF"/>
<path d="M205.591 79.5459C207.032 79.5459 208.2 78.4512 208.2 77.1008C208.2 75.7505 207.032 74.6558 205.591 74.6558C204.151 74.6558 202.983 75.7505 202.983 77.1008C202.983 78.4512 204.151 79.5459 205.591 79.5459Z" fill="#E4E4E4"/>
<path d="M204.288 129.263C205.728 129.263 206.896 128.168 206.896 126.818C206.896 125.467 205.728 124.372 204.288 124.372C202.847 124.372 201.679 125.467 201.679 126.818C201.679 128.168 202.847 129.263 204.288 129.263Z" fill="#E4E4E4"/>
<path d="M192.745 152.565L190.98 147.268C190.677 146.035 190.292 144.821 189.828 143.632C187.837 137.993 183.464 126.619 178.313 114.736L172.254 109.055L170.576 108.028L168.99 107.062L168.307 107.653L161.8 113.285L161.752 113.656L157.501 147.528C157.501 147.528 157.488 147.622 157.466 147.805C157.418 148.201 157.318 149.008 157.188 150.161C156.94 152.329 156.54 156.115 156.145 160.887H195.514L192.745 152.565Z" fill="#E8F7C3"/>
<path opacity="0.2" d="M164.846 128.474L163.194 138.138L174.375 142.462L164.846 128.474Z" fill="black"/>
<path d="M184.864 85.2317C182.832 83.1514 180.178 81.6952 177.248 81.0541C174.318 80.413 171.249 80.6169 168.445 81.6391C165.641 82.6612 163.232 84.4539 161.533 86.7821C159.835 89.1103 158.926 91.8653 158.927 94.686V105.131C158.927 105.63 159.139 106.109 159.515 106.462C159.892 106.815 160.403 107.013 160.935 107.013H186.786C187.317 107.012 187.827 106.813 188.203 106.46C188.578 106.107 188.789 105.629 188.789 105.131V94.686C188.791 91.1848 187.39 87.8106 184.864 85.2317Z" fill="#2F2E41"/>
<path d="M176.713 106.382C182.759 106.382 187.66 101.788 187.66 96.1197C187.66 90.452 182.759 85.8573 176.713 85.8573C170.668 85.8573 165.767 90.452 165.767 96.1197C165.767 101.788 170.668 106.382 176.713 106.382Z" fill="#DD9576"/>
<path d="M184.864 85.2317C183.48 84.7133 182.003 84.4477 180.513 84.4492H178.283C176.405 84.4494 174.555 84.87 172.886 85.6759C171.216 86.4818 169.776 87.6498 168.685 89.0827C168.612 89.1723 168.546 89.266 168.481 89.3557C167.169 91.1764 166.469 93.3241 166.473 95.5214V95.7292H171.181L172.789 91.5115L173.11 95.7292H175.545L176.353 93.602L176.514 95.7292C181.604 97.4929 186.886 97.3799 192.323 95.7292V95.5214C192.321 93.3035 191.609 91.1373 190.279 89.3029C188.949 87.4685 187.063 86.0503 184.864 85.2317Z" fill="#2F2E41"/>
<path d="M178.196 106.288C178.186 106.264 178.175 106.241 178.162 106.219C176.688 103.586 174.841 99.5559 174.736 95.7293C174.675 93.4432 175.24 91.2263 176.883 89.4292L177.197 89.0828H164.456V107.017L168.307 107.653L170.576 108.028L176.032 108.933C176.149 108.952 176.269 108.962 176.388 108.961C176.704 108.961 177.015 108.891 177.296 108.756C177.577 108.622 177.82 108.427 178.005 108.187C178.273 107.849 178.408 107.434 178.387 107.013C178.379 106.762 178.314 106.514 178.196 106.288Z" fill="#2F2E41"/>
<path opacity="0.2" d="M157.767 147.057C160.68 150.22 164.632 152.385 169.001 153.213C173.37 154.041 177.908 153.484 181.903 151.631L184.286 150.525L157.767 147.057Z" fill="black"/>
<path d="M281.217 177.958C281.253 177.254 281.453 176.565 281.803 175.941C282.153 175.317 282.645 174.772 283.244 174.345C283.843 173.918 284.535 173.62 285.27 173.471C286.005 173.322 286.767 173.326 287.5 173.482L294.306 164.491L301.142 167.036L291.342 179.606C290.98 180.744 290.185 181.718 289.108 182.343C288.031 182.968 286.747 183.201 285.499 182.998C284.251 182.795 283.126 182.17 282.337 181.241C281.548 180.312 281.149 179.144 281.217 177.958H281.217Z" fill="#A0616A"/>
<path d="M288.683 170.226L300.782 151.148L295.853 138.824L302.567 122.038L302.814 122.138C302.977 122.203 306.791 123.799 307.357 129.514L315.072 152.248L294.481 177.292L288.683 170.226Z" fill="#C0CDFF"/>
<path d="M222.969 100.089C223.715 100.176 224.432 100.417 225.069 100.792C225.706 101.168 226.247 101.67 226.654 102.263C227.062 102.855 227.326 103.525 227.427 104.224C227.529 104.923 227.466 105.634 227.243 106.307L236.278 113.363L233.044 119.557L220.433 109.424C219.251 108.998 218.277 108.18 217.695 107.125C217.114 106.07 216.965 104.851 217.278 103.701C217.59 102.55 218.342 101.547 219.391 100.881C220.44 100.215 221.713 99.9333 222.969 100.089L222.969 100.089Z" fill="#A0616A"/>
<path d="M230.615 107.664L249.968 120.449L263.456 116.794L280.787 124.367L280.662 124.591C280.58 124.738 278.588 128.18 272.466 128.267L247.694 133.721L222.652 112.538L230.615 107.664Z" fill="#BED8FF"/>
<path d="M266.028 263.131L259.3 263.13L256.099 238.801L266.029 238.801L266.028 263.131Z" fill="#A0616A"/>
<path d="M252.461 261.328H267.469V268.988H246.324V267.082C246.324 265.556 246.97 264.092 248.121 263.013C249.272 261.934 250.833 261.328 252.461 261.328Z" fill="#2F2E41"/>
<path d="M292.919 263.131L286.191 263.13L282.99 238.801L292.92 238.801L292.919 263.131Z" fill="#A0616A"/>
<path d="M279.352 261.328H294.361V268.988H273.215V267.082C273.215 265.556 273.861 264.092 275.012 263.013C276.163 261.934 277.724 261.328 279.352 261.328Z" fill="#2F2E41"/>
<path d="M295.312 174.324L294.763 210.34L294.214 257.674L282.141 256.645L276.104 191.303L268.421 256.645H255.956L254.701 190.788L259.091 176.382L295.312 174.324Z" fill="#FFB99B"/>
<path d="M257.888 176.602L256.048 176.527L264.592 132.404L261.094 119.067C260.912 118.373 261.008 117.641 261.364 117.009C261.719 116.377 262.31 115.89 263.023 115.639L269.317 113.426L271.541 107.693L289.085 109.465L289.516 113.946C291.417 114.517 307.072 119.405 305.992 124.975C304.926 130.472 298.631 147.767 298.312 148.644L297.209 173.447L297.073 173.511C296.91 173.587 284.818 179.162 271.681 179.161C267.055 179.16 262.296 178.469 257.888 176.602Z" fill="#BED8FF"/>
<path d="M290.709 98.6941C294.055 92.9553 291.805 85.7599 285.684 82.6228C279.563 79.4857 271.888 81.5948 268.541 87.3336C265.195 93.0724 267.445 100.268 273.566 103.405C279.687 106.542 287.362 104.433 290.709 98.6941Z" fill="#A0616A"/>
<path d="M289.857 104.478C287.449 106.882 282.979 105.591 282.665 102.307C282.64 102.052 282.642 101.795 282.67 101.541C282.832 100.086 283.729 98.765 283.514 97.229C283.466 96.8467 283.314 96.4824 283.073 96.1706C281.154 93.7623 276.651 97.2477 274.841 95.0676C273.731 93.7308 275.036 91.6261 274.184 90.132C273.06 88.16 269.729 89.1328 267.641 88.0529C265.317 86.8513 265.456 83.509 266.986 81.476C268.851 78.9967 272.122 77.6738 275.352 77.4831C278.581 77.2924 281.789 78.111 284.804 79.2127C288.231 80.4644 291.628 82.1943 293.736 85.0186C296.3 88.4532 296.547 93.0708 295.265 97.0869C294.485 99.53 291.822 102.514 289.857 104.478Z" fill="#2F2E41"/>
<path d="M365.565 269.775H-3.912C-4.02728 269.775 -4.13785 269.732 -4.21937 269.655C-4.30088 269.579 -4.34668 269.475 -4.34668 269.367C-4.34668 269.259 -4.30088 269.155 -4.21937 269.079C-4.13785 269.002 -4.02728 268.959 -3.912 268.959H365.565C365.681 268.959 365.791 269.002 365.873 269.079C365.954 269.155 366 269.259 366 269.367C366 269.475 365.954 269.579 365.873 269.655C365.791 269.732 365.681 269.775 365.565 269.775Z" fill="#3F3D56"/>
<path d="M198.217 151.612H191.447C191.23 151.613 191.02 151.537 190.859 151.401C190.699 151.264 190.598 151.075 190.578 150.873L189.223 137.852H200.441L199.086 150.873C199.066 151.075 198.965 151.264 198.804 151.4C198.644 151.537 198.434 151.613 198.217 151.612Z" fill="#6C63FF"/>
<path d="M200.423 139.49H189.241C189.009 139.49 188.787 139.403 188.623 139.25C188.459 139.096 188.367 138.888 188.367 138.671V136.705C188.367 136.488 188.459 136.28 188.623 136.126C188.787 135.973 189.009 135.886 189.241 135.886H200.423C200.655 135.886 200.877 135.973 201.041 136.126C201.205 136.28 201.297 136.488 201.297 136.705V138.671C201.297 138.888 201.205 139.096 201.041 139.25C200.877 139.403 200.655 139.49 200.423 139.49Z" fill="#3F3D56"/>
<path d="M195.858 144.695C195.37 144.181 194.767 143.773 194.093 143.501C193.418 143.228 192.688 143.098 191.954 143.119C191.22 143.139 190.5 143.311 189.844 143.621C189.188 143.931 188.613 144.372 188.159 144.913L177.106 142.004L173.583 147.87L189.252 151.772C190.272 152.427 191.513 152.709 192.74 152.564C193.967 152.419 195.094 151.857 195.908 150.984C196.723 150.112 197.167 148.99 197.158 147.831C197.149 146.671 196.686 145.556 195.858 144.695Z" fill="#FFB8B8"/>
<path d="M177.887 141.514L172.641 138.38L171.146 137.72L164.386 134.733C164.586 134.089 165.16 132.165 165.704 129.728C166.973 124.027 168.055 115.514 163.687 114.023C163.067 113.803 162.414 113.679 161.752 113.656C160.867 113.626 159.988 113.814 159.205 114.202C155.932 115.803 154.632 120.311 154.584 120.478L150.537 130.89C150.164 131.371 146.317 136.367 146.938 140.067C147.017 140.598 147.211 141.109 147.511 141.566C147.81 142.024 148.207 142.418 148.677 142.724C151.478 144.606 154.415 146.304 157.466 147.806C158.175 148.148 158.867 148.464 159.544 148.755C163.334 150.377 166.677 151.204 169.485 151.204C170.403 151.211 171.319 151.111 172.211 150.907L183.117 150.674L183.186 150.381L183.212 150.267L184.66 143.991L185.068 142.214L177.887 141.514Z" fill="#F0F7BF"/>
</g>
<defs>
<clipPath id="clip0_259_1342">
<rect width="366" height="282" fill="white"/>
</clipPath>
</defs>
</svg>
