<svg width="344" height="298" viewBox="0 0 344 298" fill="none" xmlns="http://www.w3.org/2000/svg">
<g clip-path="url(#clip0_254_350)">
<path d="M344 144.777C344 211.076 285.513 266.963 205.705 284.121C192.744 286.9 179.576 288.616 166.335 289.251C165.691 289.283 165.046 289.315 164.398 289.338C160.951 289.481 157.479 289.552 153.981 289.554C147.899 289.554 141.888 289.338 135.95 288.907C132.656 288.673 129.389 288.375 126.15 288.012C94.6475 284.488 65.657 275.076 41.1708 261.287C38.1112 259.566 35.1236 257.776 32.2081 255.918C26.8695 252.529 21.7153 248.858 16.7674 244.923C-15.9406 218.923 11.3291 163.426 28.3755 128.487C74.3849 34.1866 49.0384 0 153.981 0C258.924 0 344 64.817 344 144.777Z" fill="#F2F2F2"/>
<path d="M268.792 59.6855C236.175 59.1022 236.18 10.7574 268.793 10.1789C301.409 10.7622 301.404 59.1069 268.792 59.6855Z" fill="white"/>
<path d="M207.109 131.73C174.492 131.147 174.497 82.8018 207.11 82.2232C239.726 82.8065 239.721 131.151 207.109 131.73Z" fill="white"/>
<path d="M271.452 204.887C238.835 204.304 238.84 155.959 271.453 155.38C304.069 155.964 304.064 204.308 271.452 204.887Z" fill="white"/>
<path d="M268.792 59.6855C236.175 59.1022 236.18 10.7574 268.793 10.1789C301.409 10.7622 301.404 59.1069 268.792 59.6855ZM268.792 11.679C238.152 12.2271 238.157 57.6417 268.793 58.1853C299.433 57.6372 299.428 12.2227 268.792 11.679Z" fill="#E6E6E6"/>
<path d="M126.035 287.668C125.962 287.435 125.911 287.195 125.883 286.952L116.41 233.08C116.396 232.941 116.374 232.803 116.346 232.667C116.145 231.684 115.646 230.788 114.915 230.1C114.185 229.412 113.259 228.965 112.265 228.821L58.2449 229.055C57.2228 228.902 56.1785 229.079 55.2647 229.561C54.3508 230.042 53.6152 230.802 53.1655 231.73C52.2868 233.557 51.4265 235.409 50.5844 237.287C47.175 244.854 44.0372 252.854 41.1709 261.287C65.6572 275.076 94.6476 284.488 126.15 288.012L126.035 287.668Z" fill="#2F2E41"/>
<path d="M178.768 143.505C178.635 144.088 178.548 144.68 178.509 145.276L132.014 172.028L120.713 165.539L108.665 181.27L127.552 194.696C129.078 195.781 130.916 196.342 132.789 196.297C134.662 196.251 136.47 195.601 137.941 194.443L185.885 156.72C188.049 157.519 190.405 157.641 192.64 157.072C194.876 156.503 196.884 155.268 198.399 153.532C199.914 151.796 200.863 149.642 201.12 147.355C201.377 145.068 200.93 142.758 199.838 140.731C198.746 138.703 197.061 137.056 195.008 136.007C192.954 134.958 190.629 134.558 188.342 134.859C186.054 135.16 183.913 136.149 182.203 137.693C180.493 139.238 179.295 141.265 178.768 143.505V143.505Z" fill="#FFB8B8"/>
<path d="M131.377 169.355C131.236 168.67 130.949 168.024 130.535 167.461C130.122 166.897 129.591 166.429 128.98 166.087L107.645 154.189C104.81 152.007 101.224 151.036 97.6716 151.487C94.1196 151.939 90.892 153.777 88.6966 156.598C86.5012 159.42 85.517 162.994 85.9598 166.538C86.4027 170.082 88.2364 173.306 91.059 175.504L108.069 193.12C108.554 193.623 109.143 194.016 109.794 194.272C110.445 194.527 111.144 194.64 111.843 194.602C112.542 194.564 113.225 194.377 113.845 194.052C114.464 193.727 115.007 193.273 115.435 192.721L118.747 188.435L119.879 186.976L130.461 173.296C130.848 172.797 131.131 172.226 131.294 171.617C131.501 170.88 131.529 170.105 131.377 169.355Z" fill="#1C85E8"/>
<path d="M100.487 133.073C110.868 122.719 110.868 105.931 100.487 95.5772C90.1053 85.223 73.2736 85.223 62.8921 95.5772C52.5106 105.931 52.5106 122.719 62.8921 133.073C73.2736 143.427 90.1053 143.427 100.487 133.073Z" fill="#FFB8B8"/>
<path d="M115.301 214.678C116.368 213.086 123.155 202.339 120.587 189.743C120.399 188.809 120.162 187.885 119.879 186.976C118.669 183.184 116.737 179.661 114.188 176.6C114.22 175.756 114.211 174.926 114.16 174.1V174.095C113.785 168.356 111.344 162.945 107.286 158.859C103.228 154.773 97.826 152.286 92.0756 151.858L62.3443 149.604C58.5174 149.293 54.6721 149.914 51.1391 151.414C47.6062 152.913 44.4916 155.247 42.0633 158.213C41.5041 158.889 40.9804 159.594 40.4943 160.324C40.4937 160.324 40.4931 160.324 40.4926 160.324C40.492 160.324 40.4915 160.325 40.4911 160.325C40.4907 160.326 40.4904 160.326 40.4901 160.327C40.4899 160.327 40.4898 160.328 40.4898 160.329C38.6152 163.15 37.3713 166.341 36.8425 169.685C36.3138 173.029 36.5126 176.447 37.4255 179.707L37.6787 180.818L40.8486 194.68L46.1489 217.877L50.5843 237.287L51.0536 239.334C51.301 240.406 51.9049 241.363 52.7671 242.048C53.6293 242.734 54.6989 243.109 55.8016 243.111C56.0668 243.112 56.3316 243.09 56.5931 243.046L114.123 233.639C114.935 233.51 115.7 233.175 116.346 232.667C116.733 232.359 117.072 231.995 117.353 231.588C117.728 231.047 117.988 230.436 118.116 229.791C118.244 229.146 118.238 228.482 118.098 227.839L115.301 214.678Z" fill="#1C85E8"/>
<path d="M2.08027 292.973C1.10448 291.585 0.445734 290 0.150433 288.331C-0.144869 286.661 -0.0695416 284.947 0.371107 283.31C0.811756 281.672 1.60701 280.151 2.70085 278.854C3.79469 277.556 5.16051 276.513 6.70211 275.799L39.4576 175.355L58.4402 184.339L22.6004 282.14C23.6318 284.802 23.6482 287.749 22.6464 290.423C21.6446 293.097 19.6943 295.311 17.1649 296.647C14.6356 297.982 11.7029 298.346 8.92272 297.669C6.14253 296.991 3.70793 295.321 2.08027 292.973Z" fill="#FFB8B8"/>
<path d="M58.2172 151.628C54.7081 150.575 50.9294 150.887 47.6413 152.5C44.3531 154.113 41.7996 156.909 40.4944 160.324C40.4938 160.324 40.4932 160.324 40.4926 160.324C40.4921 160.324 40.4916 160.325 40.4912 160.325C40.4907 160.326 40.4904 160.326 40.4902 160.327C40.49 160.327 40.4899 160.328 40.4899 160.328C40.3702 160.636 40.2599 160.957 40.1632 161.278L37.3887 167.147L29.006 184.883C28.6855 185.559 28.515 186.296 28.5062 187.043C28.4974 187.791 28.6504 188.531 28.9549 189.214C29.2593 189.897 29.7079 190.507 30.2702 191.001C30.8324 191.496 31.495 191.863 32.2127 192.078L33.8462 192.569L40.8487 194.68L53.2759 198.425L57.4168 199.673C58.1342 199.889 58.8899 199.949 59.6325 199.847C60.375 199.746 61.0869 199.486 61.7196 199.085C62.3523 198.684 62.8909 198.152 63.2989 197.525C63.7068 196.898 63.9744 196.191 64.0834 195.451L67.9115 169.552C68.9991 165.893 68.5898 161.953 66.7732 158.595C64.9565 155.236 61.8803 152.731 58.2172 151.628Z" fill="#1C85E8"/>
<path d="M106.099 104.684C96.6267 112.948 82.0849 114.867 70.7834 109.344C75.8601 115.351 85.5014 145.002 85.5014 145.002C85.5014 145.002 58.2781 142.149 54.4318 141.329C31.7144 136.484 39.972 77.8048 64.1786 78.101C68.2785 78.1512 71.8627 78.6457 74.5915 81.6977C76.4027 76.6341 82.1621 73.6513 87.5387 74.0374C92.9152 74.4235 97.7774 77.6444 101.236 81.768C103.996 85.1065 105.988 89.0081 107.072 93.1979C108.156 97.3876 108.306 101.764 107.51 106.017L106.099 104.684Z" fill="#2F2E41"/>
<path d="M207.109 131.73C174.492 131.147 174.497 82.8018 207.11 82.2232C239.726 82.8065 239.72 131.151 207.109 131.73ZM207.109 83.7234C176.468 84.2715 176.473 129.686 207.11 130.23C237.749 129.682 237.744 84.267 207.109 83.7234Z" fill="#E6E6E6"/>
<path d="M271.452 204.887C238.835 204.304 238.84 155.959 271.453 155.38C304.069 155.964 304.064 204.308 271.452 204.887ZM271.452 156.88C240.812 157.428 240.817 202.843 271.453 203.387C302.092 202.839 302.087 157.424 271.452 156.88Z" fill="#E6E6E6"/>
<path d="M274.094 22.2431C267.975 22.4184 256.076 20.2371 256.07 29.6457C256.246 35.748 254.059 47.6152 263.492 47.6212C269.611 47.4462 281.509 49.6275 281.515 40.2189C281.34 34.1166 283.527 22.2495 274.094 22.2431Z" fill="url(#paint0_linear_254_350)" fill-opacity="0.85"/>
<path d="M275.684 29.6453C273.625 29.6711 273.632 26.445 275.691 26.4798C277.75 26.4544 277.743 29.6798 275.684 29.6453Z" fill="white"/>
<path d="M268.793 30.7023C274.295 30.6217 274.295 39.2434 268.792 39.1622C263.29 39.2419 263.29 30.6218 268.793 30.7023ZM268.793 28.5877C260.54 28.4674 260.538 41.3981 268.793 41.2769C277.047 41.3971 277.046 28.4665 268.793 28.5877V28.5877Z" fill="white"/>
<path d="M226.648 184.307C226.499 184.311 226.353 184.272 226.227 184.193C226.101 184.114 226.001 184 225.941 183.864C225.88 183.729 225.861 183.579 225.886 183.433C225.911 183.287 225.979 183.151 226.081 183.044L228.585 180.405C228.663 180.322 228.706 180.212 228.703 180.098C228.699 179.984 228.651 179.876 228.568 179.798L225.908 177.287C225.835 177.217 225.775 177.134 225.734 177.042C225.693 176.95 225.67 176.85 225.667 176.749C225.664 176.648 225.682 176.548 225.718 176.453C225.754 176.359 225.808 176.273 225.878 176.199C226.018 176.052 226.211 175.966 226.415 175.96C226.618 175.954 226.816 176.028 226.965 176.166L230.543 179.501C230.614 179.567 230.671 179.646 230.71 179.734C230.75 179.822 230.772 179.917 230.775 180.013C230.777 180.109 230.761 180.205 230.726 180.295C230.691 180.385 230.639 180.467 230.572 180.536L227.169 184.077C227.033 184.22 226.845 184.302 226.648 184.307Z" fill="#CCCCCC"/>
<path d="M223.913 180.467C223.832 180.542 223.725 180.585 223.614 180.588L215.271 180.817C215.21 180.819 215.15 180.809 215.094 180.787C215.037 180.766 214.985 180.733 214.941 180.692C214.897 180.651 214.862 180.601 214.837 180.546C214.813 180.491 214.799 180.431 214.798 180.371C214.796 180.311 214.806 180.251 214.828 180.195C214.849 180.138 214.882 180.087 214.923 180.043C214.965 179.999 215.015 179.964 215.07 179.939C215.125 179.915 215.185 179.901 215.245 179.9L223.589 179.67C223.683 179.668 223.775 179.694 223.853 179.745C223.932 179.796 223.993 179.87 224.028 179.956C224.063 180.043 224.071 180.138 224.051 180.23C224.03 180.321 223.982 180.403 223.913 180.467Z" fill="#CCCCCC"/>
<path d="M162.235 111.15C162.086 111.154 161.94 111.115 161.814 111.036C161.688 110.957 161.588 110.843 161.528 110.708C161.467 110.572 161.448 110.422 161.473 110.276C161.498 110.13 161.566 109.994 161.668 109.887L164.172 107.248C164.25 107.165 164.293 107.055 164.29 106.941C164.286 106.827 164.238 106.719 164.155 106.641L161.495 104.13C161.421 104.06 161.362 103.977 161.321 103.885C161.28 103.793 161.257 103.693 161.254 103.592C161.251 103.491 161.269 103.391 161.305 103.296C161.341 103.202 161.395 103.116 161.465 103.042C161.605 102.895 161.798 102.809 162.002 102.803C162.205 102.797 162.403 102.871 162.552 103.009L166.13 106.344C166.201 106.41 166.258 106.489 166.297 106.577C166.337 106.665 166.359 106.76 166.361 106.856C166.364 106.952 166.348 107.048 166.313 107.138C166.278 107.228 166.226 107.31 166.159 107.379L162.756 110.92C162.62 111.063 162.432 111.145 162.235 111.15Z" fill="#CCCCCC"/>
<path d="M159.5 107.31C159.418 107.385 159.312 107.428 159.201 107.431L150.858 107.66C150.797 107.662 150.737 107.652 150.68 107.63C150.624 107.609 150.572 107.576 150.528 107.535C150.484 107.494 150.449 107.444 150.424 107.389C150.4 107.334 150.386 107.274 150.384 107.214C150.383 107.154 150.393 107.094 150.415 107.038C150.436 106.981 150.469 106.93 150.51 106.886C150.552 106.842 150.602 106.807 150.657 106.782C150.712 106.758 150.772 106.744 150.832 106.743L159.176 106.513C159.27 106.511 159.362 106.537 159.44 106.588C159.519 106.639 159.58 106.713 159.615 106.799C159.65 106.886 159.658 106.981 159.638 107.073C159.617 107.164 159.569 107.246 159.5 107.31Z" fill="#CCCCCC"/>
<path d="M223.887 39.1059C223.738 39.1102 223.592 39.0704 223.466 38.9916C223.34 38.9128 223.241 38.7985 223.18 38.6632C223.119 38.5279 223.1 38.3777 223.125 38.2316C223.15 38.0855 223.218 37.9501 223.321 37.8425L225.824 35.2038C225.903 35.121 225.945 35.0105 225.942 34.8966C225.939 34.7827 225.89 34.6747 225.807 34.5962L223.147 32.0855C223.074 32.016 223.015 31.9328 222.973 31.8406C222.932 31.7484 222.909 31.6489 222.907 31.5479C222.904 31.447 222.921 31.3464 222.957 31.2521C222.993 31.1577 223.048 31.0714 223.117 30.998C223.258 30.8509 223.45 30.7649 223.654 30.7586C223.857 30.7524 224.055 30.8265 224.204 30.9647L227.783 34.3C227.853 34.3658 227.91 34.4449 227.95 34.5326C227.989 34.6204 228.011 34.7152 228.014 34.8115C228.016 34.9077 228 35.0035 227.965 35.0934C227.93 35.1832 227.878 35.2653 227.811 35.3348L224.409 38.876C224.272 39.0183 224.084 39.1009 223.887 39.1059Z" fill="#CCCCCC"/>
<path d="M221.153 35.2654C221.071 35.3405 220.965 35.3835 220.854 35.3863L212.51 35.6158C212.45 35.6175 212.39 35.6073 212.333 35.5858C212.277 35.5644 212.225 35.532 212.181 35.4906C212.137 35.4492 212.102 35.3995 212.077 35.3445C212.053 35.2894 212.039 35.2301 212.037 35.1698C212.036 35.1095 212.046 35.0495 212.067 34.9932C212.089 34.9368 212.122 34.8853 212.163 34.8416C212.205 34.7978 212.255 34.7626 212.31 34.7381C212.365 34.7135 212.425 34.7001 212.485 34.6985L220.829 34.469C220.922 34.4665 221.015 34.4925 221.093 34.5436C221.172 34.5947 221.233 34.6685 221.268 34.7551C221.303 34.8417 221.311 34.937 221.29 35.0282C221.27 35.1194 221.222 35.2021 221.153 35.2654Z" fill="#CCCCCC"/>
<path d="M215.344 272.979C213.186 277.449 209.671 281.065 205.705 284.121C192.744 286.9 179.577 288.616 166.335 289.251C165.691 289.283 165.046 289.315 164.398 289.338C160.952 289.481 157.479 289.552 153.981 289.554C147.899 289.554 141.889 289.338 135.95 288.907C135.724 287.545 135.693 286.157 135.858 284.786C136.516 279.422 140.597 274.494 145.893 273.355C151.189 272.217 157.225 275.37 158.831 280.528C159.719 270.579 160.736 260.218 166.04 251.747C170.839 244.079 179.153 238.591 188.166 237.609C193.463 237.059 198.808 238.035 203.566 240.422C204.003 240.642 204.435 240.871 204.863 241.11C207.719 242.724 210.238 244.869 212.284 247.429C217.907 254.523 219.282 264.839 215.344 272.979Z" fill="white"/>
<path d="M204.863 241.11C204.874 241.23 204.854 241.352 204.804 241.462C204.754 241.572 204.676 241.667 204.578 241.739C188.609 254.705 175.575 270.898 166.335 289.251C165.691 289.283 165.047 289.315 164.398 289.338C165.217 287.682 166.066 286.042 166.947 284.419C171.519 276.016 176.899 268.076 183.009 260.709C189.118 253.337 195.938 246.582 203.372 240.541C203.431 240.493 203.496 240.453 203.566 240.422C203.695 240.366 203.836 240.341 203.977 240.347C204.117 240.353 204.255 240.39 204.38 240.456C204.504 240.522 204.612 240.615 204.696 240.728C204.779 240.841 204.837 240.972 204.863 241.11Z" fill="#F2F2F2"/>
<path d="M284.927 173.888C284.927 173.888 282.82 176.242 282.415 176.394C281.302 188.476 273.738 191.22 267.664 191.22C263.298 191.22 259.7 189.802 259.82 189.412C266.298 189.564 266.85 186.911 266.85 186.911C263.086 186.356 262.332 183.906 262.332 183.906C262.669 184.083 263.061 184.13 263.431 184.038C263.801 183.946 264.124 183.72 264.338 183.406C260.275 182.35 260.827 178.395 260.827 178.395C261.551 178.917 262.397 179.245 263.284 179.349C262.833 178.798 259.033 174.255 261.32 171.901C261.453 172.259 265.41 177.633 272.021 177.243C271.865 176.476 271.88 175.683 272.067 174.923C272.253 174.162 272.607 173.453 273.101 172.845C273.596 172.236 274.219 171.745 274.926 171.406C275.634 171.067 276.408 170.888 277.193 170.883C280.708 170.883 281.463 172.888 281.463 172.888L283.975 171.383C283.924 171.383 283.671 173.888 282.415 174.389L284.927 173.888Z" fill="#0AC4FF" fill-opacity="0.72"/>
<path fill-rule="evenodd" clip-rule="evenodd" d="M220.784 107.057C220.785 110.332 219.614 113.5 217.482 115.99C215.349 118.481 212.396 120.131 209.153 120.644V111.035H212.364L212.976 107.057H209.153C209.024 103.744 208.895 101.885 213.137 102.33V98.9485C206.784 97.5535 204.133 100.766 204.847 107.057H201.345V111.035H204.847V120.64C188.366 118.111 190.303 93.2446 206.995 93.3088C208.806 93.3085 210.599 93.6638 212.271 94.3545C213.944 95.0453 215.464 96.0579 216.745 97.3345C218.025 98.6111 219.041 100.127 219.734 101.795C220.427 103.463 220.784 105.251 220.784 107.057Z" fill="#1D41FF" fill-opacity="0.87"/>
</g>
<defs>
<linearGradient id="paint0_linear_254_350" x1="268.793" y1="22.141" x2="268.793" y2="47.7235" gradientUnits="userSpaceOnUse">
<stop offset="0.578125" stop-color="#DC3BF7"/>
<stop offset="1" stop-color="#8025AB" stop-opacity="0"/>
</linearGradient>
<clipPath id="clip0_254_350">
<rect width="344" height="298" fill="white"/>
</clipPath>
</defs>
</svg>
