<svg width="335" height="336" viewBox="0 0 335 336" fill="none" xmlns="http://www.w3.org/2000/svg">
<g clip-path="url(#clip0_254_382)">
<path d="M214.223 336H68.5122C52.7152 336 39.8633 323.137 39.8633 307.327V28.6727C39.8633 12.8626 52.7152 0 68.5122 0H214.223C230.02 0 242.871 12.8626 242.871 28.6727V307.327C242.871 323.137 230.02 336 214.223 336Z" fill="#F2F2F2"/>
<path d="M242.872 102.498C242.203 102.498 241.66 103.042 241.66 103.711V142.527C241.66 143.196 242.203 143.74 242.872 143.74C243.54 143.74 244.084 143.196 244.084 142.527V103.711C244.084 103.042 243.54 102.498 242.872 102.498Z" fill="#F2F2F2"/>
<path d="M240.145 28.6729V307.322C240.145 321.084 229.443 332.34 215.911 333.214H215.905C215.705 333.226 215.505 333.238 215.299 333.244C214.941 333.262 214.584 333.268 214.22 333.268C214.22 333.268 212.887 333.171 210.451 332.989C207.991 332.807 204.409 332.534 199.943 332.176C198.604 332.073 197.192 331.958 195.701 331.837C192.732 331.594 189.472 331.327 185.975 331.024C184.581 330.909 183.139 330.782 181.666 330.654C174.14 330.005 165.71 329.247 156.821 328.386C155.318 328.246 153.803 328.101 152.276 327.949C151.876 327.907 151.47 327.87 151.064 327.828C144.725 327.203 138.21 326.53 131.672 325.814C131.266 325.772 130.86 325.729 130.46 325.687C119.194 324.444 107.886 323.091 97.3058 321.636C89.1673 320.52 81.4591 319.343 74.5386 318.124C72.2843 317.724 70.1148 317.323 68.0423 316.917C67.6363 316.838 67.2303 316.759 66.8304 316.674C52.1835 313.739 42.5906 310.573 42.5906 307.322V28.6729C42.5906 14.3414 54.1954 2.72697 68.515 2.72697H83.9921C86.4646 2.72697 88.4522 4.65563 88.6644 7.12408C88.6825 7.28784 88.7007 7.45157 88.731 7.61534C89.1794 10.0959 91.4519 11.8244 93.9728 11.8244H188.763C191.283 11.8244 193.556 10.0959 194.004 7.61534C194.035 7.45157 194.053 7.28784 194.071 7.12408C194.283 4.65563 196.271 2.72697 198.743 2.72697H214.22C228.54 2.72697 240.145 14.3414 240.145 28.6729Z" fill="white"/>
<path d="M39.2574 73.3863C38.589 73.3863 38.0454 73.9303 38.0454 74.5993V84.3033C38.0454 84.9723 38.589 85.5163 39.2574 85.5163C39.9258 85.5163 40.4694 84.9723 40.4694 84.3033V74.5993C40.4694 73.9303 39.9258 73.3863 39.2574 73.3863Z" fill="#F2F2F2"/>
<path d="M39.2574 102.498C38.589 102.498 38.0454 103.042 38.0454 103.711V122.513C38.0454 123.182 38.589 123.726 39.2574 123.726C39.9258 123.726 40.4694 123.182 40.4694 122.513V103.711C40.4694 103.042 39.9258 102.498 39.2574 102.498Z" fill="#F2F2F2"/>
<path d="M39.2574 129.184C38.589 129.184 38.0454 129.728 38.0454 130.397V149.199C38.0454 149.867 38.589 150.412 39.2574 150.412C39.9258 150.412 40.4694 149.867 40.4694 149.199V130.397C40.4694 129.728 39.9258 129.184 39.2574 129.184Z" fill="#F2F2F2"/>
<path d="M82.5861 6.97482H61.3763C60.7069 6.97482 60.1643 7.5179 60.1643 8.18781V8.79431C60.1643 9.46423 60.7069 10.0073 61.3763 10.0073H82.5861C83.2555 10.0073 83.7981 9.46423 83.7981 8.79431V8.18781C83.7981 7.5179 83.2555 6.97482 82.5861 6.97482Z" fill="#F2F2F2"/>
<path d="M202.573 10.0073C203.912 10.0073 204.997 8.92115 204.997 7.58132C204.997 6.24148 203.912 5.15533 202.573 5.15533C201.234 5.15533 200.149 6.24148 200.149 7.58132C200.149 8.92115 201.234 10.0073 202.573 10.0073Z" fill="#F2F2F2"/>
<path d="M209.239 10.0073C210.578 10.0073 211.663 8.92115 211.663 7.58132C211.663 6.24148 210.578 5.15533 209.239 5.15533C207.9 5.15533 206.815 6.24148 206.815 7.58132C206.815 8.92115 207.9 10.0073 209.239 10.0073Z" fill="#F2F2F2"/>
<path d="M215.905 10.0073C217.244 10.0073 218.329 8.92115 218.329 7.58132C218.329 6.24148 217.244 5.15533 215.905 5.15533C214.566 5.15533 213.481 6.24148 213.481 7.58132C213.481 8.92115 214.566 10.0073 215.905 10.0073Z" fill="#F2F2F2"/>
<path d="M71.926 95.4782C78.4218 95.4782 83.6877 90.3189 83.6877 83.9547C83.6877 77.5905 78.4218 72.4313 71.926 72.4313C65.4302 72.4313 60.1643 77.5905 60.1643 83.9547C60.1643 90.3189 65.4302 95.4782 71.926 95.4782Z" fill="#FFB99B"/>
<path d="M166.215 80.0125H102.906C100.734 80.0125 98.967 78.2439 98.967 76.0702C98.967 73.8966 100.734 72.128 102.906 72.128H166.215C168.387 72.128 170.154 73.8966 170.154 76.0702C170.154 78.2439 168.387 80.0125 166.215 80.0125Z" fill="#E6E6E6"/>
<path d="M64.4399 213.413C63.4294 213.413 62.6074 214.236 62.6074 215.247C62.6074 216.258 63.4294 217.081 64.4399 217.081H130.749C131.76 217.081 132.582 216.258 132.582 215.247C132.582 214.236 131.76 213.413 130.749 213.413H64.4399Z" fill="#F2F2F2"/>
<path d="M215.621 93.3554H102.906C100.734 93.3554 98.967 91.5869 98.967 89.4132C98.967 87.2395 100.734 85.471 102.906 85.471H215.621C217.793 85.471 219.56 87.2395 219.56 89.4132C219.56 91.5869 217.793 93.3554 215.621 93.3554Z" fill="#E6E6E6"/>
<path d="M86.9796 37.5576H62.8911C61.2204 37.5576 59.8611 36.1972 59.8611 34.5251C59.8611 32.8531 61.2204 31.4927 62.8911 31.4927H86.9796C88.6503 31.4927 90.0093 32.8531 90.0093 34.5251C90.0093 36.1972 88.6503 37.5576 86.9796 37.5576Z" fill="#E6E6E6"/>
<path d="M215.318 31.7959H191.23C189.724 31.7959 188.503 33.0178 188.503 34.5251C188.503 36.0325 189.724 37.2544 191.23 37.2544H215.318C216.824 37.2544 218.045 36.0325 218.045 34.5251C218.045 33.0178 216.824 31.7959 215.318 31.7959Z" fill="#1C85E8"/>
<path d="M180.776 37.5576H156.688C155.017 37.5576 153.658 36.1972 153.658 34.5251C153.658 32.8531 155.017 31.4927 156.688 31.4927H180.776C182.447 31.4927 183.806 32.8531 183.806 34.5251C183.806 36.1972 182.447 37.5576 180.776 37.5576Z" fill="#E6E6E6"/>
<path d="M90.4638 204.507H67.436C63.2592 204.507 59.8611 201.106 59.8611 196.926V189.395C59.8611 185.215 63.2592 181.814 67.436 181.814H90.4638C94.6407 181.814 98.0387 185.215 98.0387 189.395V196.926C98.0387 201.106 94.6407 204.507 90.4638 204.507Z" fill="#F2F2F2"/>
<path d="M211.985 161.105H67.436C63.2591 161.105 59.8611 157.704 59.8611 153.524V120.345C59.8611 116.164 63.2591 112.763 67.436 112.763H211.985C216.162 112.763 219.56 116.164 219.56 120.345V153.524C219.56 157.704 216.162 161.105 211.985 161.105Z" fill="#FBC3DE"/>
<path d="M211.057 204.507H188.029C183.852 204.507 180.454 201.106 180.454 196.926V189.395C180.454 185.215 183.852 181.814 188.029 181.814H211.057C215.234 181.814 218.632 185.215 218.632 189.395V196.926C218.632 201.106 215.234 204.507 211.057 204.507Z" fill="#F2F2F2"/>
<path d="M150.174 204.507H127.146C122.969 204.507 119.571 201.106 119.571 196.926V189.395C119.571 185.215 122.969 181.814 127.146 181.814H150.174C154.35 181.814 157.748 185.215 157.748 189.395V196.926C157.748 201.106 154.35 204.507 150.174 204.507Z" fill="#F2F2F2"/>
<path d="M98.664 238.005H80.4841V254.987H98.664V238.005Z" fill="#F2F2F2"/>
<path d="M98.664 262.265H88.3621V279.247H98.664V262.265Z" fill="#F2F2F2"/>
<path d="M122.298 262.265H104.118V279.247H122.298V262.265Z" fill="#F2F2F2"/>
<path d="M122.298 286.525H104.118V303.507H122.298V286.525Z" fill="#F2F2F2"/>
<path d="M145.932 262.265H127.752V279.247H145.932V262.265Z" fill="#F2F2F2"/>
<path d="M122.298 238.005H104.118V254.987H122.298V238.005Z" fill="#F2F2F2"/>
<path d="M145.932 238.005H127.752V254.987H145.932V238.005Z" fill="#F2F2F2"/>
<path d="M193.199 238.005H175.019V254.987H193.199V238.005Z" fill="#F2F2F2"/>
<path d="M145.932 286.525H127.752V303.507H145.932V286.525Z" fill="#F2F2F2"/>
<path d="M169.565 238.005H151.385V254.987H169.565V238.005Z" fill="#F2F2F2"/>
<path d="M202.592 262.265H190.775V279.247H202.592C204.265 279.247 205.622 277.889 205.622 276.214V265.298C205.622 263.623 204.265 262.265 202.592 262.265Z" fill="#F2F2F2"/>
<path d="M98.664 286.525H95.028C93.3546 286.525 91.998 287.883 91.998 289.557V300.474C91.998 302.149 93.3546 303.507 95.028 303.507H98.664V286.525Z" fill="#F2F2F2"/>
<path d="M169.565 286.525H151.385V303.507H169.565V286.525Z" fill="#F2F2F2"/>
<path d="M216.227 238.005H198.653V254.987H216.227C217.9 254.987 219.257 253.629 219.257 251.955V241.038C219.257 239.363 217.9 238.005 216.227 238.005Z" fill="#F2F2F2"/>
<path d="M185.321 286.781C184.95 286.618 184.541 286.525 184.109 286.525H175.019V303.507H184.109C184.541 303.507 184.95 303.414 185.321 303.251V286.781Z" fill="#F2F2F2"/>
<path d="M169.565 262.265H151.385V279.247H169.565V262.265Z" fill="#F2F2F2"/>
<path d="M185.321 262.265H175.019V279.247H185.321V262.265Z" fill="#F2F2F2"/>
<path d="M82.908 262.265H76.5451C74.8717 262.265 73.5151 263.623 73.5151 265.298V276.214C73.5151 277.889 74.8717 279.247 76.5451 279.247H82.908V262.265Z" fill="#F2F2F2"/>
<path d="M75.0302 238.005H62.9103C61.2369 238.005 59.8804 239.363 59.8804 241.038V251.955C59.8804 253.629 61.2369 254.987 62.9103 254.987H75.0302V238.005Z" fill="#F2F2F2"/>
<path d="M191.994 329.316L186.595 329.316L184.027 308.474L191.995 308.475L191.994 329.316Z" fill="#FFB6B6"/>
<path d="M192.184 334.953L175.582 334.952V334.742C175.582 331.171 178.475 328.275 182.044 328.275H182.045L185.077 325.972L190.735 328.275L192.185 328.275L192.184 334.953H192.184Z" fill="#2F2E41"/>
<path d="M225.606 329.316L220.207 329.316L217.639 308.474L225.607 308.475L225.606 329.316Z" fill="#FFB6B6"/>
<path d="M225.796 334.953L209.194 334.952V334.742C209.194 331.171 212.087 328.275 215.656 328.275H215.656L218.689 325.972L224.347 328.275L225.796 328.275L225.796 334.953Z" fill="#2F2E41"/>
<path d="M236.511 169.713H190.143L184.514 187.115L183.156 261.122L183.394 318.871L193.954 318.91L203.253 256.836C203.253 256.836 202.219 250.73 204.041 251.579C205.863 252.427 202.783 244.936 204.929 245.649C207.075 246.362 209.163 217.391 209.163 217.391L214.279 261.122L217.566 318.871H227.089L235.076 229.8C235.076 229.8 232.568 224.409 235.88 220.83C239.193 217.25 238.853 187.676 238.853 187.676L236.511 169.713Z" fill="#2F2E41"/>
<path d="M237.733 168.613C237.733 168.613 242.179 174.951 238.3 184.878C231.854 201.377 189.09 187.5 186.471 177.222C182.448 175.832 189.155 173.799 187.181 170.427C187.06 170.222 188.289 174.796 187.315 169.735C185.752 161.612 188.436 136.656 188.436 136.656L189.322 121.846C190.18 107.5 196.008 93.9027 205.802 83.3931L228.068 83.3931L237.733 99.0916L238.734 138.438L237.733 168.613Z" fill="#3F3D56"/>
<path d="M169.86 170.111L176.765 159.635L182.786 163.114L175.126 173.906C175.15 174.322 175.12 174.749 175.028 175.176C174.525 177.5 172.396 178.937 170.273 178.388C168.149 177.838 166.834 175.509 167.337 173.186C167.657 171.705 168.64 170.586 169.86 170.111H169.86Z" fill="#FFB6B6"/>
<path d="M202.54 86.757H202.54C194.806 86.757 188.442 92.8499 188.099 100.583L186.622 133.897C186.622 133.897 186.611 135.747 185.927 135.199C185.243 134.651 185.185 136.589 185.185 136.589C185.185 136.589 185.154 139.553 184.509 137.856C183.864 136.16 183.776 139.23 183.776 139.23L174.382 155.406C175.644 158.018 174.664 161.248 174.351 163.879L181.106 170.101C181.106 170.101 181.047 168.233 182.502 168.264C191.427 168.457 200.565 144.33 200.412 135.406C200.236 125.223 202.54 86.757 202.54 86.757L202.54 86.757Z" fill="#3F3D56"/>
<path d="M205.713 40.4071L212.617 50.8828L218.638 47.4034L210.978 36.6119C211.003 36.1955 210.973 35.7683 210.88 35.3412C210.378 33.018 208.249 31.5802 206.125 32.1298C204.001 32.6794 202.687 35.0083 203.189 37.3315C203.51 38.8131 204.493 39.9316 205.713 40.4071H205.713Z" fill="#FFB6B6"/>
<path d="M238.392 123.761H238.392C230.658 123.761 224.294 117.668 223.951 109.935L222.474 76.6205C222.474 76.6205 222.463 74.7704 221.779 75.3183C221.095 75.8663 221.037 73.9284 221.037 73.9284C221.037 73.9284 221.006 70.9649 220.361 72.6613C219.716 74.3578 219.628 71.288 219.628 71.288L207.345 48.2706L208.042 45.2681L214.765 40.2222C214.765 40.2222 217.481 41.0876 218.355 42.2534C222.763 48.1346 236.101 66.6141 236.264 75.112C236.46 85.2943 238.392 123.761 238.392 123.761Z" fill="#3F3D56"/>
<path d="M211.131 80.026C211.461 80.102 211.79 80.168 212.119 80.2187C213.143 80.386 214.166 80.4367 215.164 80.3759C218.194 80.2187 221.051 79.0981 223.362 77.2524C225.804 75.3053 227.627 72.552 228.392 69.2765C230.191 61.5439 225.383 53.8062 217.657 52.0062C210.042 50.2264 202.428 54.8711 200.482 62.4059C200.452 62.5225 200.421 62.6341 200.396 62.7507C198.597 70.4883 203.4 78.2209 211.131 80.026V80.026Z" fill="#FFB6B6"/>
<path d="M229.139 70.7333C227.134 76.0316 222.059 80.2309 216.401 80.4832C215.437 80.5225 214.434 80.4496 213.583 79.9898C212.726 79.5357 212.065 78.6218 212.137 77.6575C212.289 75.7569 214.871 75.028 215.599 73.2619C216.081 72.0957 215.527 70.5988 214.395 70.0325C213.263 69.4719 211.734 69.9204 211.09 71.0137C212.266 69.2195 211.577 66.691 210.093 65.1491C208.614 63.6018 206.536 62.8112 204.53 62.0599L204.485 61.2974C203.068 61.8413 201.522 60.748 200.906 59.3295C201.623 58.4605 202.076 57.4064 202.513 56.3692C201.925 56.7841 201.27 57.0868 200.575 57.2719C200.614 56.0384 198.766 55.4498 199.079 54.2387C199.516 52.5567 202.043 50.0394 201.214 48.5144C202.76 48.9517 203.768 50.757 203.331 52.3044C203.886 50.7906 204.44 49.2768 204.995 47.7575C205.426 48.8115 205.858 49.8656 206.295 50.914C208.407 49.5964 210.591 48.2564 213.045 47.8359C215.499 47.4099 218.322 48.1275 219.695 50.2132C221.123 49.3441 223.039 49.6133 224.451 50.5159C225.862 51.4186 226.848 52.8483 227.638 54.3284C230.316 59.3183 231.145 65.4407 229.139 70.7333V70.7333Z" fill="#2F2E41"/>
<path d="M302.119 325.463C303.371 325.541 304.063 323.984 303.116 323.077L303.022 322.702C303.034 322.672 303.047 322.642 303.059 322.612C304.325 319.591 308.616 319.612 309.872 322.637C310.986 325.323 312.404 328.013 312.753 330.853C312.91 332.107 312.84 333.384 312.562 334.614C315.172 328.906 316.546 322.674 316.546 316.406C316.546 314.831 316.46 313.257 316.284 311.686C316.139 310.401 315.94 309.124 315.681 307.859C314.284 301.019 311.258 294.505 306.894 289.063C304.796 287.916 303.047 286.121 301.99 283.971C301.61 283.195 301.313 282.361 301.172 281.511C301.411 281.542 302.072 277.903 301.892 277.68C302.225 277.174 302.82 276.923 303.184 276.43C304.991 273.978 307.481 274.406 308.781 277.739C311.558 279.141 311.584 281.467 309.881 283.705C308.797 285.128 308.648 287.054 307.697 288.578C307.794 288.703 307.896 288.824 307.994 288.95C309.788 291.253 311.34 293.729 312.649 296.33C312.279 293.439 312.825 289.957 313.756 287.712C314.815 285.154 316.801 283 318.549 280.789C320.65 278.133 324.957 279.292 325.327 282.659C325.33 282.691 325.334 282.724 325.337 282.757C325.077 282.903 324.823 283.059 324.574 283.224C323.157 284.162 323.647 286.361 325.327 286.621L325.365 286.627C325.271 287.563 325.11 288.491 324.875 289.404C327.119 298.087 322.276 301.249 315.36 301.391C315.208 301.469 315.059 301.548 314.906 301.622C315.607 303.597 316.167 305.622 316.581 307.674C316.953 309.488 317.212 311.321 317.356 313.163C317.536 315.485 317.521 317.82 317.325 320.139L317.337 320.057C317.834 317.503 319.219 315.117 321.231 313.464C324.228 311 328.463 310.093 331.696 308.112C333.252 307.159 335.247 308.391 334.975 310.197L334.962 310.283C334.48 310.479 334.011 310.706 333.557 310.961C333.297 311.108 333.042 311.263 332.794 311.428C331.376 312.366 331.866 314.566 333.546 314.825L333.584 314.831C333.611 314.835 333.635 314.839 333.662 314.843C332.836 316.806 331.686 318.627 330.245 320.198C328.843 327.777 322.818 328.497 316.374 326.289H316.37C315.666 329.361 314.636 332.361 313.313 335.221H302.393C302.354 335.099 302.319 334.974 302.283 334.853C303.293 334.915 304.311 334.856 305.305 334.672C304.495 333.677 303.685 332.675 302.874 331.68C302.855 331.66 302.839 331.64 302.824 331.621C302.413 331.112 301.998 330.606 301.587 330.097L301.587 330.096C301.561 328.533 301.748 326.975 302.119 325.463L302.119 325.463V325.463Z" fill="#F2F2F2"/>
<path d="M0 335.253C0 335.654 0.321195 335.975 0.72117 335.975H334.194C334.594 335.975 334.915 335.654 334.915 335.253C334.915 334.853 334.594 334.532 334.194 334.532H0.72117C0.321195 334.532 0 334.853 0 335.253Z" fill="#CCCCCC"/>
</g>
<defs>
<clipPath id="clip0_254_382">
<rect width="335" height="336" fill="white"/>
</clipPath>
</defs>
</svg>
