<svg width="48" height="48" viewBox="0 0 48 48" fill="none" xmlns="http://www.w3.org/2000/svg">
<rect width="48" height="48" rx="12" fill="#F4608A" fill-opacity="0.3"/>
<path d="M32.5934 26.625C33.5571 26.625 34.4992 26.8999 35.3005 27.415C36.1018 27.9301 36.7264 28.6621 37.0952 29.5187C37.464 30.3752 37.5605 31.3177 37.3724 32.227C37.1844 33.1363 36.7204 33.9715 36.0389 34.6271C35.3574 35.2826 34.4892 35.7291 33.544 35.9099C32.5988 36.0908 31.619 35.998 30.7287 35.6432C29.8383 35.2884 29.0773 34.6876 28.5418 33.9167C28.0064 33.1459 27.7206 32.2396 27.7206 31.3125C27.7206 30.0693 28.234 28.877 29.1478 27.9979C30.0616 27.1189 31.301 26.625 32.5934 26.625ZM32.5934 33.9167C33.1288 33.9167 33.6522 33.7639 34.0973 33.4778C34.5425 33.1916 34.8895 32.7849 35.0944 32.3091C35.2993 31.8332 35.3529 31.3096 35.2484 30.8045C35.144 30.2993 34.8861 29.8353 34.5075 29.4711C34.129 29.1069 33.6466 28.8589 33.1215 28.7584C32.5964 28.6579 32.0521 28.7095 31.5574 28.9066C31.0628 29.1037 30.64 29.4374 30.3425 29.8657C30.0451 30.294 29.8863 30.7974 29.8863 31.3125C29.8899 32.0021 30.1762 32.6625 30.6831 33.1501C31.19 33.6378 31.8765 33.9132 32.5934 33.9167ZM37.1548 20.6745L35.2057 18.8125L37.1548 16.9505C37.3274 16.7481 37.4157 16.4912 37.4023 16.2297C37.389 15.9682 37.275 15.7208 37.0825 15.5356C36.8901 15.3505 36.6329 15.2408 36.3611 15.228C36.0892 15.2152 35.8221 15.3 35.6117 15.4661L33.6762 17.3411L31.7406 15.4661C31.5302 15.3 31.2632 15.2152 30.9913 15.228C30.7195 15.2408 30.4623 15.3505 30.2698 15.5356C30.0774 15.7208 29.9634 15.9682 29.95 16.2297C29.9367 16.4912 30.0249 16.7481 30.1976 16.9505L32.1467 18.8125L30.1976 20.6745C29.9943 20.872 29.8802 21.1387 29.8802 21.4167C29.8802 21.6946 29.9943 21.9614 30.1976 22.1589C30.4046 22.3514 30.6812 22.459 30.9691 22.459C31.257 22.459 31.5337 22.3514 31.7406 22.1589L33.6762 20.2839L35.6117 22.1589C35.8187 22.3514 36.0953 22.459 36.3833 22.459C36.6712 22.459 36.9478 22.3514 37.1548 22.1589C37.3581 21.9614 37.4722 21.6946 37.4722 21.4167C37.4722 21.1387 37.3581 20.872 37.1548 20.6745ZM11.7896 33.1745C11.5862 33.372 11.4722 33.6387 11.4722 33.9167C11.4722 34.1946 11.5862 34.4614 11.7896 34.6589C11.9965 34.8514 12.2732 34.959 12.5611 34.959C12.849 34.959 13.1256 34.8514 13.3326 34.6589L15.2681 32.7839L17.2037 34.6589C17.4107 34.8514 17.6873 34.959 17.9752 34.959C18.2631 34.959 18.5398 34.8514 18.7467 34.6589C18.9501 34.4614 19.0641 34.1946 19.0641 33.9167C19.0641 33.6387 18.9501 33.372 18.7467 33.1745L16.7976 31.3125L18.7467 29.4505C18.9194 29.2481 19.0076 28.9912 18.9943 28.7297C18.9809 28.4682 18.8669 28.2208 18.6745 28.0356C18.482 27.8505 18.2249 27.7408 17.953 27.728C17.6812 27.7151 17.4141 27.8 17.2037 27.9661L15.2681 29.8411L13.3326 27.9661C13.1222 27.8 12.8551 27.7151 12.5833 27.728C12.3114 27.7408 12.0543 27.8505 11.8618 28.0356C11.6693 28.2208 11.5554 28.4682 11.542 28.7297C11.5287 28.9912 11.6169 29.2481 11.7896 29.4505L13.7387 31.3125L11.7896 33.1745ZM17.9075 21.5208C18.7467 24.4375 21.332 26.9505 24.215 27.6406L24.4722 27.6667C24.7153 27.6675 24.9516 27.5896 25.1431 27.4455C25.3346 27.3015 25.4702 27.0996 25.5279 26.8724C25.5935 26.6032 25.5465 26.32 25.3972 26.0838C25.2478 25.8475 25.008 25.6772 24.7293 25.6094C22.6178 25.1016 20.6281 23.1484 19.992 20.974C19.5724 19.4766 19.5588 17.1979 21.9952 14.8672L22.3065 14.5547V17.25C22.3065 17.5263 22.4206 17.7912 22.6237 17.9866C22.8267 18.1819 23.1022 18.2917 23.3893 18.2917C23.6765 18.2917 23.9519 18.1819 24.155 17.9866C24.3581 17.7912 24.4722 17.5263 24.4722 17.25V12.0417C24.4722 11.7654 24.3581 11.5004 24.155 11.3051C23.9519 11.1097 23.6765 11 23.3893 11H17.9752C17.688 11 17.4126 11.1097 17.2095 11.3051C17.0065 11.5004 16.8924 11.7654 16.8924 12.0417C16.8924 12.3179 17.0065 12.5829 17.2095 12.7782C17.4126 12.9736 17.688 13.0833 17.9752 13.0833H20.777L20.4522 13.3828C17.9887 15.7656 17.0819 18.6562 17.9075 21.5208Z" fill="#F4608A"/>
</svg>
