<svg width="32" height="32" viewBox="0 0 32 32" fill="none" xmlns="http://www.w3.org/2000/svg">
<circle cx="16" cy="16" r="16" fill="#EDEBFE"/>
<path d="M13.2656 10.4688C13.1703 10.4688 13.0789 10.5066 13.0115 10.5739C12.9441 10.6413 12.9062 10.7328 12.9062 10.8281V12.625H6.79688C6.70156 12.625 6.61015 12.6628 6.54276 12.7302C6.47536 12.7976 6.4375 12.8891 6.4375 12.9844V19.4531C6.4375 19.5484 6.47536 19.6398 6.54276 19.7072C6.61015 19.7746 6.70156 19.8125 6.79688 19.8125H26.2031C26.2984 19.8125 26.3898 19.7746 26.4572 19.7072C26.5246 19.6398 26.5625 19.5484 26.5625 19.4531V13.7031C26.5625 13.6078 26.5246 13.5163 26.4572 13.4489C26.3898 13.3816 26.2984 13.3438 26.2031 13.3438H20.0938V10.8281C20.0938 10.7328 20.0559 10.6413 19.9885 10.5739C19.9211 10.5066 19.8297 10.4688 19.7344 10.4688H13.2656ZM13.625 11.1875H19.375V19.0938H13.625V12.9844V11.1875ZM16.5 12.6106V12.6178H16.459C16.4239 12.6238 16.3897 12.6339 16.357 12.648C16.3469 12.6552 16.3376 12.6565 16.3282 12.6623H16.3246C16.3153 12.6695 16.3067 12.6731 16.298 12.6796H16.2952C16.2853 12.6863 16.2757 12.6936 16.2664 12.7012C16.2607 12.7083 16.2549 12.7126 16.2484 12.7184L16.2441 12.7255L15.5297 13.4314C15.1761 13.7685 15.695 14.2931 16.035 13.9424L16.1464 13.8332V16.2065H15.7812C15.2954 16.1993 15.2954 16.9324 15.7812 16.9252H16.4209C16.476 16.9382 16.5333 16.9382 16.5884 16.9252H17.2188C17.7046 16.9324 17.7046 16.1993 17.2188 16.2065H16.8651V12.9779C16.8658 12.9238 16.8543 12.8702 16.8314 12.8212C16.8085 12.7721 16.7748 12.7289 16.7329 12.6947H16.7286C16.6813 12.6572 16.6255 12.632 16.5661 12.6214C16.5561 12.6214 16.546 12.6142 16.5367 12.6142H16.5V12.6106ZM7.15625 13.3438H12.9062V19.0938H7.15625V13.3438ZM10.0255 14.0625C9.43469 14.0625 8.94738 14.5498 8.94738 15.1406C8.94019 15.6265 9.67331 15.6265 9.66613 15.1406C9.66613 14.9351 9.81994 14.7812 10.0255 14.7812C10.2311 14.7812 10.3849 14.9351 10.3849 15.1406C10.3921 15.293 10.3404 15.4423 10.2404 15.5575C10.1448 15.6775 9.991 15.7975 9.81203 15.9326C9.63306 16.067 9.42822 16.2166 9.255 16.4336C9.0825 16.6507 8.95312 16.9483 8.95312 17.2969C8.95312 17.3922 8.99099 17.4836 9.05838 17.551C9.12578 17.6184 9.21719 17.6562 9.3125 17.6562H10.75C11.2359 17.6634 11.2359 16.9303 10.75 16.9375H9.79838C9.80916 16.9217 9.80556 16.8972 9.81778 16.8814C9.91338 16.7621 10.0657 16.6413 10.2447 16.5069C10.4237 16.3718 10.6285 16.223 10.8017 16.0052C10.975 15.7881 11.1036 15.4899 11.1036 15.1406C11.1036 14.5498 10.6163 14.0625 10.0255 14.0625ZM20.0938 14.0625H25.8438V19.0938H20.0938V14.0625ZM22.866 14.787C22.5993 14.8128 22.3518 14.9369 22.1715 15.1351C21.9913 15.3333 21.8912 15.5915 21.8906 15.8594C21.8834 16.3453 22.6166 16.3453 22.6094 15.8594C22.6094 15.7135 22.6956 15.584 22.8315 15.5287C22.897 15.501 22.9693 15.4935 23.0391 15.5072C23.1089 15.5209 23.173 15.5552 23.2232 15.6056C23.2744 15.6555 23.3095 15.7196 23.3239 15.7896C23.3383 15.8597 23.3313 15.9324 23.3039 15.9984C23.2765 16.0645 23.2299 16.1208 23.1701 16.1601C23.1104 16.1993 23.0402 16.2198 22.9688 16.2188C22.9203 16.2185 22.8722 16.2276 22.8272 16.2453C22.82 16.2453 22.8128 16.2525 22.8056 16.2553L22.7962 16.2625C22.7358 16.2943 22.6857 16.3427 22.6518 16.4019C22.6496 16.4091 22.6475 16.4092 22.646 16.4135C22.6245 16.4544 22.6111 16.4991 22.6065 16.545L22.6051 16.5615L22.6036 16.5795C22.6038 16.5911 22.6047 16.6026 22.6065 16.614V16.6212C22.6094 16.6444 22.6147 16.6673 22.6223 16.6895C22.63 16.7124 22.6399 16.7346 22.6518 16.7556C22.6554 16.7628 22.6597 16.7685 22.664 16.775C22.6698 16.7842 22.676 16.793 22.6827 16.8016L22.687 16.8088L22.692 16.816C22.6978 16.8232 22.7035 16.8282 22.7093 16.834C22.7203 16.8455 22.7321 16.8562 22.7445 16.8663C22.7517 16.8734 22.7582 16.8756 22.7653 16.8806C22.7784 16.8891 22.7921 16.8966 22.8063 16.9029C22.8135 16.9101 22.8207 16.9108 22.8279 16.9144C22.8724 16.9333 22.9203 16.9431 22.9688 16.9432C23.1154 16.9432 23.2455 17.028 23.3015 17.1632C23.3215 17.2122 23.3304 17.265 23.3276 17.3178C23.3248 17.3707 23.3104 17.4222 23.2853 17.4688C23.2603 17.5155 23.2252 17.556 23.1827 17.5876C23.1402 17.6191 23.0912 17.6408 23.0394 17.6512C22.9875 17.6616 22.9339 17.6603 22.8825 17.6477C22.8312 17.635 22.7832 17.6111 22.7421 17.5777C22.7011 17.5444 22.6679 17.5023 22.6449 17.4546C22.622 17.4069 22.6098 17.3548 22.6094 17.3019C22.6166 16.816 21.8834 16.816 21.8906 17.3019C21.8915 17.5147 21.9552 17.7224 22.0738 17.8991C22.1924 18.0758 22.3606 18.2135 22.5572 18.2949C22.7538 18.3763 22.9701 18.3978 23.1788 18.3567C23.3876 18.3155 23.5796 18.2136 23.7306 18.0637C23.8812 17.9126 23.9839 17.7205 24.0257 17.5113C24.0675 17.3021 24.0466 17.0852 23.9657 16.8878C23.9167 16.7748 23.8484 16.6711 23.7637 16.5816C23.8456 16.4918 23.9175 16.3912 23.9649 16.274C24.0356 16.1023 24.0607 15.9153 24.0378 15.7311C24.0149 15.5469 23.9448 15.3716 23.8344 15.2224C23.7239 15.0732 23.5768 14.9551 23.4073 14.8794C23.2377 14.8038 23.0515 14.7731 22.8667 14.7906L22.866 14.787Z" fill="#7E3AF2"/>
</svg>
