<svg width="48" height="48" viewBox="0 0 48 48" fill="none" xmlns="http://www.w3.org/2000/svg">
<rect width="48" height="48" rx="12" fill="#699BF7" fill-opacity="0.3"/>
<path d="M34.8399 16.706V13.0781C34.8399 12.5769 34.4209 12.1719 33.9024 12.1719H14.0977C13.5791 12.1719 13.1602 12.5769 13.1602 13.0781V16.706C12.6709 16.7343 12.2813 17.1279 12.2813 17.6094V21.3392C12.2794 22.0246 12.423 22.7032 12.7031 23.3329C12.8291 23.6218 12.9844 23.8937 13.1602 24.1514V33.9219C13.1602 34.4203 13.5791 34.8281 14.0977 34.8281H33.9024C34.4209 34.8281 34.8399 34.4231 34.8399 33.9219V24.1514C35.0184 23.893 35.1714 23.619 35.2969 23.3329C35.5752 22.7014 35.7188 22.0302 35.7188 21.3392V17.6094C35.7188 17.1279 35.3291 16.7343 34.8399 16.706ZM15.2695 14.2109H32.7305V16.7031H15.2695V14.2109ZM25.875 32.7919H22.125V29.8438H25.875V32.7919ZM32.7305 32.7919H27.75V28.9375C27.75 28.4362 27.3311 28.0313 26.8125 28.0313H21.1875C20.669 28.0313 20.25 28.4362 20.25 28.9375V32.7919H15.2695V25.9327C15.3545 25.9724 15.4424 26.012 15.5332 26.046C16.1865 26.3122 16.8809 26.4453 17.5957 26.4453C18.3106 26.4453 19.002 26.3122 19.6582 26.046C20.0625 25.8817 20.4434 25.6722 20.792 25.4201C20.7979 25.4173 20.8037 25.4173 20.8096 25.4201C21.1593 25.6732 21.5401 25.8835 21.9434 26.046C22.5967 26.3122 23.291 26.4453 24.0059 26.4453C24.7207 26.4453 25.4121 26.3122 26.0684 26.046C26.4727 25.8817 26.8535 25.6722 27.2022 25.4201C27.208 25.4173 27.2139 25.4173 27.2197 25.4201C27.5695 25.6732 27.9503 25.8835 28.3535 26.046C29.0069 26.3122 29.7012 26.4453 30.416 26.4453C31.1309 26.4453 31.8223 26.3122 32.4785 26.046C32.5664 26.0092 32.6543 25.9724 32.7422 25.9327V32.7919H32.7305ZM33.6094 21.3392C33.6094 23.0327 32.1738 24.4062 30.4072 24.4062C29.2119 24.4062 28.169 23.7804 27.6182 22.8515C27.5332 22.7099 27.3809 22.6221 27.211 22.6221H27.1934C27.0264 22.6221 26.8711 22.7099 26.7862 22.8515C26.5051 23.3253 26.0992 23.7188 25.6099 23.9919C25.1205 24.2649 24.5651 24.4079 24 24.4062C22.8076 24.4062 21.7676 23.7832 21.2168 22.8571C21.1289 22.7127 20.9707 22.6221 20.7979 22.6221C20.625 22.6221 20.4639 22.7127 20.3789 22.8571C20.0962 23.3292 19.6898 23.7209 19.2007 23.9928C18.7116 24.2648 18.157 24.4074 17.5928 24.4062C15.8262 24.4062 14.3906 23.0327 14.3906 21.3392V18.7563C14.3906 18.7479 14.3965 18.7422 14.4053 18.7422H33.5947C33.6035 18.7422 33.6094 18.7479 33.6094 18.7563V21.3392Z" fill="#699BF7"/>
</svg>
