<svg width="32" height="32" viewBox="0 0 32 32" fill="none" xmlns="http://www.w3.org/2000/svg">
<circle cx="16" cy="16" r="16" fill="#D5F5F6"/>
<path fill-rule="evenodd" clip-rule="evenodd" d="M10.375 7.1875C9.72397 7.1875 9.1875 7.72397 9.1875 8.37499V22.6248C9.1875 23.2758 9.72397 23.8123 10.375 23.8123H21.4582C22.1092 23.8123 22.6457 23.2758 22.6457 22.6248V17.2471L25.6967 14.1961C25.7708 14.1218 25.8124 14.0213 25.8124 13.9164C25.8124 13.8115 25.7708 13.7109 25.6967 13.6367L24.113 12.053C24.0755 12.0156 24.0308 11.9861 23.9817 11.9662C23.9326 11.9464 23.88 11.9366 23.827 11.9374C23.7243 11.9391 23.6263 11.9805 23.5537 12.053L22.6457 12.961V8.37499C22.6457 7.72396 22.1092 7.1875 21.4582 7.1875H10.375ZM10.375 7.97916H21.4582C21.6843 7.97916 21.854 8.14885 21.854 8.37499V13.7527L17.2204 18.3863C17.1766 18.4296 17.1435 18.4825 17.1238 18.5409L16.3333 20.9166C16.3104 20.9862 16.3072 21.0608 16.3242 21.1321C16.3412 21.2034 16.3776 21.2685 16.4294 21.3204C16.4812 21.3722 16.5464 21.4086 16.6176 21.4255C16.6889 21.4425 16.7635 21.4394 16.8331 21.4164L19.2088 20.626C19.2672 20.6062 19.3201 20.5731 19.3635 20.5293L21.854 18.0388V22.6248C21.854 22.8509 21.6843 23.0206 21.4582 23.0206H10.375C10.1488 23.0206 9.97916 22.8509 9.97916 22.6248V8.37499C9.97916 8.14885 10.1488 7.97916 10.375 7.97916ZM18.2854 9.5617C18.1825 9.56375 18.0845 9.60575 18.0121 9.67882L16.4284 11.261C16.354 11.3352 16.3122 11.4359 16.312 11.541C16.3119 11.6461 16.3536 11.7469 16.4278 11.8213C16.502 11.8957 16.6028 11.9375 16.7078 11.9376C16.8129 11.9377 16.9137 11.8961 16.9881 11.8219L17.8953 10.9146V12.7295C17.8953 13.6135 17.1972 14.3132 16.3132 14.3132H14.7295C13.4206 14.3132 12.3537 15.3781 12.3537 16.687V19.1327C11.8947 19.2975 11.5617 19.7381 11.5617 20.2506C11.5617 20.9018 12.0984 21.4365 12.7496 21.4365C13.4007 21.4365 13.9374 20.9018 13.9374 20.2506C13.9374 19.7381 13.6044 19.2975 13.1454 19.1327V16.687C13.1454 15.803 13.8455 15.1033 14.7295 15.1033H16.3132C17.6221 15.1033 18.687 14.0384 18.687 12.7295V10.9146L19.5942 11.8219C19.6686 11.8963 19.7695 11.9381 19.8747 11.9382C19.98 11.9382 20.0809 11.8964 20.1553 11.8221C20.2297 11.7477 20.2716 11.6468 20.2716 11.5416C20.2716 11.4363 20.2299 11.3354 20.1555 11.261L18.5718 9.67882C18.5344 9.64106 18.4897 9.61123 18.4405 9.59111C18.3913 9.57099 18.3385 9.56098 18.2854 9.5617ZM12.7453 10.3506C12.6667 10.3509 12.5899 10.3746 12.5247 10.4186C12.4596 10.4627 12.4091 10.5252 12.3796 10.5981C12.3501 10.671 12.343 10.751 12.3592 10.828C12.3754 10.905 12.4141 10.9754 12.4705 11.0302L12.9819 11.5416L12.4705 12.053C12.3961 12.1272 12.3543 12.228 12.3541 12.3331C12.354 12.4381 12.3957 12.5389 12.4699 12.6133C12.5441 12.6877 12.6449 12.7295 12.7499 12.7297C12.855 12.7298 12.9558 12.6881 13.0302 12.6139L13.5416 12.1025L14.053 12.6139C14.0896 12.652 14.1333 12.6825 14.1818 12.7035C14.2303 12.7245 14.2824 12.7356 14.3352 12.7362C14.388 12.7368 14.4404 12.7268 14.4893 12.7068C14.5383 12.6869 14.5827 12.6574 14.62 12.62C14.6574 12.5827 14.6869 12.5383 14.7068 12.4893C14.7268 12.4404 14.7368 12.388 14.7362 12.3352C14.7356 12.2824 14.7245 12.2303 14.7035 12.1818C14.6825 12.1333 14.652 12.0896 14.6139 12.053L14.1025 11.5416L14.6139 11.0302C14.6711 10.9746 14.7102 10.903 14.726 10.8247C14.7418 10.7465 14.7336 10.6653 14.7025 10.5919C14.6713 10.5184 14.6187 10.456 14.5515 10.413C14.4843 10.3699 14.4057 10.3482 14.3259 10.3506C14.2228 10.3535 14.1249 10.3965 14.053 10.4705L13.5416 10.9819L13.0302 10.4705C12.9932 10.4324 12.9489 10.4022 12.8999 10.3816C12.851 10.361 12.7984 10.3505 12.7453 10.3506V10.3506ZM23.8328 12.893L24.8567 13.917L24.2294 14.5443L23.2054 13.5204L23.8328 12.893ZM22.6457 14.0801L23.6696 15.1041L19.0836 19.6901L18.0596 18.6661L22.6457 14.0801ZM17.6731 19.3983L18.3515 20.0767L17.3341 20.4157L17.6731 19.3983ZM12.7496 19.8544C12.9729 19.8544 13.1454 20.0273 13.1454 20.2506C13.1454 20.4739 12.9729 20.6464 12.7496 20.6464C12.5263 20.6464 12.3537 20.4739 12.3537 20.2506C12.3537 20.0273 12.5263 19.8544 12.7496 19.8544Z" fill="#0694A2"/>
</svg>
