<svg width="48" height="48" viewBox="0 0 48 48" fill="none" xmlns="http://www.w3.org/2000/svg">
<rect width="48" height="48" rx="12" fill="#9747FF" fill-opacity="0.3"/>
<path d="M30.0592 17.3308C30.51 17.3308 30.9424 17.5099 31.2613 17.8288C31.5801 18.1476 31.7592 18.58 31.7592 19.0308V22.4308C31.7592 22.8817 31.5801 23.3141 31.2613 23.6329C30.9424 23.9517 30.51 24.1308 30.0592 24.1308H24.9592C24.5083 24.1308 24.0759 23.9517 23.7571 23.6329C23.4383 23.3141 23.2592 22.8817 23.2592 22.4308V19.0308C23.2592 18.58 23.4383 18.1476 23.7571 17.8288C24.0759 17.5099 24.5083 17.3308 24.9592 17.3308H30.0592ZM30.0592 19.0308H24.9592V22.4308H30.0592V19.0308ZM31.7592 26.6808C31.7592 26.4554 31.6696 26.2392 31.5102 26.0798C31.3508 25.9204 31.1346 25.8308 30.9092 25.8308H24.1092C23.8837 25.8308 23.6675 25.9204 23.5081 26.0798C23.3487 26.2392 23.2592 26.4554 23.2592 26.6808C23.2592 26.9063 23.3487 27.1225 23.5081 27.2819C23.6675 27.4413 23.8837 27.5308 24.1092 27.5308H30.9092C31.1346 27.5308 31.3508 27.4413 31.5102 27.2819C31.6696 27.1225 31.7592 26.9063 31.7592 26.6808ZM30.9092 29.2308C31.1346 29.2308 31.3508 29.3204 31.5102 29.4798C31.6696 29.6392 31.7592 29.8554 31.7592 30.0808C31.7592 30.3063 31.6696 30.5225 31.5102 30.6819C31.3508 30.8413 31.1346 30.9308 30.9092 30.9308H24.1092C23.8837 30.9308 23.6675 30.8413 23.5081 30.6819C23.3487 30.5225 23.2592 30.3063 23.2592 30.0808C23.2592 29.8554 23.3487 29.6392 23.5081 29.4798C23.6675 29.3204 23.8837 29.2308 24.1092 29.2308H30.9092ZM35.1592 17.3308C35.1592 15.9782 34.6219 14.681 33.6654 13.7246C32.709 12.7682 31.4118 12.2308 30.0592 12.2308H16.4592C15.1066 12.2308 13.8094 12.7682 12.8529 13.7246C11.8965 14.681 11.3592 15.9782 11.3592 17.3308V30.9308C11.3592 32.2834 11.8965 33.5806 12.8529 34.5371C13.8094 35.4935 15.1066 36.0308 16.4592 36.0308H30.0592C31.4118 36.0308 32.709 35.4935 33.6654 34.5371C34.6219 33.5806 35.1592 32.2834 35.1592 30.9308V17.3308ZM21.5592 34.3308V13.9308H30.0592C30.9609 13.9308 31.8257 14.289 32.4633 14.9267C33.101 15.5643 33.4592 16.4291 33.4592 17.3308V30.9308C33.4592 31.8326 33.101 32.6974 32.4633 33.335C31.8257 33.9726 30.9609 34.3308 30.0592 34.3308H21.5592ZM16.4592 34.3308C15.5574 34.3308 14.6926 33.9726 14.055 33.335C13.4174 32.6974 13.0592 31.8326 13.0592 30.9308V29.2308H19.8592V34.3308H16.4592ZM13.0592 19.0308V17.3308C13.0592 16.4291 13.4174 15.5643 14.055 14.9267C14.6926 14.289 15.5574 13.9308 16.4592 13.9308H19.8592V19.0308H13.0592ZM13.0592 27.5308V20.7308H19.8592V27.5308H13.0592Z" fill="#9747FF"/>
</svg>
