<svg width="49" height="48" viewBox="0 0 49 48" fill="none" xmlns="http://www.w3.org/2000/svg">
<rect opacity="0.48" x="0.354004" width="48" height="48" rx="12" fill="#FF967C" fill-opacity="0.3"/>
<path d="M28.8857 11.3238C28.5336 11.2591 28.1797 11.2722 27.8551 11.3619C27.5305 11.4517 27.2452 11.6153 27.0242 11.8384L19.6155 18.8514C19.4416 19.0203 19.2289 19.1528 18.9889 19.2418L12.9791 21.47C12.4747 21.657 12.0982 22.0278 11.9324 22.5008C11.7666 22.9738 11.8252 23.5103 12.0951 23.9922L12.1766 24.1376L10.2747 24.8427L12.7177 29.2038L14.6195 28.4987L14.7254 28.6877C15.003 29.1576 15.4613 29.5324 16.0023 29.7321C16.5433 29.9317 17.1242 29.9403 17.6207 29.7561L22.4924 33.5327C22.8213 33.7867 23.2121 33.9599 23.6199 34.0322C24.0278 34.1046 24.4361 34.0733 24.798 33.942L25.7565 33.5866C26.2561 33.3967 26.6277 33.0257 26.7905 32.5543C26.9532 32.0829 26.8938 31.5494 26.6252 31.07L24.565 27.3921L35.7943 27.4948C36.0703 27.497 36.3379 27.4514 36.5827 27.3605C36.9594 27.2138 37.2671 26.9656 37.4686 26.6459C37.6284 26.3916 37.7138 26.0991 37.7177 25.7923C37.7216 25.4856 37.6439 25.1735 37.4911 24.8819L30.5613 12.5109C30.3942 12.2156 30.1542 11.9531 29.8622 11.7462C29.5702 11.5393 29.235 11.3943 28.8857 11.3238ZM18.9418 21.4538L21.572 26.1492L16.6272 27.9826L13.997 23.2871L18.9418 21.4538ZM24.7234 31.7751L23.7649 32.1305L19.7355 28.972L22.5654 27.9228L24.7234 31.7751ZM24.1589 25.4534C23.9289 25.4322 23.6996 25.4291 23.4738 25.4441L20.7866 20.6469C20.9575 20.5378 21.1158 20.4145 21.26 20.2782L28.6594 13.216L35.5648 25.5434L24.1589 25.4534ZM33.0417 16.8405L35.0775 20.4748C35.5819 20.2878 35.9584 19.917 36.1242 19.444C36.29 18.9709 36.2314 18.4345 35.9615 17.9525C35.6915 17.4706 35.2322 17.0827 34.6847 16.8741C34.1371 16.6656 33.5461 16.6535 33.0417 16.8405Z" fill="#FF967C"/>
</svg>
