<svg width="33" height="33" viewBox="0 0 33 33" fill="none" xmlns="http://www.w3.org/2000/svg">
<g clip-path="url(#clip0_87_372)">
<rect width="33" height="33" rx="16.5" fill="white"/>
<circle cx="16.5" cy="16.5" r="16.5" fill="#DEF4FF"/>
<path d="M29.1159 22.9313C30.2511 20.1593 28.4064 19.8755 26.4858 18.4433C24.5652 17.0111 27.6936 16.3973 28.3338 14.9255C28.974 13.4537 27.8355 12.4175 26.4165 11.6354C24.9942 10.8533 22.9284 7.81072 22.9284 7.81072L22.836 7.76782C23.9085 9.91942 23.8623 12.3779 23.8458 12.7442C24.189 12.764 24.8292 12.9059 24.9084 13.7177C25.014 14.8298 24.6411 15.6845 23.9481 16.0541C23.9481 16.0541 23.8161 16.1135 23.5356 16.1696C22.6743 19.6808 20.1102 22.2317 17.0775 22.2317C14.0448 22.2317 11.4774 19.6808 10.6194 16.163V16.1861C10.2795 16.1267 10.131 16.0541 10.131 16.0541C9.43802 15.6845 9.06512 14.8298 9.17072 13.7177C9.25322 12.8399 9.99902 12.7442 10.3092 12.7409C10.3026 12.5363 10.2861 11.708 10.4445 10.652C9.91982 10.9094 8.34572 11.7608 8.37542 12.7409C8.41502 13.919 8.75162 15.536 7.23692 15.9749C5.72222 16.4138 5.66942 19.2353 6.30632 20.6675C6.94322 22.0997 7.37222 23.0006 5.37242 23.8751C3.37262 24.7496 5.59682 26.4128 5.38232 29.6072C5.16782 32.8016 8.08172 31.3859 13.8831 30.32C19.6845 29.2541 23.8524 30.6764 26.9808 30.32C30.1059 29.9636 29.7528 28.9736 28.6143 27.5018C27.4758 26.03 27.9741 25.7033 29.1126 22.9313H29.1159Z" fill="#441D39"/>
<path d="M18.0444 5.52734L22.8393 7.76804C21.9384 5.96294 20.2488 4.37234 17.0808 4.41524C12.2034 4.34594 10.8273 8.15084 10.4478 10.6522C10.5534 10.5994 10.6194 10.5697 10.6194 10.5697L18.0444 5.52404V5.52734Z" fill="#C1735C"/>
<path d="M29.7559 28.9743C27.0235 28.0536 20.1958 24.5193 20.1958 24.5193H13.4077C13.4077 24.5193 6.58333 28.0536 3.84763 28.9743C1.11523 29.895 1.11523 34.5612 1.11523 34.5612H32.4916C32.4916 34.5612 32.4916 29.895 29.7592 28.9743H29.7559Z" fill="#4598C4"/>
<path d="M19.777 21.2915H13.7941L13.3486 25.0337L16.8664 32.5742L20.239 24.8357L19.777 21.2915Z" fill="#C1735C"/>
<path d="M13.8039 21.1465L13.5366 23.4499C13.5366 23.4499 18.1731 23.8756 19.8066 21.8428V21.4963C18.9717 21.9682 18.051 22.2322 17.0775 22.2322C15.8895 22.2322 14.7741 21.8362 13.8039 21.1465Z" fill="#A5503C"/>
<path d="M24.9116 13.7182C24.8357 12.9064 24.1922 12.7645 23.849 12.7447C23.8622 12.3784 23.9117 9.91989 22.8392 7.76829L18.0443 5.52759L10.6193 10.5733C10.6193 10.5733 10.5533 10.603 10.4477 10.6558C10.286 11.7118 10.3025 12.5401 10.3124 12.7447C10.0022 12.7447 9.25645 12.8437 9.17395 13.7215C9.06835 14.8336 9.44125 15.6883 10.1342 16.0579C10.1342 16.0579 10.2827 16.1305 10.6226 16.1899V16.1668C11.144 18.3052 12.299 20.0839 13.8071 21.1498C14.7773 21.8395 15.8927 22.2355 17.0807 22.2355C18.0509 22.2355 18.9749 21.9715 19.8098 21.4996C21.5819 20.4997 22.9547 18.5593 23.5388 16.1734C23.8226 16.1173 23.9513 16.0579 23.9513 16.0579C24.6443 15.6883 25.0172 14.8336 24.9116 13.7215V13.7182Z" fill="#C1735C"/>
<path d="M12.4208 11.6953C13.5527 11.6161 14.5163 11.8801 15.0047 12.0286C15.1532 12.0748 15.3083 12.0154 15.371 11.8999C15.437 11.7646 15.3545 11.6095 15.1895 11.5567C14.6351 11.3851 13.6319 11.1112 12.5198 11.3719C12.3482 11.4115 12.0413 11.5402 12.1139 11.6821C12.1568 11.7316 12.2723 11.7085 12.4208 11.6986V11.6953Z" fill="#441D39"/>
<path d="M21.8027 11.7512C20.6741 11.6258 19.7039 11.8535 19.2089 11.9855C19.0604 12.0251 18.9053 11.9624 18.8492 11.8403C18.7865 11.7017 18.8756 11.5466 19.0439 11.5037C19.6049 11.3519 20.618 11.1176 21.7202 11.4212C21.8885 11.4674 22.1921 11.6093 22.1129 11.7479C22.0667 11.7974 21.9545 11.7677 21.806 11.7479L21.8027 11.7512Z" fill="#441D39"/>
<path d="M20.2782 14.2688C20.4987 14.2688 20.6775 13.9585 20.6775 13.5758C20.6775 13.1931 20.4987 12.8828 20.2782 12.8828C20.0577 12.8828 19.8789 13.1931 19.8789 13.5758C19.8789 13.9585 20.0577 14.2688 20.2782 14.2688Z" fill="#441D39"/>
<path d="M14.2889 14.127C14.5095 14.127 14.6882 13.8167 14.6882 13.434C14.6882 13.0512 14.5095 12.741 14.2889 12.741C14.0684 12.741 13.8896 13.0512 13.8896 13.434C13.8896 13.8167 14.0684 14.127 14.2889 14.127Z" fill="#441D39"/>
<path d="M17.549 16.6912H16.9187C16.6382 16.6912 16.3907 16.5823 16.2587 16.4008C16.163 16.2721 16.1366 16.1203 16.1828 15.9718C16.328 15.4999 16.4501 15.0478 16.4501 15.0445C16.4732 14.9554 16.5623 14.9059 16.6514 14.929C16.7405 14.9521 16.7933 15.0445 16.7669 15.1303C16.7669 15.1303 16.6448 15.589 16.4963 16.0675C16.4831 16.117 16.4897 16.1599 16.5227 16.2061C16.592 16.3018 16.7471 16.3612 16.9187 16.3612H17.549C17.6414 16.3612 17.714 16.4338 17.714 16.5262C17.714 16.6186 17.6414 16.6912 17.549 16.6912Z" fill="#A5503C"/>
<path d="M16.9457 18.7672C16.1768 18.7672 15.5927 18.6616 15.5498 18.6517C15.4607 18.6352 15.4013 18.5494 15.4178 18.4603C15.4343 18.3712 15.5201 18.3118 15.6092 18.3283C15.6257 18.3283 17.4671 18.6682 18.9059 18.1303C18.9917 18.0973 19.0874 18.1402 19.1171 18.226C19.1501 18.3118 19.1039 18.4075 19.0214 18.4372C18.3317 18.6946 17.576 18.7672 16.9424 18.7672H16.9457Z" fill="#A5503C"/>
<path d="M20.6082 15.3547C21.2443 15.3547 21.7599 15.2365 21.7599 15.0907C21.7599 14.9449 21.2443 14.8267 20.6082 14.8267C19.9722 14.8267 19.4565 14.9449 19.4565 15.0907C19.4565 15.2365 19.9722 15.3547 20.6082 15.3547Z" fill="#AF5D4E"/>
<path d="M13.8895 15.3547C14.5256 15.3547 15.0412 15.2365 15.0412 15.0907C15.0412 14.9449 14.5256 14.8267 13.8895 14.8267C13.2534 14.8267 12.7378 14.9449 12.7378 15.0907C12.7378 15.2365 13.2534 15.3547 13.8895 15.3547Z" fill="#AF5D4E"/>
<path d="M10.0714 10.87L10.0912 11.0251L9.15397 11.9986L8.43457 14.1271C8.43457 14.1271 9.27607 16.8562 10.474 18.5491C11.6686 20.2453 11.1241 17.6845 10.6192 16.1599C10.1143 14.6353 11.0581 14.6155 11.2792 13.576C11.4178 12.9193 11.1736 12.3154 10.9756 11.9623C10.8007 11.3584 10.9558 10.6324 11.7841 10.408C13.7245 9.87668 12.454 6.65918 12.454 6.65918C11.3386 7.37528 10.3684 10.2661 10.0747 10.8667L10.0714 10.87Z" fill="#441D39"/>
<path d="M24.928 11.9988L24.2416 12.0516C23.9611 10.6029 23.344 7.74506 22.7863 7.44806C22.0339 7.04876 21.1792 7.69886 21.1792 7.69886C21.1792 7.69886 21.6082 10.0386 22.5487 10.5666C23.1064 10.8801 23.1031 11.5863 23.1163 12.1077C22.7929 13.794 21.9547 15.6684 23.8456 17.3613C25.9081 19.206 26.3536 14.2692 26.3536 14.2692L24.928 11.9988Z" fill="#441D39"/>
<path d="M23.8985 4.94368C22.8326 3.17158 18.734 2.29378 15.3218 2.99008L15.0941 2.22118C15.0512 2.07928 14.9027 1.99678 14.7575 2.03968C14.6156 2.08258 14.5331 2.23108 14.576 2.37628L14.7938 3.11878C12.1571 3.80848 9.41154 5.77198 8.20704 8.24038C6.96624 10.7814 10.0946 10.8375 10.0946 10.8375C12.7577 6.82138 22.9283 7.81138 22.9283 7.81138C23.519 7.68598 24.9941 6.77188 23.8952 4.94698L23.8985 4.94368Z" fill="#FF7C59"/>
<path d="M11.837 27.3107C11.7743 27.3107 11.7149 27.2777 11.6885 27.2183C11.6489 27.1358 11.6852 27.0368 11.7644 26.9972L13.0085 26.3999C13.091 26.3603 13.19 26.3966 13.2296 26.4791C13.2692 26.5616 13.2329 26.6606 13.1537 26.7002L11.9096 27.2975C11.8865 27.3074 11.8634 27.314 11.837 27.314V27.3107Z" fill="#2A5E70"/>
<path d="M12.4044 29.2741C12.3417 29.2741 12.2823 29.2411 12.2559 29.1817C12.2163 29.0992 12.2526 29.0002 12.3318 28.9606L13.5759 28.3633C13.6584 28.3237 13.7574 28.36 13.797 28.4392C13.8366 28.5184 13.8003 28.6207 13.7211 28.6603L12.477 29.2576C12.4539 29.2675 12.4308 29.2741 12.4044 29.2741Z" fill="#2A5E70"/>
<path d="M13.1275 31.5944C13.0648 31.5944 13.0054 31.5614 12.979 31.502C12.9394 31.4195 12.9757 31.3205 13.0549 31.2809L14.299 30.6836C14.3815 30.644 14.4805 30.6803 14.5201 30.7595C14.5597 30.842 14.5234 30.941 14.4442 30.9806L13.2001 31.5779C13.177 31.5878 13.1539 31.5944 13.1275 31.5944Z" fill="#2A5E70"/>
<path d="M21.5455 27.3108C21.5224 27.3108 21.496 27.3042 21.4729 27.2943L20.2288 26.697C20.1463 26.6574 20.1133 26.5584 20.1529 26.4759C20.1925 26.3934 20.2915 26.3571 20.374 26.3967L21.6181 26.994C21.7006 27.0336 21.7336 27.1326 21.694 27.2151C21.6643 27.2745 21.6082 27.3075 21.5455 27.3075V27.3108Z" fill="#2A5E70"/>
<path d="M20.9781 29.2739C20.955 29.2739 20.9286 29.2673 20.9055 29.2574L19.6615 28.6601C19.579 28.6205 19.5459 28.5215 19.5855 28.439C19.6251 28.3565 19.7241 28.3235 19.8066 28.3631L21.0507 28.9604C21.1332 29 21.1662 29.099 21.1266 29.1815C21.0969 29.2409 21.0408 29.2739 20.9781 29.2739Z" fill="#2A5E70"/>
<path d="M20.2555 31.5942C20.2324 31.5942 20.206 31.5876 20.1829 31.5777L18.9388 30.9804C18.8563 30.9408 18.8233 30.8418 18.8629 30.7593C18.9025 30.6768 19.0015 30.6439 19.084 30.6835L20.3281 31.2807C20.4106 31.3203 20.4436 31.4193 20.404 31.5018C20.3743 31.5612 20.3182 31.5942 20.2555 31.5942Z" fill="#2A5E70"/>
</g>
<defs>
<clipPath id="clip0_87_372">
<rect width="33" height="33" rx="16.5" fill="white"/>
</clipPath>
</defs>
</svg>
