<svg width="570" height="286" viewBox="0 0 570 286" fill="none" xmlns="http://www.w3.org/2000/svg">
<path fill-rule="evenodd" clip-rule="evenodd" d="M561.902 12.9537H298.623C295.336 12.9537 292.671 15.6142 292.671 18.8957V192.398C292.671 195.678 295.336 198.339 298.623 198.339H561.902C565.186 198.339 567.851 195.678 567.851 192.398V18.8957C567.851 15.6142 565.186 12.9537 561.902 12.9537ZM298.623 11.3193C294.433 11.3193 291.034 14.7115 291.034 18.8957V192.398C291.034 196.582 294.433 199.974 298.623 199.974H561.902C566.092 199.974 569.488 196.582 569.488 192.398V18.8957C569.488 14.7115 566.092 11.3193 561.902 11.3193H298.623Z" fill="#BCECFF"/>
<path d="M291.034 167.525H569.488V192.429C569.488 196.596 566.092 199.974 561.902 199.974H298.623C294.433 199.974 291.034 196.596 291.034 192.429V167.525Z" fill="#BCECFF"/>
<path d="M309.028 183.278L316.15 178.456C316.201 178.421 316.263 178.4 316.325 178.397C316.39 178.394 316.452 178.408 316.505 178.439C316.562 178.469 316.609 178.514 316.64 178.569C316.674 178.624 316.691 178.687 316.691 178.75V188.748C316.691 188.814 316.674 188.877 316.64 188.931C316.609 188.985 316.562 189.031 316.505 189.06C316.452 189.091 316.39 189.106 316.325 189.103C316.263 189.1 316.201 189.08 316.15 189.043L309.028 184.222V188.702C309.028 188.891 308.954 189.068 308.825 189.203C308.692 189.335 308.515 189.409 308.332 189.409C308.146 189.409 307.968 189.335 307.839 189.203C307.709 189.068 307.636 188.891 307.636 188.702V178.797C307.636 178.61 307.709 178.43 307.839 178.297C307.968 178.164 308.146 178.09 308.332 178.09C308.515 178.09 308.692 178.164 308.825 178.297C308.954 178.43 309.028 178.61 309.028 178.797V183.278Z" fill="white"/>
<path d="M367.369 183.278L360.246 178.456C360.192 178.421 360.133 178.4 360.071 178.397C360.007 178.394 359.945 178.408 359.888 178.439C359.835 178.469 359.787 178.514 359.756 178.569C359.722 178.624 359.705 178.687 359.705 178.75V188.748C359.705 188.814 359.722 188.877 359.756 188.931C359.787 188.985 359.835 189.031 359.888 189.06C359.945 189.091 360.007 189.106 360.071 189.103C360.133 189.1 360.192 189.08 360.246 189.043L367.369 184.222V188.702C367.369 188.891 367.442 189.068 367.571 189.203C367.701 189.335 367.879 189.409 368.065 189.409C368.248 189.409 368.425 189.335 368.558 189.203C368.687 189.068 368.76 188.891 368.76 188.702V178.797C368.76 178.61 368.687 178.43 368.558 178.297C368.425 178.164 368.248 178.09 368.065 178.09C367.879 178.09 367.701 178.164 367.571 178.297C367.442 178.43 367.369 178.61 367.369 178.797V183.278Z" fill="white"/>
<path d="M334.048 179.545C334.048 179.158 334.358 178.844 334.739 178.844C335.122 178.844 335.43 179.158 335.43 179.545V187.954C335.43 188.34 335.122 188.654 334.739 188.654C334.358 188.654 334.048 188.34 334.048 187.954V179.545ZM340.964 179.545C340.964 179.158 341.274 178.844 341.658 178.844C342.038 178.844 342.349 179.158 342.349 179.545V187.954C342.349 188.34 342.038 188.654 341.658 188.654C341.274 188.654 340.964 188.34 340.964 187.954V179.545Z" fill="white"/>
<path d="M553.867 178.09H554.91C555.042 178.09 555.151 178.202 555.151 178.341V181.863C555.151 182.002 555.042 182.115 554.91 182.115H554.108C553.976 182.115 553.867 182.002 553.867 181.863V179.683C553.867 179.544 553.76 179.431 553.628 179.431H551.542C551.41 179.431 551.301 179.319 551.301 179.18V178.341C551.301 178.202 551.41 178.09 551.542 178.09H553.867ZM543.604 178.09H545.931C546.063 178.09 546.17 178.202 546.17 178.341V179.18C546.17 179.319 546.063 179.431 545.931 179.431H543.845C543.713 179.431 543.604 179.544 543.604 179.683V181.863C543.604 182.002 543.497 182.115 543.365 182.115H542.564C542.431 182.115 542.322 182.002 542.322 181.863V178.341C542.322 178.202 542.431 178.09 542.564 178.09H543.604ZM553.628 188.823C553.76 188.823 553.867 188.709 553.867 188.571V186.391C553.867 186.252 553.976 186.14 554.108 186.14H554.91C555.042 186.14 555.151 186.252 555.151 186.391V189.914C555.151 190.052 555.042 190.164 554.91 190.164H551.542C551.41 190.164 551.301 190.052 551.301 189.914V189.076C551.301 188.934 551.41 188.823 551.542 188.823H553.628ZM543.604 188.571C543.604 188.709 543.713 188.823 543.845 188.823H545.931C546.063 188.823 546.17 188.934 546.17 189.076V189.914C546.17 190.052 546.063 190.164 545.931 190.164H542.564C542.431 190.164 542.322 190.052 542.322 189.914V186.391C542.322 186.252 542.431 186.14 542.564 186.14H543.365C543.497 186.14 543.604 186.252 543.604 186.391V188.571Z" fill="white"/>
<path d="M527.306 178.09C527.485 178.09 527.658 178.161 527.784 178.286C527.913 178.412 527.984 178.583 527.984 178.761V183.456H526.625V179.431H515.761V188.823H519.835V190.164H515.08C514.901 190.164 514.728 190.093 514.602 189.968C514.473 189.843 514.401 189.672 514.401 189.493V178.761C514.401 178.583 514.473 178.412 514.602 178.286C514.728 178.161 514.901 178.09 515.08 178.09H527.306ZM527.306 184.798C527.485 184.798 527.658 184.869 527.784 184.995C527.913 185.12 527.984 185.291 527.984 185.469V189.493C527.984 189.672 527.913 189.843 527.784 189.968C527.658 190.093 527.485 190.164 527.306 190.164H521.873C521.691 190.164 521.518 190.093 521.392 189.968C521.266 189.843 521.194 189.672 521.194 189.493V185.469C521.194 185.291 521.266 185.12 521.392 184.995C521.518 184.869 521.691 184.798 521.873 184.798H527.306Z" fill="white"/>
<path d="M443.511 124.574C436.502 116.128 437.684 103.615 446.152 96.6234C454.62 89.6322 467.167 90.8115 474.176 99.2572L518.885 153.126C525.894 161.572 524.712 174.086 516.244 181.077C507.776 188.067 495.229 186.887 488.22 178.443L443.511 124.574Z" fill="url(#paint0_linear_54_3052)"/>
<path d="M522.875 170.898L542.322 85.2719L502.936 99.8107L484.892 160.608C482.081 171.212 488.306 182.113 498.793 184.954C509.283 187.794 520.064 181.502 522.875 170.898Z" fill="url(#paint1_linear_54_3052)"/>
<path d="M542.999 84.9669C543.977 87.4577 535.683 92.9915 524.475 97.3275C513.266 101.663 503.384 103.159 502.406 100.669C501.428 98.1781 509.722 92.6442 520.93 88.3082C532.141 83.9725 542.021 82.4764 542.999 84.9669Z" fill="#171625"/>
<path d="M520.37 84.4713V98.8549C520.37 98.8549 527.703 96.6558 534.089 92.9997C540.76 89.1811 541.892 87.3991 541.892 87.3991L542.27 84.4713L541.363 78.894C540.891 75.9977 541.426 73.0256 542.873 70.4814L553.364 52.0304C554.01 50.895 553.48 49.4455 552.261 49.0075C551.349 48.6807 550.336 49.0336 549.818 49.8584L548.941 51.2492L549.125 50.4551C549.302 49.6986 548.838 48.941 548.091 48.7631C547.605 48.6475 547.095 48.8038 546.755 49.1728L545.544 50.4856V49.6245C545.544 49.1357 545.278 48.6862 544.852 48.4545C544.301 48.1549 543.619 48.2884 543.22 48.7738L534.467 59.3957V58.815C534.467 58.1516 533.935 57.6137 533.28 57.6137C532.916 57.6137 532.574 57.7812 532.349 58.0684L520.563 73.0959C519.094 74.9697 518.578 77.431 519.167 79.7468L520.37 84.4713Z" fill="#F1BFA9"/>
<path fill-rule="evenodd" clip-rule="evenodd" d="M545.839 49.8857C546.016 50.0226 546.056 50.286 545.925 50.4736L539.193 60.0962C539.061 60.2842 538.808 60.3251 538.628 60.1883C538.448 60.0511 538.41 59.788 538.542 59.6003L545.274 49.9777C545.406 49.7898 545.658 49.7488 545.839 49.8857ZM549.706 50.668C549.883 50.8069 549.921 51.0703 549.789 51.2568L542.931 60.8794C542.799 61.066 542.547 61.105 542.366 60.9661C542.189 60.8275 542.151 60.5641 542.283 60.3776L549.141 50.7547C549.273 50.5684 549.526 50.5295 549.706 50.668ZM535.003 58.9981C535.177 59.142 535.207 59.4065 535.07 59.5888L529.46 67.001C529.32 67.1833 529.067 67.2145 528.892 67.0706C528.717 66.9264 528.688 66.6619 528.825 66.4795L534.435 59.0673C534.575 58.885 534.828 58.8539 535.003 58.9981Z" fill="#DD9576"/>
<path d="M379.514 101.327L394.464 167.525H462.125L472.893 134.793C473.672 132.426 473.856 129.903 473.425 127.449L468.317 98.3524C467.677 94.7165 464.509 92.0634 460.799 92.0634H386.96C382.069 92.0634 378.442 96.5773 379.514 101.327Z" fill="url(#paint2_linear_54_3052)"/>
<path fill-rule="evenodd" clip-rule="evenodd" d="M390.644 92.0634H457.805L449.15 117.479L456.414 129.084L432.783 121.617L407.35 132.058L410.617 117.631L390.644 92.0634ZM392.314 92.8809L411.494 117.432L408.487 130.707L432.748 120.749L454.548 127.638L448.257 117.584L456.671 92.8809H392.314Z" fill="#171625"/>
<path fill-rule="evenodd" clip-rule="evenodd" d="M468.356 107.178C468.563 107.105 468.787 107.218 468.858 107.431L471.498 115.355C474.626 124.737 474.339 134.976 470.688 144.155L467.271 152.753L463.86 164.218C463.796 164.434 463.575 164.555 463.367 164.488C463.157 164.422 463.041 164.194 463.104 163.978L466.526 152.477L469.959 143.844C473.533 134.849 473.818 124.815 470.754 115.621L468.111 107.697C468.04 107.484 468.15 107.252 468.356 107.178Z" fill="#171625"/>
<path d="M398.656 107.327L409.509 167.525H379.15L364.384 111.691C363.132 102.132 369.786 93.4071 379.25 92.2022C388.714 90.9973 397.401 97.7687 398.656 107.327Z" fill="url(#paint3_linear_54_3052)"/>
<path fill-rule="evenodd" clip-rule="evenodd" d="M395.477 115.47C395.695 115.413 395.918 115.543 395.975 115.759L409.496 167.018C409.553 167.235 409.422 167.455 409.204 167.512C408.986 167.568 408.762 167.439 408.705 167.223L395.185 115.963C395.128 115.747 395.258 115.526 395.477 115.47Z" fill="#171625"/>
<path d="M420.96 65.4821C434.047 66.207 445.201 56.9381 445.875 44.7795C446.548 32.6209 436.485 22.1768 423.399 21.4519C410.312 20.727 399.157 29.9959 398.484 42.1545C397.81 54.3131 407.873 64.7572 420.96 65.4821Z" fill="#CD764F"/>
<path d="M407.966 75.1881C420.858 75.9022 431.899 65.8082 432.628 52.6425C433.358 39.4768 423.498 28.2251 410.607 27.511C397.716 26.797 386.674 36.891 385.945 50.0567C385.215 63.2223 395.075 74.4741 407.966 75.1881Z" fill="#CD764F"/>
<path d="M439.949 84.9898C449.568 83.8122 456.387 74.8644 455.18 65.0044C453.973 55.1444 445.196 48.106 435.578 49.2836C425.959 50.4613 419.14 59.4091 420.347 69.2691C421.554 79.1291 430.33 86.1675 439.949 84.9898Z" fill="#CD764F"/>
<path fill-rule="evenodd" clip-rule="evenodd" d="M401.648 46.0859C403.529 37.4943 411.831 31.9216 420.467 33.4574C427.989 34.7955 433.395 41.0993 433.918 48.4148C434.46 48.4197 435.005 48.4904 435.547 48.6317C439.793 49.7396 442.161 54.7798 440.836 59.8893C440.039 62.9591 438.091 65.3553 435.742 66.5391L439.205 89.1561C440.156 95.3691 436.303 101.307 430.252 102.949C423.085 104.895 415.842 100.079 414.839 92.697L413.65 83.9379C412.26 83.893 410.851 83.6718 409.45 83.2578C401.02 80.77 395.944 72.1666 397.828 63.5579L401.648 46.0859Z" fill="#F1BFA9"/>
<path d="M417.644 66.4948C418.901 66.1164 420.247 66.9876 420.056 68.4333C419.949 69.2307 419.71 70.0066 419.346 70.7181C418.581 72.2038 417.322 73.2879 415.847 73.7322C414.37 74.1762 412.798 73.9436 411.473 73.0859C410.839 72.6749 410.289 72.1368 409.841 71.5052C409.031 70.3606 409.809 68.8514 411.067 68.4733L414.354 67.4839L417.644 66.4948Z" fill="white"/>
<path d="M423.092 80.7441L413.282 83.8063L413.998 89.0449L423.092 80.7441Z" fill="#171625"/>
<path d="M410.402 34.1622C407.362 43.2512 405.399 48.1922 395.627 50.6829C395.627 50.6829 393.313 46.6841 399.115 39.5985C404.917 32.513 404.256 33.9457 410.402 34.1622C410.402 34.1622 423.037 30.4493 427.989 33.9541C433.271 37.6928 437.304 45.7446 437.304 45.7446L438.185 48.1495C435.953 48.4144 433.84 48.5043 431.852 48.4359L428.123 55.8417L425.752 47.6642C417.448 45.7579 412.152 40.5974 410.402 34.1622Z" fill="#CD764F"/>
<path fill-rule="evenodd" clip-rule="evenodd" d="M405.126 54.3564C405.562 54.4596 405.821 54.8675 405.71 55.2672L405.072 57.5447C404.958 57.9444 404.517 58.1849 404.081 58.0817C403.648 57.9783 403.385 57.5706 403.499 57.171L404.138 54.8934C404.249 54.4935 404.693 54.2533 405.126 54.3564Z" fill="#171625"/>
<path fill-rule="evenodd" clip-rule="evenodd" d="M418.709 55.1157C419.145 55.2395 419.405 55.729 419.294 56.2087L418.655 58.9418C418.541 59.4215 418.1 59.71 417.664 59.5859C417.23 59.4621 416.97 58.9729 417.081 58.493L417.72 55.7598C417.831 55.2802 418.276 54.9919 418.709 55.1157Z" fill="#171625"/>
<path fill-rule="evenodd" clip-rule="evenodd" d="M410.625 58.1215C410.829 58.1827 410.946 58.4017 410.885 58.6106L408.91 65.5606L411.353 65.3044C411.562 65.2823 411.751 65.4403 411.771 65.6568C411.794 65.8734 411.641 66.0668 411.43 66.0889L408.421 66.4043C408.296 66.4174 408.171 66.3649 408.09 66.2639C408.008 66.163 407.98 66.0269 408.016 65.901L410.151 58.3888C410.212 58.1798 410.423 58.0603 410.625 58.1215Z" fill="#DD9576"/>
<path fill-rule="evenodd" clip-rule="evenodd" d="M436.258 55.1957L436.253 55.196L436.239 55.1972C436.226 55.1983 436.204 55.2004 436.177 55.2029C436.123 55.2081 436.041 55.2165 435.943 55.2286C435.742 55.2534 435.465 55.2934 435.157 55.3559C434.527 55.4838 433.828 55.6935 433.388 56.0104C433.339 56.0453 433.292 56.0833 433.243 56.1239C433.793 56.0798 434.499 56.0689 435.062 56.2314C435.369 56.3204 435.726 56.488 435.992 56.6231C436.128 56.6925 436.245 56.7568 436.329 56.8035C436.37 56.8271 436.405 56.8464 436.427 56.8599C436.441 56.8665 436.449 56.872 436.454 56.8758L436.462 56.8801L436.465 56.8815V56.8818C436.465 56.8818 436.465 56.8818 436.278 57.2413L436.465 56.8818C436.664 56.9979 436.734 57.2609 436.623 57.4695C436.514 57.678 436.267 57.7529 436.068 57.6371V57.6363L436.063 57.6328C436.057 57.6299 436.049 57.6253 436.038 57.6193C436.019 57.6074 435.987 57.5899 435.949 57.5683C435.87 57.5248 435.761 57.4654 435.636 57.4015C435.38 57.2701 435.081 57.1321 434.847 57.0653C434.412 56.9397 433.801 56.9432 433.262 56.9893C433.001 57.0117 432.768 57.0431 432.602 57.0688C432.572 57.0734 432.542 57.078 432.518 57.0823C432.129 57.7967 431.865 58.6658 431.697 59.3935C431.607 59.7818 431.544 60.1214 431.506 60.3637C431.487 60.4847 431.474 60.5809 431.465 60.6463C431.46 60.6788 431.457 60.7039 431.455 60.7203L431.452 60.7382V60.7422V60.7428C431.425 60.9799 431.223 61.1492 431.001 61.121C430.775 61.0928 430.614 60.8779 430.642 60.6408L431.047 60.6918C430.642 60.6408 430.642 60.6408 430.642 60.6408V60.6399V60.6379L430.644 60.6316L430.647 60.6088C430.65 60.5892 430.653 60.561 430.658 60.5247C430.666 60.4524 430.682 60.3484 430.701 60.2191C430.745 59.9607 430.808 59.5997 430.905 59.1872C431.096 58.3697 431.411 57.3168 431.919 56.4589C432.186 56.0069 432.52 55.5904 432.931 55.2951C433.518 54.8725 434.358 54.6383 435.002 54.507C435.334 54.4399 435.633 54.3967 435.848 54.3701C435.957 54.3569 436.044 54.348 436.104 54.3422C436.133 54.3393 436.158 54.337 436.174 54.3359L436.193 54.3341L436.199 54.3338L436.201 54.3336C436.201 54.3336 436.201 54.3336 436.231 54.7648L436.201 54.3336C436.427 54.3171 436.62 54.4969 436.636 54.7351C436.653 54.9731 436.481 55.1793 436.258 55.1957Z" fill="#DD9576"/>
<path d="M440.442 65.8603C440.328 67.9409 438.547 69.5343 436.468 69.4189C434.386 69.3038 432.794 67.5236 432.908 65.4429C433.022 63.3626 434.804 61.7692 436.885 61.8846C438.964 61.9997 440.559 63.7799 440.442 65.8603Z" fill="white"/>
<path d="M438.03 79.9895L413.936 86.694L414.314 92.0068H404.981L423.272 142.479L423.775 167.525H447.995L443.075 139.19L447.995 92.0068H439.796L438.03 79.9895Z" fill="#C2BBFF"/>
<path d="M463.087 6.92645C463.087 3.10101 466.221 0 470.084 0H527.778C531.644 0 534.776 3.10101 534.776 6.92645V41.7319C534.776 45.5573 531.644 48.6583 527.778 48.6583H477.005C474.855 48.6583 472.758 49.3114 470.997 50.529L468.587 52.1936C466.27 53.7964 463.087 52.154 463.087 49.354V48.6583V6.92645Z" fill="#FBC3DE"/>
<path fill-rule="evenodd" clip-rule="evenodd" d="M477.079 15.0923C476.853 15.0923 476.67 15.2709 476.67 15.4916C476.67 15.712 476.853 15.8909 477.079 15.8909H522.152C522.378 15.8909 522.56 15.712 522.56 15.4916C522.56 15.2709 522.378 15.0923 522.152 15.0923H477.079ZM477.079 24.88C476.853 24.88 476.67 25.0589 476.67 25.2794C476.67 25.5 476.853 25.6787 477.079 25.6787H494.329C494.555 25.6787 494.738 25.5 494.738 25.2794C494.738 25.0589 494.555 24.88 494.329 24.88H477.079ZM498.513 25.2794C498.513 25.0589 498.696 24.88 498.922 24.88H522.293C522.52 24.88 522.702 25.0589 522.702 25.2794C522.702 25.5 522.52 25.6787 522.293 25.6787H498.922C498.696 25.6787 498.513 25.5 498.513 25.2794ZM477.079 34.6683C476.853 34.6683 476.67 34.8472 476.67 35.0676C476.67 35.2881 476.853 35.467 477.079 35.467H522.152C522.378 35.467 522.56 35.2881 522.56 35.0676C522.56 34.8472 522.378 34.6683 522.152 34.6683H477.079Z" fill="#171625"/>
<path d="M361.952 28.6156C362.434 27.6893 363.768 27.6893 364.247 28.6156L367.935 35.7016C368.041 35.902 368.198 36.072 368.387 36.1937L374.201 39.8886C374.996 40.394 374.996 41.5481 374.201 42.0538L368.505 45.675C368.242 45.8421 368.047 46.0986 367.961 46.3966L364.342 58.6904C363.98 59.923 362.222 59.923 361.859 58.6904L358.241 46.3966C358.152 46.0986 357.959 45.8421 357.697 45.675L352.001 42.0538C351.206 41.5481 351.206 40.394 352.001 39.8886L357.812 36.1937C358.004 36.072 358.16 35.902 358.263 35.7016L361.952 28.6156Z" fill="#FBF7B8"/>
<path d="M321.999 116.123C322.464 115.234 323.747 115.234 324.213 116.123L325.873 119.291C325.972 119.483 326.123 119.646 326.308 119.763L328.945 121.43C329.712 121.914 329.712 123.022 328.945 123.507L326.419 125.103C326.166 125.264 325.977 125.51 325.894 125.796L324.301 131.171C323.952 132.354 322.26 132.354 321.907 131.171L320.317 125.796C320.231 125.51 320.045 125.264 319.793 125.103L317.266 123.507C316.5 123.022 316.5 121.914 317.266 121.43L319.903 119.763C320.089 119.646 320.239 119.483 320.339 119.291L321.999 116.123Z" fill="#97F7F5"/>
<path fill-rule="evenodd" clip-rule="evenodd" d="M271.374 98.9801H8.09409C4.80773 98.9801 2.14355 101.641 2.14355 104.922V278.422C2.14355 281.704 4.80773 284.366 8.09409 284.366H271.374C274.662 284.366 277.324 281.704 277.324 278.422V104.922C277.324 101.641 274.662 98.9801 271.374 98.9801ZM8.09409 97.3457C3.90381 97.3457 0.506836 100.738 0.506836 104.922V278.422C0.506836 282.609 3.90381 286 8.09409 286H271.374C275.564 286 278.961 282.609 278.961 278.422V104.922C278.961 100.738 275.564 97.3457 271.374 97.3457H8.09409Z" fill="#FBC3DE"/>
<path d="M224.266 181.037C224.735 180.126 226.03 180.126 226.499 181.037L230.359 188.54C230.461 188.739 230.612 188.906 230.798 189.026L236.876 192.933C237.65 193.432 237.65 194.567 236.876 195.066L230.911 198.903C230.655 199.066 230.467 199.317 230.382 199.612L226.589 212.646C226.236 213.86 224.529 213.86 224.176 212.646L220.383 199.612C220.298 199.317 220.11 199.066 219.854 198.903L213.889 195.066C213.115 194.567 213.115 193.432 213.889 192.933L219.966 189.026C220.153 188.906 220.304 188.739 220.406 188.54L224.266 181.037Z" fill="#FBF7B8"/>
<path d="M195.194 191.07C192.419 181.655 182.637 176.17 173.15 178.71C163.202 181.375 157.481 191.787 160.57 201.609L181.348 267.661L217.837 267.889L195.194 191.07Z" fill="#DD9576"/>
<path d="M194.899 191.045C192.101 181.63 182.426 176.169 173.05 178.714C163.107 181.413 157.433 192.008 160.62 201.923L176.726 252.042L212.555 250.471L194.899 191.045Z" fill="url(#paint4_linear_54_3052)"/>
<path d="M100.682 191.521L97.8525 267.889H184.168L191.003 227.614C191.756 223.175 191.499 218.627 190.252 214.3L179.871 178.301L134.658 175.071L114.48 177.017C106.859 177.752 100.962 183.951 100.682 191.521Z" fill="url(#paint5_linear_54_3052)"/>
<path d="M180.106 178.431L134.829 175.071L136.075 182.638C137.188 189.396 144.341 193.42 150.812 190.931L158.149 188.108L166.503 190.205C173.401 191.936 180.106 186.799 180.106 179.785V178.431Z" fill="white"/>
<path fill-rule="evenodd" clip-rule="evenodd" d="M183.419 190.179C183.634 190.119 183.857 190.244 183.918 190.462L190.016 212.455C191.558 218.017 191.838 223.861 190.837 229.55L186.891 251.948L186.89 251.954L184.402 267.546C184.366 267.769 184.159 267.919 183.938 267.884C183.718 267.849 183.568 267.638 183.603 267.415L186.093 251.815L190.041 229.405C191.021 223.839 190.746 218.121 189.237 212.676L183.139 190.683C183.079 190.465 183.204 190.241 183.419 190.179Z" fill="#171625"/>
<path d="M0.506836 253.551H278.961V278.452C278.961 282.622 275.564 286 271.374 286H8.09409C3.90381 286 0.506836 282.622 0.506836 278.452V253.551Z" fill="#FBC3DE"/>
<path d="M18.3855 269.304L24.9131 264.482C24.9611 264.448 25.0171 264.428 25.0747 264.425C25.1323 264.422 25.1899 264.437 25.2408 264.465C25.2917 264.497 25.3343 264.542 25.364 264.597C25.3937 264.651 25.4092 264.714 25.4092 264.777V274.774C25.4092 274.837 25.3937 274.9 25.364 274.958C25.3343 275.012 25.2917 275.055 25.2408 275.086C25.1899 275.118 25.1323 275.132 25.0747 275.129C25.0171 275.123 24.9611 275.103 24.9131 275.069L18.3855 270.248V274.729C18.3855 274.915 18.3184 275.095 18.1985 275.229C18.0787 275.361 17.9165 275.435 17.7471 275.435C17.5777 275.435 17.4152 275.361 17.2956 275.229C17.1758 275.095 17.1084 274.915 17.1084 274.729V264.823C17.1084 264.637 17.1758 264.457 17.2956 264.325C17.4152 264.19 17.5777 264.116 17.7471 264.116C17.9165 264.116 18.0787 264.19 18.1985 264.325C18.3184 264.457 18.3855 264.637 18.3855 264.823V269.304Z" fill="white"/>
<path d="M76.2004 269.304L69.6729 264.482C69.6248 264.448 69.5691 264.428 69.5112 264.425C69.4536 264.422 69.3963 264.437 69.3454 264.465C69.2945 264.497 69.2519 264.542 69.2222 264.597C69.1925 264.651 69.1768 264.714 69.1768 264.777V274.774C69.1768 274.837 69.1925 274.9 69.2222 274.958C69.2519 275.012 69.2945 275.055 69.3454 275.086C69.3963 275.118 69.4536 275.132 69.5112 275.129C69.5691 275.123 69.6248 275.103 69.6729 275.069L76.2004 270.248V274.729C76.2004 274.915 76.2678 275.095 76.3874 275.229C76.5073 275.361 76.6697 275.435 76.8391 275.435C77.0083 275.435 77.1707 275.361 77.2906 275.229C77.4104 275.095 77.4775 274.915 77.4775 274.729V264.823C77.4775 264.637 77.4104 264.457 77.2906 264.325C77.1707 264.19 77.0083 264.116 76.8391 264.116C76.6697 264.116 76.5073 264.19 76.3874 264.325C76.2678 264.457 76.2004 264.637 76.2004 264.823V269.304Z" fill="white"/>
<path d="M43.5205 265.573C43.5205 265.185 43.8021 264.871 44.1495 264.871C44.4967 264.871 44.7782 265.185 44.7782 265.573V273.981C44.7782 274.366 44.4967 274.681 44.1495 274.681C43.8021 274.681 43.5205 274.366 43.5205 273.981V265.573ZM49.8089 265.573C49.8089 265.185 50.0905 264.871 50.4377 264.871C50.7851 264.871 51.0667 265.185 51.0667 265.573V273.981C51.0667 274.366 50.7851 274.681 50.4377 274.681C50.0905 274.681 49.8089 274.366 49.8089 273.981V265.573Z" fill="white"/>
<path d="M263.266 264.116H264.37C264.51 264.116 264.623 264.227 264.623 264.368V267.89C264.623 268.029 264.51 268.14 264.37 268.14H263.521C263.378 268.14 263.266 268.029 263.266 267.89V265.709C263.266 265.57 263.15 265.456 263.01 265.456H260.804C260.661 265.456 260.549 265.345 260.549 265.207V264.368C260.549 264.227 260.661 264.116 260.804 264.116H263.266ZM252.398 264.116H254.859C255 264.116 255.115 264.227 255.115 264.368V265.207C255.115 265.345 255 265.456 254.859 265.456H252.653C252.513 265.456 252.398 265.57 252.398 265.709V267.89C252.398 268.029 252.284 268.14 252.143 268.14H251.294C251.154 268.14 251.04 268.029 251.04 267.89V264.368C251.04 264.227 251.154 264.116 251.294 264.116H252.398ZM263.01 274.85C263.15 274.85 263.266 274.736 263.266 274.597V272.419C263.266 272.277 263.378 272.166 263.521 272.166H264.37C264.51 272.166 264.623 272.277 264.623 272.419V275.94C264.623 276.079 264.51 276.19 264.37 276.19H260.804C260.661 276.19 260.549 276.079 260.549 275.94V275.102C260.549 274.961 260.661 274.85 260.804 274.85H263.01ZM252.398 274.597C252.398 274.736 252.513 274.85 252.653 274.85H254.859C255 274.85 255.115 274.961 255.115 275.102V275.94C255.115 276.079 255 276.19 254.859 276.19H251.294C251.154 276.19 251.04 276.079 251.04 275.94V272.419C251.04 272.277 251.154 272.166 251.294 272.166H252.143C252.284 272.166 252.398 272.277 252.398 272.419V274.597Z" fill="white"/>
<path d="M236.778 264.116C236.958 264.116 237.13 264.187 237.258 264.311C237.385 264.439 237.457 264.61 237.457 264.786V269.483H236.098V265.456H225.232V274.85H229.307V276.19H224.553C224.372 276.19 224.2 276.119 224.072 275.995C223.945 275.867 223.874 275.699 223.874 275.52V264.786C223.874 264.61 223.945 264.439 224.072 264.311C224.2 264.187 224.372 264.116 224.553 264.116H236.778ZM236.778 270.823C236.958 270.823 237.13 270.894 237.258 271.021C237.385 271.146 237.457 271.317 237.457 271.496V275.52C237.457 275.699 237.385 275.867 237.258 275.995C237.13 276.119 236.958 276.19 236.778 276.19H231.344C231.164 276.19 230.991 276.119 230.864 275.995C230.737 275.867 230.665 275.699 230.665 275.52V271.496C230.665 271.317 230.737 271.146 230.864 271.021C230.991 270.894 231.164 270.823 231.344 270.823H236.778Z" fill="white"/>
<path fill-rule="evenodd" clip-rule="evenodd" d="M157.45 163.198C161.185 167.25 166.544 169.789 172.496 169.789C183.784 169.789 192.935 160.66 192.935 149.4C192.935 144.314 191.068 139.664 187.982 136.092C188.268 134.805 188.419 133.467 188.419 132.093C188.419 124.117 183.326 117.336 176.227 114.851C173.184 110.646 168.229 107.91 162.634 107.91C157.485 107.91 152.878 110.227 149.805 113.873C148.681 113.693 147.529 113.6 146.354 113.6C135.203 113.6 126.023 122.02 124.854 132.834C121.657 136.689 119.737 141.635 119.737 147.029C119.737 159.337 129.739 169.314 142.076 169.314C148.033 169.314 153.445 166.989 157.45 163.198Z" fill="#171625"/>
<path fill-rule="evenodd" clip-rule="evenodd" d="M174.93 132.682C172.381 124.517 163.854 119.823 155.608 122.044C147.834 124.138 142.957 131.652 143.948 139.439C143.169 139.511 142.404 139.721 141.681 140.081C137.956 141.934 136.735 147.066 138.955 151.543C140.288 154.233 142.56 156.074 144.969 156.714L146.139 178.348C146.46 184.291 151.186 189.044 157.117 189.389C164.146 189.796 169.932 183.922 169.432 176.886L168.935 169.888C169.46 169.741 169.984 169.565 170.504 169.361C178.471 166.235 182.668 157.468 180.114 149.287L174.93 132.682Z" fill="#DD9576"/>
<path d="M161.24 168.28L169.293 170.041L169.541 173.562L161.24 168.28Z" fill="#171625"/>
<path fill-rule="evenodd" clip-rule="evenodd" d="M162.537 143.427C162.736 143.531 162.808 143.769 162.697 143.957L162.338 143.768C162.697 143.957 162.697 143.958 162.697 143.958L162.697 143.958L162.696 143.96L162.693 143.964C162.691 143.967 162.689 143.972 162.685 143.977C162.679 143.987 162.67 144.001 162.659 144.018C162.636 144.053 162.604 144.101 162.562 144.158C162.477 144.273 162.351 144.428 162.184 144.595C161.851 144.926 161.34 145.318 160.648 145.515C159.95 145.714 159.209 145.643 158.669 145.538C158.394 145.484 158.16 145.419 157.994 145.367C157.911 145.341 157.844 145.319 157.798 145.302C157.774 145.294 157.756 145.287 157.743 145.282C157.736 145.279 157.731 145.277 157.727 145.276L157.723 145.274L157.721 145.273L157.721 145.273C157.721 145.273 157.72 145.273 157.878 144.913L157.72 145.273C157.51 145.19 157.411 144.961 157.499 144.762C157.586 144.564 157.826 144.469 158.036 144.552L157.882 144.903C158.036 144.552 158.036 144.552 158.036 144.552H158.036L158.037 144.553L158.046 144.556C158.055 144.559 158.069 144.564 158.087 144.571C158.124 144.584 158.18 144.603 158.251 144.626C158.394 144.67 158.597 144.727 158.835 144.773C159.319 144.868 159.904 144.912 160.412 144.767C160.924 144.621 161.318 144.326 161.588 144.057C161.722 143.923 161.823 143.799 161.888 143.71C161.921 143.665 161.945 143.63 161.96 143.607C161.968 143.595 161.973 143.587 161.976 143.582L161.979 143.577L161.979 143.578C162.089 143.39 162.339 143.322 162.537 143.427ZM161.979 143.577V143.577V143.577Z" fill="#171625"/>
<path fill-rule="evenodd" clip-rule="evenodd" d="M174.612 140.408C174.811 140.513 174.882 140.751 174.772 140.939L174.413 140.75C174.772 140.939 174.772 140.939 174.772 140.939L174.771 140.94L174.77 140.942L174.768 140.946C174.766 140.949 174.764 140.953 174.76 140.958C174.754 140.969 174.745 140.983 174.734 141C174.711 141.035 174.679 141.082 174.636 141.14C174.551 141.255 174.426 141.41 174.258 141.577C173.926 141.908 173.415 142.299 172.723 142.497C172.025 142.695 171.284 142.625 170.744 142.519C170.469 142.466 170.235 142.401 170.069 142.349C169.986 142.323 169.919 142.3 169.872 142.283C169.849 142.275 169.831 142.268 169.818 142.263C169.811 142.261 169.806 142.259 169.802 142.257L169.797 142.255L169.796 142.255L169.795 142.255C169.795 142.255 169.795 142.254 169.953 141.894L169.795 142.254C169.585 142.172 169.486 141.943 169.573 141.744C169.661 141.545 169.901 141.451 170.111 141.534L169.957 141.884C170.111 141.534 170.111 141.534 170.111 141.534H170.11L170.112 141.534L170.121 141.538C170.13 141.541 170.144 141.546 170.162 141.553C170.199 141.566 170.255 141.585 170.326 141.607C170.469 141.652 170.672 141.708 170.91 141.755C171.394 141.849 171.979 141.893 172.486 141.749C172.999 141.603 173.393 141.308 173.663 141.038C173.797 140.905 173.897 140.781 173.963 140.691C173.996 140.647 174.02 140.612 174.035 140.589C174.042 140.577 174.048 140.569 174.051 140.564L174.054 140.559L174.053 140.56C174.164 140.371 174.414 140.303 174.612 140.408ZM174.054 140.559L174.054 140.559L174.054 140.559Z" fill="#171625"/>
<path fill-rule="evenodd" clip-rule="evenodd" d="M166.742 144.178C166.54 144.279 166.463 144.515 166.572 144.705L169.976 150.656L167.488 150.902C167.26 150.925 167.095 151.116 167.119 151.33C167.143 151.544 167.347 151.698 167.576 151.676L170.678 151.369C170.816 151.355 170.937 151.279 171.002 151.164C171.067 151.05 171.066 150.913 171.001 150.799L167.305 144.337C167.196 144.148 166.944 144.077 166.742 144.178Z" fill="#CD764F"/>
<path fill-rule="evenodd" clip-rule="evenodd" d="M161.4 154.017C161.217 154.135 161.187 154.353 161.332 154.502L161.651 154.295C161.332 154.502 161.332 154.502 161.332 154.502L161.332 154.503L161.334 154.504L161.337 154.508C161.341 154.511 161.345 154.515 161.35 154.52C161.361 154.531 161.376 154.546 161.396 154.565C161.435 154.603 161.492 154.656 161.564 154.719C161.709 154.847 161.918 155.019 162.178 155.201C162.689 155.558 163.432 155.976 164.289 156.124C165.122 156.27 165.812 156.198 166.297 156.086C166.54 156.031 166.731 155.966 166.865 155.913C166.932 155.886 166.984 155.863 167.022 155.845C167.041 155.836 167.056 155.828 167.067 155.823C167.073 155.82 167.077 155.817 167.081 155.815L167.086 155.813L167.088 155.812L167.088 155.811L167.089 155.811C167.089 155.811 167.089 155.811 166.854 155.524L167.089 155.811C167.283 155.705 167.336 155.491 167.206 155.332C167.077 155.174 166.815 155.131 166.621 155.236L166.619 155.237C166.615 155.239 166.608 155.242 166.598 155.247C166.577 155.257 166.542 155.273 166.495 155.291C166.401 155.329 166.257 155.379 166.069 155.422C165.694 155.507 165.145 155.567 164.465 155.449C163.809 155.335 163.195 155.003 162.728 154.676C162.498 154.516 162.312 154.362 162.185 154.25C162.121 154.194 162.072 154.148 162.04 154.117C162.024 154.102 162.012 154.09 162.004 154.082L161.996 154.074L161.995 154.073C161.85 153.923 161.583 153.898 161.4 154.017Z" fill="#DB3915"/>
<path d="M142.09 146.567H142.089C141.864 146.599 141.656 146.437 141.625 146.205C141.593 145.973 141.751 145.759 141.976 145.727L142.033 146.147C141.976 145.727 141.976 145.727 141.976 145.727L141.979 145.727L141.984 145.726L142.003 145.724C142.019 145.722 142.041 145.718 142.071 145.715C142.129 145.708 142.213 145.699 142.317 145.689C142.524 145.67 142.812 145.649 143.136 145.643C143.769 145.631 144.603 145.675 145.238 145.943C145.683 146.131 146.074 146.445 146.41 146.804C147.049 147.485 147.543 148.383 147.873 149.09C148.04 149.447 148.169 149.764 148.256 149.991C148.299 150.105 148.333 150.197 148.355 150.261C148.366 150.293 148.375 150.318 148.381 150.335L148.388 150.356L148.39 150.361L148.39 150.363L148.391 150.364C148.463 150.586 148.347 150.826 148.131 150.901C147.915 150.976 147.681 150.857 147.609 150.635L147.609 150.634L147.608 150.631L147.602 150.615C147.597 150.6 147.59 150.578 147.579 150.55C147.559 150.492 147.529 150.407 147.488 150.301C147.407 150.089 147.286 149.792 147.13 149.457C146.838 148.832 146.433 148.099 145.94 147.53C145.918 147.531 145.895 147.533 145.869 147.535C145.708 147.545 145.485 147.563 145.235 147.596C144.721 147.663 144.148 147.783 143.767 147.983C143.564 148.09 143.309 148.275 143.092 148.447C142.987 148.53 142.896 148.606 142.831 148.661C142.799 148.689 142.773 148.711 142.756 148.726C142.747 148.734 142.741 148.739 142.736 148.743L142.732 148.747L142.731 148.748C142.559 148.901 142.298 148.882 142.149 148.705C142 148.528 142.019 148.261 142.191 148.107L142.193 148.105L142.199 148.099C142.205 148.095 142.212 148.088 142.222 148.079C142.242 148.062 142.27 148.038 142.305 148.008C142.376 147.948 142.474 147.866 142.589 147.775C142.813 147.598 143.117 147.372 143.392 147.228C143.872 146.975 144.506 146.843 145.018 146.77C144.987 146.755 144.956 146.741 144.925 146.728C144.456 146.53 143.767 146.48 143.15 146.491C142.851 146.496 142.584 146.515 142.392 146.533C142.296 146.542 142.219 146.551 142.167 146.557C142.141 146.56 142.121 146.563 142.108 146.565L142.093 146.567L142.09 146.567Z" fill="#CD764F"/>
<path d="M148.216 159.536C147.554 157.56 145.417 156.495 143.441 157.157C141.466 157.818 140.401 159.956 141.062 161.931C141.723 163.906 143.861 164.972 145.836 164.31C147.812 163.649 148.877 161.511 148.216 159.536Z" fill="white"/>
<path d="M146.069 155.727C145.805 154.937 144.95 154.511 144.16 154.775C143.37 155.04 142.943 155.895 143.208 156.685C143.472 157.475 144.327 157.901 145.118 157.637C145.908 157.372 146.334 156.517 146.069 155.727Z" fill="white"/>
<path d="M172.617 121.957L153.318 119.229L143.129 125.396L143.369 138.914L149.123 144.132L148.164 139.27C148.164 139.27 150.008 134.396 154.157 136.068C163.866 139.981 163.256 130.765 167.343 129.665C171.017 128.675 176.333 129.665 176.333 129.665L172.617 121.957Z" fill="#171625"/>
<path fill-rule="evenodd" clip-rule="evenodd" d="M179.351 178.229C174.8 185.413 166.913 190.164 157.945 190.164C147.721 190.164 138.901 183.988 134.829 175.071L179.351 178.229Z" fill="#DD9576"/>
<path d="M151.692 177.843L149.434 177.428C146.387 176.867 143.494 178.919 143.193 181.854L140.887 204.306C140.656 206.562 142.304 208.602 144.657 208.971C146.964 209.333 149.183 207.965 149.776 205.814L155.785 184.023C156.556 181.226 154.679 178.392 151.692 177.843Z" fill="#FBC3DE"/>
<path d="M131.368 204.387C135.962 195.13 132.182 183.902 122.925 179.308C113.669 174.714 102.44 178.494 97.8464 187.751L70.7957 242.257C66.2017 251.514 69.9816 262.742 79.2384 267.336C88.4952 271.93 99.7235 268.15 104.318 258.893L131.368 204.387Z" fill="url(#paint6_linear_54_3052)"/>
<path d="M151.43 184.127C156.432 184.127 160.486 179.903 160.486 174.694C160.486 169.484 156.432 165.261 151.43 165.261C146.429 165.261 142.375 169.484 142.375 174.694C142.375 179.903 146.429 184.127 151.43 184.127Z" fill="#DCE1F2"/>
<path fill-rule="evenodd" clip-rule="evenodd" d="M123.846 207.162L131.088 190.035C132.308 187.151 135.26 185.383 138.39 185.665L164.503 188.015C165.572 188.113 166.132 189.329 165.507 190.198C165.28 190.517 164.929 190.721 164.541 190.768L158.311 191.501L161.522 191.809C162.759 191.926 163.554 193.171 163.136 194.338C162.848 195.142 162.058 195.654 161.205 195.594L159.025 195.436L161.727 196.398C162.452 196.657 162.922 197.357 162.881 198.126C162.834 199.028 162.098 199.744 161.19 199.769L160.115 199.802C161.011 200.502 160.775 201.911 159.699 202.284L148.118 206.301C146.241 206.953 144.959 208.683 144.89 210.662L144.665 217.082C144.624 218.235 144.169 219.333 143.381 220.178L135.147 229.008C134.862 229.376 134.552 229.733 134.218 230.076L100.845 264.468C94.5413 270.965 84.1164 271.052 77.7032 264.664C70.7421 257.728 71.533 246.266 79.3813 240.347L117.441 211.634C117.867 211.253 118.324 210.893 118.814 210.563L123.846 207.162Z" fill="#DD9576"/>
<path fill-rule="evenodd" clip-rule="evenodd" d="M147.657 191.359C147.657 191.118 147.842 190.918 148.07 190.918H157.867C158.095 190.918 158.279 191.118 158.279 191.359C158.279 191.604 158.095 191.801 157.867 191.801H148.07C147.842 191.801 147.657 191.604 147.657 191.359ZM148.625 195.501C148.625 195.257 148.81 195.06 149.037 195.06H158.23C158.458 195.06 158.643 195.257 158.643 195.501C158.643 195.742 158.458 195.942 158.23 195.942H149.037C148.81 195.942 148.625 195.742 148.625 195.501ZM148.625 200.287C148.625 200.043 148.81 199.846 149.037 199.846H159.319C159.546 199.846 159.731 200.043 159.731 200.287C159.731 200.531 159.546 200.728 159.319 200.728H149.037C148.81 200.728 148.625 200.531 148.625 200.287Z" fill="#CD764F"/>
<path fill-rule="evenodd" clip-rule="evenodd" d="M141.622 185.964C141.639 185.767 141.826 185.621 142.039 185.637L162.395 187.186C162.608 187.202 162.766 187.376 162.749 187.572C162.731 187.77 162.544 187.916 162.331 187.898L141.975 186.35C141.763 186.333 141.604 186.161 141.622 185.964Z" fill="#171625"/>
<path fill-rule="evenodd" clip-rule="evenodd" d="M226.1 130.783C226.193 130.986 226.107 131.227 225.906 131.322L219.495 134.35L220.315 138.728L222.904 149.669C222.955 149.886 222.822 150.105 222.607 150.158C222.392 150.21 222.175 150.075 222.124 149.857L219.53 138.898L218.591 133.882L225.567 130.587C225.767 130.492 226.006 130.58 226.1 130.783Z" fill="#FBC3DE"/>
<path d="M222.937 149.057C223.693 150.984 222.021 153.552 219.204 154.791C216.387 156.031 213.491 155.473 212.736 153.545C211.98 151.617 213.652 149.05 216.469 147.81C219.286 146.571 222.182 147.129 222.937 149.057Z" fill="#FBC3DE"/>
<path fill-rule="evenodd" clip-rule="evenodd" d="M60.1603 188.886C60.0643 189.087 60.1532 189.329 60.3583 189.423L64.4792 191.31L63.9612 193.995L62.2561 200.986C62.2034 201.203 62.3393 201.421 62.5594 201.472C62.7799 201.523 63.0014 201.391 63.0539 201.174L64.7639 194.164L65.4039 190.846L60.7054 188.692C60.5002 188.598 60.256 188.684 60.1603 188.886Z" fill="#97F7F5"/>
<path d="M62.5019 200.432C62.0164 201.658 63.0909 203.294 64.9019 204.082C66.7129 204.87 68.5746 204.514 69.0602 203.288C69.5457 202.062 68.4712 200.426 66.6602 199.638C64.8491 198.85 62.9875 199.206 62.5019 200.432Z" fill="#97F7F5"/>
<path d="M108.417 121.871C108.417 141.25 92.7069 156.96 73.3275 156.96C53.9481 156.96 38.2378 141.25 38.2378 121.871C38.2378 102.491 53.9481 86.781 73.3275 86.781C92.7069 86.781 108.417 102.491 108.417 121.871Z" fill="#DCE1F2"/>
<path d="M89.5516 121.871C89.5516 130.831 82.2877 138.095 73.3273 138.095C64.3669 138.095 57.103 130.831 57.103 121.871C57.103 112.91 64.3669 105.646 73.3273 105.646C82.2877 105.646 89.5516 112.91 89.5516 121.871Z" fill="white"/>
<path d="M76.5762 121.493C77.1264 121.493 77.5837 121.895 77.4559 122.371C77.275 123.043 76.8881 123.665 76.329 124.161C75.5328 124.869 74.4531 125.266 73.327 125.266C72.2013 125.266 71.1216 124.869 70.3254 124.161C69.7663 123.665 69.3794 123.043 69.1985 122.371C69.0704 121.895 69.528 121.493 70.0782 121.493H73.327H76.5762Z" fill="#DCE1F2"/>
<path d="M67.6677 118.475C67.6677 119.308 67.1609 119.984 66.5357 119.984C65.9105 119.984 65.4038 119.308 65.4038 118.475C65.4038 117.641 65.9105 116.966 66.5357 116.966C67.1609 116.966 67.6677 117.641 67.6677 118.475Z" fill="#DCE1F2"/>
<path d="M82.0053 118.475C82.0053 119.308 81.3297 119.984 80.4962 119.984C79.6627 119.984 78.9868 119.308 78.9868 118.475C78.9868 117.641 79.6627 116.966 80.4962 116.966C81.3297 116.966 82.0053 117.641 82.0053 118.475Z" fill="#DCE1F2"/>
<path d="M346.122 64.5198C346.122 83.8992 330.58 99.6095 311.409 99.6095C292.239 99.6095 276.697 83.8992 276.697 64.5198C276.697 45.1404 292.239 29.4301 311.409 29.4301C330.58 29.4301 346.122 45.1404 346.122 64.5198Z" fill="#FFB99B"/>
<path d="M327.256 64.5198C327.256 73.4802 320.162 80.7441 311.411 80.7441C302.657 80.7441 295.562 73.4802 295.562 64.5198C295.562 55.5594 302.657 48.2955 311.411 48.2955C320.162 48.2955 327.256 55.5594 327.256 64.5198Z" fill="white"/>
<path fill-rule="evenodd" clip-rule="evenodd" d="M304.739 58.228C304.9 58.0646 305.161 58.0646 305.319 58.228L306.762 59.6964C306.921 59.8597 306.921 60.1243 306.762 60.2876L305.319 61.756C305.161 61.9194 304.9 61.9194 304.739 61.756C304.577 61.593 304.577 61.3282 304.739 61.1651L305.892 59.9922L304.739 58.8192C304.577 58.6559 304.577 58.391 304.739 58.228Z" fill="#FFB99B"/>
<path fill-rule="evenodd" clip-rule="evenodd" d="M318.08 58.228C317.921 58.0646 317.661 58.0646 317.499 58.228L316.056 59.6964C315.897 59.8598 315.897 60.1243 316.056 60.2876L317.499 61.756C317.661 61.9194 317.921 61.9194 318.08 61.756C318.241 61.593 318.241 61.3282 318.08 61.1648L316.927 59.9919L318.08 58.8189C318.241 58.6558 318.241 58.391 318.08 58.228Z" fill="#FFB99B"/>
<path d="M314.362 62.6332C314.861 62.6332 315.278 63.0349 315.162 63.5105C314.998 64.1829 314.645 64.8042 314.138 65.3013C313.414 66.0088 312.433 66.4063 311.409 66.4063C310.385 66.4063 309.404 66.0088 308.679 65.3013C308.173 64.8042 307.82 64.1829 307.655 63.5105C307.539 63.0349 307.957 62.6332 308.456 62.6332H311.409H314.362Z" fill="#FFB99B"/>
<path d="M221.61 55.8417C223.694 55.8417 225.383 54.1524 225.383 52.0686C225.383 49.9848 223.694 48.2955 221.61 48.2955C219.526 48.2955 217.837 49.9848 217.837 52.0686C217.837 54.1524 219.526 55.8417 221.61 55.8417Z" fill="#FBC3DE"/>
<path d="M329.52 229.404C332.437 229.404 334.802 227.039 334.802 224.121C334.802 221.204 332.437 218.839 329.52 218.839C326.603 218.839 324.238 221.204 324.238 224.121C324.238 227.039 326.603 229.404 329.52 229.404Z" fill="#FBF7B8"/>
<path d="M359.327 245.251C361.203 245.251 362.723 243.73 362.723 241.855C362.723 239.979 361.203 238.459 359.327 238.459C357.452 238.459 355.932 239.979 355.932 241.855C355.932 243.73 357.452 245.251 359.327 245.251Z" fill="#BCECFF"/>
<path d="M499.687 70.934C501.979 70.934 503.837 69.0758 503.837 66.7836C503.837 64.4914 501.979 62.6332 499.687 62.6332C497.394 62.6332 495.536 64.4914 495.536 66.7836C495.536 69.0758 497.394 70.934 499.687 70.934Z" fill="#97F7F5"/>
<path d="M20.5042 180.354C22.3796 180.354 23.9 178.833 23.9 176.958C23.9 175.082 22.3796 173.562 20.5042 173.562C18.6287 173.562 17.1084 175.082 17.1084 176.958C17.1084 178.833 18.6287 180.354 20.5042 180.354Z" fill="#C2BBFF"/>
<path d="M253.681 228.649C256.807 228.649 259.341 225.946 259.341 222.612C259.341 219.278 256.807 216.575 253.681 216.575C250.555 216.575 248.021 219.278 248.021 222.612C248.021 225.946 250.555 228.649 253.681 228.649Z" fill="#FFB99B"/>
<defs>
<linearGradient id="paint0_linear_54_3052" x1="659.683" y1="276.122" x2="513.743" y2="302.608" gradientUnits="userSpaceOnUse">
<stop stop-color="#FBF7B8"/>
<stop offset="1" stop-color="#F7CDE1"/>
</linearGradient>
<linearGradient id="paint1_linear_54_3052" x1="578.709" y1="321.431" x2="440.618" y2="252.402" gradientUnits="userSpaceOnUse">
<stop stop-color="#FBF7B8"/>
<stop offset="1" stop-color="#F7CDE1"/>
</linearGradient>
<linearGradient id="paint2_linear_54_3052" x1="354.529" y1="85.8593" x2="482.982" y2="115.776" gradientUnits="userSpaceOnUse">
<stop stop-color="#FBF7B8"/>
<stop offset="1" stop-color="#F7CDE1"/>
</linearGradient>
<linearGradient id="paint3_linear_54_3052" x1="299.99" y1="50.2749" x2="277.409" y2="144.659" gradientUnits="userSpaceOnUse">
<stop stop-color="#FBF7B8"/>
<stop offset="1" stop-color="#F7CDE1"/>
</linearGradient>
<linearGradient id="paint4_linear_54_3052" x1="10.4155" y1="244.619" x2="122.087" y2="328.898" gradientUnits="userSpaceOnUse">
<stop stop-color="#97F7F5"/>
<stop offset="1" stop-color="#FBF7B8"/>
</linearGradient>
<linearGradient id="paint5_linear_54_3052" x1="41.2759" y1="143.126" x2="233.401" y2="220.166" gradientUnits="userSpaceOnUse">
<stop stop-color="#97F7F5"/>
<stop offset="1" stop-color="#FBF7B8"/>
</linearGradient>
<linearGradient id="paint6_linear_54_3052" x1="84.7395" y1="101.065" x2="224.41" y2="154.141" gradientUnits="userSpaceOnUse">
<stop stop-color="#97F7F5"/>
<stop offset="1" stop-color="#FBF7B8"/>
</linearGradient>
</defs>
</svg>
