<svg width="444" height="347" viewBox="0 0 444 347" fill="none" xmlns="http://www.w3.org/2000/svg">
<path d="M116.481 72.4964C116.481 70.2356 118.313 68.4028 120.573 68.4028H169.272C171.533 68.4028 173.365 70.2356 173.365 72.4964C173.365 74.7572 171.533 76.59 169.272 76.59H120.573C118.313 76.59 116.481 74.7572 116.481 72.4964Z" fill="#FBC3DE"/>
<path fill-rule="evenodd" clip-rule="evenodd" d="M144.417 72.9353C139.165 73.3397 134.75 77.1707 133.662 82.4017L118.114 157.192C118.01 157.69 117.522 158.011 117.023 157.907C116.525 157.803 116.204 157.315 116.308 156.816L131.857 82.0259C133.185 75.6356 138.815 71.0549 145.34 71.0549C151.099 71.0549 156.13 74.9514 157.572 80.529L177.282 156.773C177.409 157.266 177.113 157.769 176.62 157.897C176.127 158.024 175.624 157.728 175.496 157.235L155.786 80.9912C154.632 76.528 150.788 73.3253 146.262 72.939V157.004C146.262 157.513 145.849 157.926 145.34 157.926C144.831 157.926 144.417 157.513 144.417 157.004V72.9353Z" fill="#FBC3DE"/>
<path d="M125.385 29.0876C125.385 28.3216 126.006 27.7004 126.772 27.7004H134.631C135.397 27.7004 136.018 28.3216 136.018 29.0876V33.2497C136.018 34.0161 135.397 34.6372 134.631 34.6372H126.772C126.006 34.6372 125.385 34.0161 125.385 33.2497V29.0876Z" fill="#FBF7B8"/>
<path d="M165.761 31.3997C165.761 30.6334 166.382 30.0122 167.147 30.0122H170.692C171.458 30.0122 172.079 30.6334 172.079 31.3997V33.2497C172.079 34.0157 171.458 34.6368 170.692 34.6368H167.147C166.382 34.6368 165.761 34.0157 165.761 33.2493V31.3997Z" fill="#FBF7B8"/>
<path d="M115.06 34.582C115.06 33.3351 116.07 32.3246 117.316 32.3246H135.811C136.435 32.3246 137.031 32.0663 137.457 31.6112L141.899 26.8719C142.326 26.4168 142.922 26.1584 143.545 26.1584H154.747C155.427 26.1584 156.07 26.4647 156.499 26.9924L160.152 31.4907C160.581 32.0183 161.224 32.3246 161.904 32.3246H172.134C173.381 32.3246 174.391 33.3351 174.391 34.582V65.9852C174.391 67.2318 173.381 68.2426 172.134 68.2426H117.316C116.07 68.2426 115.06 67.2318 115.06 65.9852V34.582Z" fill="#BCECFF"/>
<path d="M115.06 33.6571C115.06 32.4101 116.07 31.3997 117.316 31.3997H128.676C129.922 31.3997 130.933 32.4101 130.933 33.6571V67.0642C130.933 68.3109 129.922 69.3213 128.676 69.3213H117.316C116.07 69.3213 115.06 68.3109 115.06 67.0642V33.6571Z" fill="#C2BBFF"/>
<path d="M161.754 50.2835C161.754 57.1369 156.2 62.693 149.348 62.693C142.497 62.693 136.942 57.1369 136.942 50.2835C136.942 43.43 142.497 37.8743 149.348 37.8743C156.2 37.8743 161.754 43.43 161.754 50.2835Z" fill="#FBC3DE"/>
<path d="M159.904 50.2834C159.904 56.1153 155.178 60.843 149.348 60.843C143.518 60.843 138.792 56.1153 138.792 50.2834C138.792 44.4515 143.518 39.7239 149.348 39.7239C155.178 39.7239 159.904 44.4515 159.904 50.2834Z" fill="white"/>
<path d="M327.792 165.46H430.776V341.97C430.776 343.668 429.399 345.045 427.702 345.045H330.866C329.169 345.045 327.792 343.668 327.792 341.97V165.46Z" fill="#DCE1F2"/>
<path d="M82.4731 161.77C82.4731 159.222 84.5378 157.157 87.0844 157.157H438.462C441.01 157.157 443.073 159.222 443.073 161.77V171.303C443.073 173.85 441.01 175.915 438.462 175.915H87.0844C84.5378 175.915 82.4731 173.85 82.4731 171.303V161.77Z" fill="#DCE1F2"/>
<path fill-rule="evenodd" clip-rule="evenodd" d="M420.632 190.368H337.936C336.75 190.368 335.785 191.332 335.785 192.521V244.49C335.785 245.68 336.75 246.642 337.936 246.642H420.632C421.821 246.642 422.784 245.68 422.784 244.49V192.521C422.784 191.332 421.821 190.368 420.632 190.368ZM337.936 189.446C336.24 189.446 334.862 190.823 334.862 192.521V244.49C334.862 246.187 336.24 247.565 337.936 247.565H420.632C422.329 247.565 423.706 246.187 423.706 244.49V192.521C423.706 190.823 422.329 189.446 420.632 189.446H337.936Z" fill="white"/>
<path fill-rule="evenodd" clip-rule="evenodd" d="M420.632 257.713H337.936C336.75 257.713 335.785 258.675 335.785 259.865V311.834C335.785 313.024 336.75 313.987 337.936 313.987H420.632C421.821 313.987 422.784 313.024 422.784 311.834V259.865C422.784 258.675 421.821 257.713 420.632 257.713ZM337.936 256.79C336.24 256.79 334.862 258.168 334.862 259.865V311.834C334.862 313.532 336.24 314.909 337.936 314.909H420.632C422.329 314.909 423.706 313.532 423.706 311.834V259.865C423.706 258.168 422.329 256.79 420.632 256.79H337.936Z" fill="white"/>
<path fill-rule="evenodd" clip-rule="evenodd" d="M332.403 176.223C332.403 175.968 332.609 175.762 332.864 175.762H428.471C428.726 175.762 428.932 175.968 428.932 176.223C428.932 176.478 428.726 176.684 428.471 176.684H332.864C332.609 176.684 332.403 176.478 332.403 176.223Z" fill="white"/>
<path d="M385.279 201.439C385.279 204.665 382.665 207.281 379.438 207.281C376.213 207.281 373.597 204.665 373.597 201.439C373.597 198.212 376.213 195.596 379.438 195.596C382.665 195.596 385.279 198.212 385.279 201.439Z" fill="white"/>
<path d="M385.279 268.783C385.279 272.009 382.665 274.626 379.438 274.626C376.213 274.626 373.597 272.009 373.597 268.783C373.597 265.557 376.213 262.94 379.438 262.94C382.665 262.94 385.279 265.557 385.279 268.783Z" fill="white"/>
<path d="M232.425 63.8155C231.973 60.1469 234.832 56.9094 238.527 56.9094H279.014C282.115 56.9094 284.732 59.2228 285.113 62.3037L295.888 149.329C296.343 152.997 293.481 156.235 289.786 156.235H249.302C246.197 156.235 243.581 153.921 243.199 150.84L232.425 63.8155Z" fill="#FBF7B8"/>
<path d="M185.15 32.9236C185.15 29.5269 187.904 26.7734 191.298 26.7734H340.396C343.792 26.7734 346.544 29.5269 346.544 32.9236V119.949C346.544 123.345 343.792 126.099 340.396 126.099H191.298C187.904 126.099 185.15 123.345 185.15 119.949V32.9236Z" fill="#FBF7B8"/>
<path d="M239.102 125.792H292.131" stroke="white" stroke-width="3" stroke-linecap="round"/>
<path d="M185.15 32.9236C185.15 29.5269 187.904 26.7734 191.298 26.7734H340.396C343.792 26.7734 346.544 29.5269 346.544 32.9236V106.726H185.15V32.9236Z" fill="#FBC3DE"/>
<path d="M270.919 143.319H290.815C299.478 143.319 307.152 148.91 309.808 157.157H270.919V143.319Z" fill="#171625"/>
<path d="M66.948 36.9216C68.0661 55.3715 86.3882 69.671 99.561 69.671C112.734 69.671 121.515 51.6067 121.515 39.0514C121.515 26.4961 115.674 15.396 101.225 13.2431C86.7764 11.0906 65.7183 16.626 66.948 36.9216Z" fill="#744F3A"/>
<path fill-rule="evenodd" clip-rule="evenodd" d="M123.408 33.1812C121.177 24.8523 112.619 19.9097 104.293 22.1413C95.9662 24.3729 91.0251 32.9339 93.256 41.2628L93.77 43.1814C91.8705 42.1527 89.6464 41.8954 87.567 42.6558C83.4817 44.1494 81.5016 49.004 83.1439 53.4992C84.5457 57.3354 88.1332 59.67 91.6941 59.3431L88.2799 84.4571C87.7287 88.5103 90.8791 92.1193 94.9687 92.1193H103.949C107.678 92.1193 110.7 89.0961 110.7 85.3667V70.2443C112.767 70.5592 114.932 70.4611 117.082 69.8851C125.408 67.6535 130.349 59.0925 128.118 50.7636L123.408 33.1812Z" fill="#F9E0CE"/>
<path d="M93.9359 54.6569C93.9359 54.6569 93.7687 52.0065 92.7659 50.1925M88.2807 47.8296C88.2807 47.8296 90.6413 48.1239 91.7908 49C92.1815 49.2976 92.5024 49.7165 92.7659 50.1925M92.7659 50.1925C92.7659 50.1925 90.8399 49.7195 89.6456 49.9754C89.0092 50.1116 88.0854 50.5606 88.0854 50.5606" stroke="#F1BFA9" stroke-width="3" stroke-linecap="round" stroke-linejoin="round"/>
<path fill-rule="evenodd" clip-rule="evenodd" d="M120.295 39.0471C119.795 39.1471 119.471 39.6333 119.571 40.1327L120.033 42.443C120.133 42.9424 120.619 43.2665 121.118 43.1665C121.618 43.0666 121.942 42.5804 121.842 42.081L121.38 39.771C121.28 39.2713 120.794 38.9472 120.295 39.0471Z" fill="#171625"/>
<path fill-rule="evenodd" clip-rule="evenodd" d="M119.594 50.7822C119.36 50.8834 119.252 51.1549 119.353 51.3886L119.777 51.2057C119.353 51.3886 119.353 51.3886 119.353 51.3886L119.354 51.3899L119.355 51.3917L119.357 51.3969C119.359 51.4012 119.362 51.4071 119.365 51.4145C119.372 51.4292 119.381 51.4498 119.393 51.4757C119.418 51.5276 119.454 51.6005 119.501 51.6894C119.594 51.8668 119.733 52.11 119.915 52.3754C120.273 52.8973 120.826 53.5476 121.569 53.9265C122.288 54.293 122.941 54.3825 123.42 54.3767C123.659 54.3739 123.855 54.3475 123.995 54.3207C124.064 54.3072 124.121 54.2937 124.161 54.2826C124.181 54.2771 124.198 54.2721 124.21 54.2684C124.217 54.2666 124.222 54.2648 124.226 54.2635L124.232 54.2617L124.234 54.2611L124.235 54.2608L124.235 54.2605C124.235 54.2605 124.236 54.2605 124.088 53.8235L124.236 54.2605C124.477 54.1783 124.606 53.9167 124.524 53.6753C124.442 53.4342 124.181 53.305 123.94 53.3865H123.94L123.941 53.3862L123.942 53.3859L123.943 53.3856C123.943 53.3856 123.943 53.3856 123.941 53.3862C123.938 53.3871 123.931 53.389 123.921 53.3917C123.9 53.3973 123.867 53.4059 123.82 53.4148C123.728 53.4326 123.587 53.452 123.41 53.4542C123.056 53.4585 122.554 53.3936 121.988 53.1045C121.445 52.8278 120.998 52.3231 120.676 51.8539C120.518 51.6239 120.397 51.4123 120.317 51.2592C120.276 51.1826 120.246 51.1211 120.227 51.0799C120.217 51.0593 120.21 51.0439 120.205 51.0341L120.2 51.0236L120.2 51.0224V51.0221C120.099 50.7884 119.827 50.6811 119.594 50.7822Z" fill="#DB3915"/>
<path d="M129.938 46.3668L124.2 37.0259L126 48.5049L129.938 46.3668Z" fill="#F9E0CE"/>
<path d="M104.287 68.0872L110.699 70.2253V76.6402L104.287 68.0872Z" fill="#171625"/>
<path d="M113.062 33.987C119.902 29.8458 120.608 26.8014 117.225 23.8586C114.637 21.6076 102.824 18.3443 95.2857 22.1707C90.1617 24.7716 87.8604 27.4598 87.8604 27.4598C87.8604 27.4598 90.2232 39.1639 91.573 41.0772C92.9232 42.9906 98.2071 45.8359 101.249 50.0805C101.249 42.9906 98.4137 42.2928 98.3236 40.402C98.2111 38.0387 104.511 39.1639 113.062 33.987Z" fill="#744F3A"/>
<path d="M49.9663 114.067C48.9954 116.95 48.4175 119.951 48.2484 122.988L44.5068 190.215L141.036 186.525L132.045 148.571C131.484 146.416 131.261 144.186 131.384 141.963L133.427 104.999C134.137 92.158 123.919 81.3564 111.063 81.3564H89.0823L80.5395 82.0732C70.8276 82.8878 61.9392 87.8547 56.1533 95.6999L49.9663 114.067Z" fill="url(#paint0_linear_140_212)"/>
<path d="M98.4589 92.7721C104.402 82.4764 117.563 78.9486 127.855 84.8928L175.776 112.568C186.069 118.512 189.595 131.678 183.653 141.974C177.71 152.269 164.549 155.797 154.257 149.853L106.336 122.177C96.0429 116.233 92.5165 103.068 98.4589 92.7721Z" fill="url(#paint1_linear_140_212)"/>
<path d="M266.462 142.704L251.398 139.168L245.521 138.277C242.96 137.889 240.43 139.147 239.197 141.423L235.748 147.773C233.716 151.517 236.012 156.145 240.221 156.788L242.637 157.157H296.051C296.884 157.157 297.25 156.105 296.592 155.59C296.49 155.508 296.371 155.451 296.241 155.423L282.758 152.442C282.469 152.378 282.429 151.978 282.703 151.859L291.615 147.989C292.765 147.49 294.099 147.738 294.993 148.616L301.855 155.36C302.227 155.728 302.713 155.964 303.232 156.031C305.03 156.263 306.429 154.498 305.793 152.8L304.428 149.162L307.693 153.865C308.012 154.324 308.643 154.437 309.101 154.116C309.51 153.831 309.648 153.292 309.43 152.845L303.383 140.487C302.974 139.653 302.211 139.048 301.308 138.841L287.388 135.662C284.686 135.045 281.857 135.359 279.355 136.552L266.462 142.704Z" fill="#F9E0CE"/>
<path fill-rule="evenodd" clip-rule="evenodd" d="M241.561 157.157C241.561 156.903 241.767 156.696 242.022 156.696H293.053C293.309 156.696 293.515 156.903 293.515 157.157C293.515 157.412 293.309 157.619 293.053 157.619H242.022C241.767 157.619 241.561 157.412 241.561 157.157Z" fill="#171625"/>
<path fill-rule="evenodd" clip-rule="evenodd" d="M294.301 140.576C294.375 140.331 294.63 140.192 294.876 140.263L300.102 141.801C300.21 141.832 300.302 141.902 300.361 141.998L305.587 150.3C305.722 150.516 305.657 150.801 305.442 150.937C305.227 151.072 304.941 151.008 304.806 150.792L299.675 142.637L294.615 141.148C294.369 141.077 294.231 140.82 294.301 140.576ZM293.229 144.258C293.305 144.015 293.564 143.88 293.807 143.956L298.725 145.493C298.824 145.524 298.91 145.588 298.968 145.675L305.116 154.746C305.261 154.957 305.206 155.244 304.993 155.387C304.784 155.53 304.499 155.475 304.354 155.264L298.295 146.326L293.53 144.836C293.287 144.76 293.152 144.502 293.229 144.258Z" fill="#F1BFA9"/>
<path d="M151.173 130.085C153.214 117.869 165.529 110.234 177.374 113.843L258.469 138.553L239.409 156.696L170.585 153.962C158.248 153.472 149.138 142.267 151.173 130.085Z" fill="url(#paint2_linear_140_212)"/>
<path fill-rule="evenodd" clip-rule="evenodd" d="M112.547 121.353C112.705 121.154 112.995 121.12 113.194 121.279L131.947 136.193C132.146 136.352 132.179 136.642 132.021 136.841C131.862 137.041 131.572 137.074 131.373 136.915L112.62 122.001C112.421 121.843 112.388 121.552 112.547 121.353Z" fill="#171625"/>
<path d="M327.404 333.793C322.209 332.035 306.894 317.812 298.068 307.664C293.942 302.916 287.243 299.592 281.037 300.589C272.435 301.969 267.612 311.268 271.436 319.098L281.999 340.706C282.605 341.949 283.85 342.745 285.23 342.776L354.528 344.347C355.579 344.372 356.391 343.418 356.197 342.382C356.077 341.73 355.585 341.214 354.94 341.063C347.949 339.449 334.177 336.087 327.404 333.793Z" fill="#171625"/>
<path d="M180.794 205.766C187.502 189.138 209.479 185.606 221.053 199.296L321.029 317.523H269.229L185.765 231.239C179.222 224.477 177.274 214.492 180.794 205.766Z" fill="#FFB99B"/>
<path d="M45.2116 216.537C44.4892 201.644 56.1038 189.048 71.0009 188.568L195.922 184.539C212.9 183.992 225.717 199.803 221.674 216.31C218.969 227.343 209.334 235.286 197.991 235.837L73.154 241.898C58.4364 242.614 45.9261 231.258 45.2116 216.537Z" fill="#FFB99B"/>
<path d="M250.159 332.72C245.287 331.192 236.338 318.793 230.322 308.928C226.593 302.815 219.359 298.977 212.319 300.272L211.868 300.355C203.552 301.88 198.215 310.066 200.17 318.292L205.28 339.818C205.676 341.481 207.161 342.656 208.87 342.656H277.513C278.568 342.656 279.358 341.687 279.14 340.654C279.004 340.005 278.503 339.501 277.852 339.366C270.827 337.908 256.981 334.861 250.159 332.72Z" fill="#171625"/>
<path d="M189.472 185.849C203.909 181.98 218.591 191.197 221.385 205.885L242.637 317.625H199.835L171.399 217.736C167.467 203.924 175.604 189.566 189.472 185.849Z" fill="#FFB99B"/>
<path fill-rule="evenodd" clip-rule="evenodd" d="M219.331 204.985C219.58 204.932 219.826 205.092 219.879 205.341L236.325 283.756C236.378 284.005 236.218 284.251 235.969 284.303C235.72 284.355 235.474 284.195 235.422 283.946L218.975 205.531C218.922 205.282 219.082 205.037 219.331 204.985Z" fill="#171625"/>
<path d="M76.3247 17.702L90.4659 42.1489L95.0772 37.5363L83.7027 14.4731C83.7027 14.4731 80.8693 15.2582 79.0915 16.1644C78.0367 16.7023 76.3247 17.702 76.3247 17.702Z" fill="#97F7F5"/>
<path fill-rule="evenodd" clip-rule="evenodd" d="M96.3592 52.2977C96.5283 51.817 97.0552 51.5649 97.5354 51.734L121.975 60.3442C122.456 60.5137 122.708 61.0404 122.539 61.5208C122.369 62.0014 121.843 62.2539 121.362 62.0844L96.9227 53.4742C96.4422 53.3051 96.1901 52.7783 96.3592 52.2977Z" fill="#97F7F5"/>
<path d="M107.989 48.7605C107.989 56.4878 101.726 62.7521 94.0012 62.7521C86.2761 62.7521 80.0137 56.4878 80.0137 48.7605C80.0137 41.0331 86.2761 34.7688 94.0012 34.7688C101.726 34.7688 107.989 41.0331 107.989 48.7605Z" fill="#97F7F5"/>
<path fill-rule="evenodd" clip-rule="evenodd" d="M37.4514 236.956H97.2182L118.731 345.789C118.83 346.288 118.505 346.773 118.005 346.872C117.505 346.97 117.02 346.647 116.921 346.146L95.703 238.801H38.9586L17.1283 346.152C17.0269 346.65 16.5399 346.973 16.0407 346.872C15.5417 346.77 15.2192 346.284 15.321 345.783L37.4514 236.956Z" fill="#FBC3DE"/>
<path fill-rule="evenodd" clip-rule="evenodd" d="M83.7175 235.88H143.484L164.997 344.713C165.096 345.211 164.771 345.697 164.271 345.796C163.771 345.894 163.286 345.571 163.187 345.07L141.969 237.725H85.2247L63.3944 345.076C63.293 345.574 62.806 345.897 62.3068 345.796C61.8078 345.694 61.4854 345.208 61.5871 344.707L83.7175 235.88Z" fill="#FBC3DE"/>
<path d="M1.06079 144.038L17.5832 229.2C18.0081 231.39 18.6235 233.57 19.867 235.421C23.7614 241.221 30.3297 244.797 37.4584 244.797H99.996L167.167 239.723C168.532 239.471 168.396 237.472 167.009 237.408L99.996 232.497L79.3378 135.454C77.2222 125.516 68.4479 118.411 58.2905 118.411H22.1859C8.65615 118.411 -1.51691 130.752 1.06079 144.038Z" fill="#FBF7B8"/>
<path d="M117.519 61.0607C117.519 59.787 118.551 58.7544 119.824 58.7544H123.206C124.479 58.7544 125.511 59.787 125.511 61.0607C125.511 62.3344 124.479 63.367 123.206 63.367H119.824C118.551 63.367 117.519 62.3344 117.519 61.0607Z" fill="#97F7F5"/>
<path d="M378.208 35.5376C378.208 54.6438 362.723 70.1324 343.624 70.1324C324.524 70.1324 309.039 54.6438 309.039 35.5376C309.039 16.4315 324.524 0.942871 343.624 0.942871C362.723 0.942871 378.208 16.4315 378.208 35.5376Z" fill="#DCE1F2"/>
<path d="M359.6 35.5379C359.6 44.3638 352.446 51.5182 343.623 51.5182C334.801 51.5182 327.647 44.3638 327.647 35.5379C327.647 26.7124 334.801 19.5576 343.623 19.5576C352.446 19.5576 359.6 26.7124 359.6 35.5379Z" fill="white"/>
<path d="M346.713 34.835C347.239 34.835 347.672 35.2652 347.552 35.7741C347.38 36.494 347.011 37.1591 346.479 37.6911C345.723 38.4485 344.696 38.8741 343.623 38.8741C342.554 38.8741 341.527 38.4485 340.771 37.6911C340.239 37.1591 339.87 36.494 339.698 35.7741C339.575 35.2652 340.011 34.835 340.534 34.835H343.623H346.713Z" fill="#DCE1F2"/>
<path d="M338.182 32.0251C338.182 32.7038 337.632 33.2542 336.952 33.2542C336.273 33.2542 335.723 32.7038 335.723 32.0251C335.723 31.3461 336.273 30.7957 336.952 30.7957C337.632 30.7957 338.182 31.3461 338.182 32.0251Z" fill="#DCE1F2"/>
<path d="M351.875 32.0251C351.875 32.7038 351.324 33.2542 350.645 33.2542C349.969 33.2542 349.418 32.7038 349.418 32.0251C349.418 31.3461 349.969 30.7957 350.645 30.7957C351.324 30.7957 351.875 31.3461 351.875 32.0251Z" fill="#DCE1F2"/>
<path d="M418.172 101.959C418.172 118.178 405.03 131.326 388.814 131.326C372.601 131.326 359.456 118.178 359.456 101.959C359.456 85.7404 372.601 72.5923 388.814 72.5923C405.03 72.5923 418.172 85.7404 418.172 101.959Z" fill="#FFB99B"/>
<path d="M395.411 91.4014C397.511 91.4014 399.524 92.2356 401.009 93.7206C402.494 95.2056 403.327 97.2197 403.327 99.3197V104.599C403.327 106.699 402.494 108.713 401.009 110.198C399.524 111.683 397.511 112.517 395.411 112.517H382.217C380.117 112.517 378.104 111.683 376.619 110.198C375.137 108.713 374.301 106.699 374.301 104.599V99.3197C374.301 97.2197 375.137 95.2056 376.619 93.7206C378.104 92.2356 380.117 91.4014 382.217 91.4014H395.411ZM386.176 97.9999H383.536V100.64H380.898V103.279H383.536V105.918H386.176L386.173 103.279H388.814V100.64H386.176V97.9999ZM396.73 103.279H394.092V105.918H396.73V103.279ZM394.092 97.9999H391.452V100.64H394.092V97.9999Z" fill="white"/>
<defs>
<linearGradient id="paint0_linear_140_212" x1="44.6605" y1="51.9893" x2="212.178" y2="107.146" gradientUnits="userSpaceOnUse">
<stop stop-color="#BCECFF"/>
<stop offset="1" stop-color="#C2BBFF"/>
</linearGradient>
<linearGradient id="paint1_linear_140_212" x1="53.1148" y1="21.546" x2="187.153" y2="232.775" gradientUnits="userSpaceOnUse">
<stop stop-color="#BCECFF"/>
<stop offset="1" stop-color="#C2BBFF"/>
</linearGradient>
<linearGradient id="paint2_linear_140_212" x1="14.38" y1="-19.3528" x2="285.86" y2="221.279" gradientUnits="userSpaceOnUse">
<stop stop-color="#BCECFF"/>
<stop offset="1" stop-color="#C2BBFF"/>
</linearGradient>
</defs>
</svg>
