<svg width="50" height="29" viewBox="0 0 50 29" fill="none" xmlns="http://www.w3.org/2000/svg">
<path d="M8.71733 28L0.674716 0.363636H8.05611L12.2259 18.473H12.4553L17.2188 0.363636H23.2372L28.0007 18.5135H28.2301L32.4134 0.363636H39.7812L31.7521 28H25.3153L20.3359 11.2401H20.12L15.1406 28H8.71733Z" fill="#111928"/>
<path d="M46.2518 28.3913C45.2802 28.3913 44.448 28.0495 43.7553 27.3658C43.0716 26.6821 42.7343 25.8544 42.7433 24.8828C42.7343 23.9292 43.0716 23.1151 43.7553 22.4403C44.448 21.7566 45.2802 21.4148 46.2518 21.4148C47.1694 21.4148 47.979 21.7566 48.6808 22.4403C49.3915 23.1151 49.7513 23.9292 49.7603 24.8828C49.7513 25.5305 49.5804 26.1198 49.2475 26.6506C48.9237 27.1813 48.4963 27.6042 47.9656 27.919C47.4438 28.2339 46.8725 28.3913 46.2518 28.3913Z" fill="#FE7747"/>
</svg>
