<svg width="559" height="626" viewBox="0 0 559 626" fill="none" xmlns="http://www.w3.org/2000/svg">
<path d="M52.5012 44.298C52.5012 20.1859 72.0424 0.638916 96.1473 0.638916H323.901C348.005 0.638916 367.547 20.1859 367.547 44.298V582.099C367.547 606.211 348.005 625.758 323.901 625.758H96.1473C72.0424 625.758 52.5012 606.211 52.5012 582.099V44.298Z" fill="#BCECFF"/>
<path d="M64.4048 55.808C64.4048 31.6959 83.9459 12.1489 108.051 12.1489H142.845C151.942 12.1489 160.571 16.1814 166.408 23.1606C172.246 30.1393 180.875 34.1718 189.972 34.1718H234.302C242.207 34.1718 249.52 29.9813 253.519 23.1606C257.519 16.3393 264.832 12.1489 272.74 12.1489H312.394C336.499 12.1489 356.04 31.6959 356.04 55.808V570.589C356.04 594.701 336.499 614.248 312.394 614.248H108.051C83.9459 614.248 64.4048 594.701 64.4048 570.589V55.808Z" fill="#FBC3DE"/>
<path d="M58.0564 49.8547C58.0564 25.7425 77.5976 6.19556 101.703 6.19556H143.22C152.103 6.19556 160.555 10.0291 166.408 16.7134C172.262 23.3976 180.713 27.2313 189.597 27.2313H234.726C242.394 27.2313 249.508 23.2488 253.52 16.7134C257.531 10.1781 264.649 6.19556 272.315 6.19556H318.346C342.45 6.19556 361.992 25.7425 361.992 49.8547V55.4113H58.0564V49.8547Z" fill="white"/>
<path d="M58.0564 55.4111H361.992V130.029H58.0564V55.4111Z" fill="white"/>
<path d="M58.0564 130.029H361.992V421.751H58.0564V130.029Z" fill="#DCE1F2"/>
<path d="M58.0564 421.751H361.992V576.542C361.992 600.654 342.45 620.202 318.346 620.202H101.703C77.5976 620.202 58.0564 600.654 58.0564 576.542V421.751Z" fill="white"/>
<path fill-rule="evenodd" clip-rule="evenodd" d="M70.3565 499.532C70.3628 497.341 72.1444 495.567 74.3358 495.574L348.116 496.38C350.307 496.388 352.08 498.17 352.072 500.361C352.064 502.552 350.283 504.326 348.093 504.318L74.3124 503.513C72.1213 503.505 70.3501 501.722 70.3565 499.532Z" fill="#F7CDE1"/>
<path fill-rule="evenodd" clip-rule="evenodd" d="M70.3564 524.548C70.3564 522.357 72.1328 520.579 74.3243 520.579H183.44C185.631 520.579 187.407 522.357 187.407 524.548C187.407 526.739 185.631 528.517 183.44 528.517H74.3243C72.1328 528.517 70.3564 526.739 70.3564 524.548Z" fill="#F7CDE1"/>
<path fill-rule="evenodd" clip-rule="evenodd" d="M70.3564 548.362C70.3564 546.171 72.1328 544.393 74.3243 544.393H266.367C268.557 544.393 270.335 546.171 270.335 548.362C270.335 550.553 268.557 552.331 266.367 552.331H74.3243C72.1328 552.331 70.3564 550.553 70.3564 548.362Z" fill="#F7CDE1"/>
<path fill-rule="evenodd" clip-rule="evenodd" d="M193.756 524.548C193.756 522.357 195.532 520.579 197.724 520.579H348.104C350.295 520.579 352.072 522.357 352.072 524.548C352.072 526.739 350.295 528.517 348.104 528.517H197.724C195.532 528.517 193.756 526.739 193.756 524.548Z" fill="#F7CDE1"/>
<path d="M139.408 449.955C138.873 449.776 138.868 449.49 139.418 449.308L158.983 442.783C159.525 442.604 159.836 442.906 159.684 443.438L154.093 463.005C153.94 463.549 153.627 463.568 153.397 463.053L150.035 455.484C149.837 455.039 149.895 454.519 150.189 454.126C151.127 452.876 149.489 451.34 148.239 452.277C147.881 452.547 147.41 452.626 146.986 452.483L139.408 449.955Z" fill="#FBC3DE"/>
<path d="M326.281 444.374C326.281 443.715 326.813 443.184 327.472 443.184H343.74C344.398 443.184 344.93 443.715 344.93 444.374V459.774C344.93 460.691 343.938 461.266 343.145 460.806L336.201 456.793C335.832 456.579 335.379 456.579 335.01 456.793L328.067 460.806C327.273 461.266 326.281 460.691 326.281 459.774V444.374Z" fill="#FBC3DE"/>
<path d="M89.2832 440.405C92.4174 440.405 94.9572 442.981 94.9572 446.585C94.9572 453.257 88.3305 457.282 85.2983 459.068C84.8912 459.31 84.3905 459.31 83.9834 459.068C80.9511 457.282 74.3245 453.257 74.3245 446.585C74.3245 442.981 76.9035 440.405 79.9985 440.405C81.9173 440.405 83.6092 441.433 84.6408 442.465C85.6725 441.433 87.3643 440.405 89.2832 440.405Z" fill="#FBC3DE"/>
<path d="M112.35 458.98L108.753 459.778C107.902 459.969 107.144 459.206 107.333 458.357L108.132 454.761C107.338 453.273 106.924 451.614 106.927 449.931C106.927 444.267 111.516 439.679 117.177 439.679C122.838 439.679 127.427 444.267 127.427 449.931C127.427 455.595 122.838 460.183 117.177 460.183C115.493 460.187 113.835 459.774 112.35 458.98Z" fill="#FBC3DE"/>
<path d="M128.287 92.72C128.287 107.626 116.207 119.709 101.306 119.709C86.4045 119.709 74.3245 107.626 74.3245 92.72C74.3245 77.8144 86.4045 65.7307 101.306 65.7307C116.207 65.7307 128.287 77.8144 128.287 92.72Z" fill="#C2BBFF"/>
<path fill-rule="evenodd" clip-rule="evenodd" d="M146.142 82.7974C146.142 80.6053 147.918 78.8284 150.11 78.8284H267.558C269.748 78.8284 271.525 80.6053 271.525 82.7974C271.525 84.9895 269.748 86.7664 267.558 86.7664H150.11C147.918 86.7664 146.142 84.9895 146.142 82.7974Z" fill="#F7CDE1"/>
<path fill-rule="evenodd" clip-rule="evenodd" d="M146.142 102.246C146.142 100.054 147.918 98.2766 150.11 98.2766H210.421C212.612 98.2766 214.389 100.054 214.389 102.246C214.389 104.438 212.612 106.215 210.421 106.215H150.11C147.918 106.215 146.142 104.438 146.142 102.246Z" fill="#F7CDE1"/>
<path d="M422.002 234.215L403.468 268.323L402.893 269.382C399.226 276.17 402.98 284.592 410.479 286.399L417.304 288.044C423.382 289.509 429.54 285.96 431.322 279.967L432.453 276.16L439.111 268.323L450.078 257.156L452.038 230.121H428.886C426.013 230.121 423.374 231.692 422.002 234.215Z" fill="#DD9576"/>
<path d="M435.337 222.285H448.126C449.562 222.285 450.78 223.342 450.982 224.765L453.982 245.865C454.053 246.376 454.264 246.858 454.585 247.261L463.271 258.122C463.679 258.634 463.906 259.27 463.906 259.926V290.008C463.906 294.258 459.47 297.051 455.637 295.214L452.47 293.694C451.28 293.123 450.32 292.162 449.752 290.97L432.73 255.198C432.548 254.811 432.453 254.387 432.453 253.958V225.171C432.453 223.577 433.742 222.285 435.337 222.285Z" fill="#FBC3DE"/>
<path fill-rule="evenodd" clip-rule="evenodd" d="M458.942 233.792C457.184 232.032 454.331 232.032 452.574 233.792L442.388 243.979C440.63 245.739 440.63 248.592 442.388 250.351C444.146 252.111 446.999 252.111 448.76 250.351L458.942 240.164C460.704 238.404 460.704 235.551 458.942 233.792Z" fill="#DD9576"/>
<path fill-rule="evenodd" clip-rule="evenodd" d="M454.244 225.955C452.482 224.196 449.634 224.196 447.872 225.955L437.69 236.143C435.929 237.902 435.929 240.755 437.69 242.515C439.448 244.275 442.301 244.275 444.059 242.515L454.244 232.328C456.002 230.568 456.002 227.715 454.244 225.955Z" fill="#DD9576"/>
<path fill-rule="evenodd" clip-rule="evenodd" d="M462.469 240.845C460.712 239.085 457.859 239.085 456.097 240.845L445.916 251.032C444.154 252.791 444.154 255.644 445.916 257.404C447.673 259.164 450.526 259.164 452.284 257.404L462.469 247.217C464.227 245.457 464.227 242.604 462.469 240.845Z" fill="#DD9576"/>
<path fill-rule="evenodd" clip-rule="evenodd" d="M465.993 247.897C464.235 246.138 461.382 246.138 459.624 247.897L449.439 258.084C447.681 259.844 447.681 262.697 449.439 264.456C451.201 266.216 454.05 266.216 455.811 264.456L465.993 254.269C467.754 252.51 467.754 249.657 465.993 247.897Z" fill="#DD9576"/>
<path fill-rule="evenodd" clip-rule="evenodd" d="M459.331 239.32C459.113 239.077 458.736 239.058 458.494 239.28L445.761 250.838C445.519 251.059 445.499 251.436 445.721 251.679C445.944 251.923 446.317 251.941 446.563 251.72L459.291 240.161C459.533 239.94 459.553 239.564 459.331 239.32ZM463.251 246.766C463.029 246.522 462.652 246.503 462.41 246.723L450.268 257.694C450.022 257.914 450.003 258.291 450.225 258.535C450.443 258.779 450.82 258.798 451.066 258.578L463.208 247.607C463.454 247.386 463.469 247.01 463.251 246.766Z" fill="#CD764F"/>
<path fill-rule="evenodd" clip-rule="evenodd" d="M454.24 232.072C454.018 231.828 453.641 231.81 453.399 232.031L440.67 243.59C440.424 243.811 440.408 244.187 440.63 244.431C440.849 244.674 441.226 244.693 441.468 244.471L454.2 232.913C454.442 232.692 454.462 232.315 454.24 232.072Z" fill="#CD764F"/>
<path d="M240.322 179.184C256.59 193.515 288.305 267.971 296.138 323.705L119.442 354.327C113.631 340.445 100.701 333.115 102.4 316.968C107.297 270.421 146.9 247.848 151.21 235.802C155.52 223.758 160.214 195.108 180.391 179.185C200.569 163.261 227.2 167.626 240.322 179.184Z" fill="#744F3A"/>
<path d="M386.659 353.34L273.14 287.781C259.302 279.789 241.607 284.531 233.617 298.374L233.617 298.374C225.627 312.217 230.369 329.917 244.207 337.909L357.726 403.469C371.564 411.461 389.259 406.718 397.249 392.875L397.249 392.875C405.239 379.033 400.497 361.332 386.659 353.34Z" fill="url(#paint0_linear_142_213)"/>
<path d="M343.446 370.234L401.519 267.959L433.056 276.672L396.782 392.96C390.989 406.562 374.356 412.499 359.627 406.224C344.899 399.949 337.653 383.835 343.446 370.234Z" fill="url(#paint1_linear_142_213)"/>
<path d="M178.48 330.622L130.87 422.017L67.5818 422.699L132.131 303.854C139.706 290.729 156.222 286.082 169.021 293.474C181.82 300.866 186.055 317.497 178.48 330.622Z" fill="url(#paint2_linear_142_213)"/>
<path d="M139.221 326.733L164.877 422.894H266.566L280.513 352.967C281.266 349.181 281.647 345.33 281.647 341.47V308.077C281.647 294.576 270.248 284.415 256.773 285.171L158.537 290.121C155.909 290.269 153.379 291.172 151.252 292.723C140.604 300.485 135.823 313.999 139.221 326.733Z" fill="url(#paint3_linear_142_213)"/>
<path d="M196.137 422.854L212.001 309.031H217.876L245.493 422.854H196.137Z" fill="#BCECFF"/>
<path d="M204.677 287.718L167.466 290.265L166.833 296.41C165.772 306.717 174.823 315.198 185.035 313.468L213.295 308.681L204.677 287.718Z" fill="#FCF6F9"/>
<path d="M227.396 286.347L249.528 285.563L249.917 286.147C257.261 297.166 248.476 311.766 235.303 310.434L216.037 308.485L227.396 286.347Z" fill="#FCF6F9"/>
<path fill-rule="evenodd" clip-rule="evenodd" d="M233.452 198.468C226.969 185.028 211.038 179.101 197.351 185.037C185.424 190.21 178.954 202.743 180.961 215.023C180.064 215.245 179.188 215.577 178.348 216.023C171.756 219.525 169.816 228.776 174.015 236.687C177.087 242.474 182.593 245.94 187.909 246.014L189.625 284.034C189.719 286.104 188.186 287.889 186.126 288.107L169.103 289.913C167.307 290.103 166.704 292.417 168.178 293.46L176.234 299.162C199.799 315.842 232.274 311.268 250.321 288.73C251.341 287.454 250.432 285.563 248.798 285.563H232.055C229.892 285.563 228.138 283.809 228.138 281.645V265.752C230.528 265.13 232.881 264.183 235.138 262.891C248.111 255.464 253.135 239.266 246.639 225.799L233.452 198.468Z" fill="#DD9576"/>
<path fill-rule="evenodd" clip-rule="evenodd" d="M228.138 281.088V265.752C228.229 265.728 228.319 265.704 228.409 265.68L228.138 265.752L218.952 265.173L228.138 281.088Z" fill="#171625"/>
<path fill-rule="evenodd" clip-rule="evenodd" d="M211.173 220.152C210.585 220.446 210.346 221.161 210.64 221.749L212.374 225.228C212.668 225.816 213.383 226.055 213.971 225.762C214.56 225.468 214.798 224.753 214.505 224.165L212.77 220.686C212.476 220.098 211.761 219.858 211.173 220.152Z" fill="#171625"/>
<path fill-rule="evenodd" clip-rule="evenodd" d="M230.135 213.298C229.547 213.591 229.308 214.306 229.602 214.895L231.336 218.373C231.63 218.962 232.345 219.201 232.933 218.907C233.521 218.614 233.76 217.899 233.467 217.31L231.732 213.831C231.438 213.243 230.723 213.004 230.135 213.298Z" fill="#171625"/>
<path fill-rule="evenodd" clip-rule="evenodd" d="M224.211 218.912C223.925 219.075 223.826 219.439 223.989 219.725L230.359 230.884L225.812 231.49C225.487 231.533 225.258 231.833 225.301 232.158C225.344 232.485 225.644 232.714 225.97 232.67L231.394 231.948C231.59 231.922 231.761 231.8 231.849 231.622C231.937 231.444 231.93 231.234 231.832 231.063L225.023 219.134C224.86 218.849 224.496 218.749 224.211 218.912Z" fill="#CD764F"/>
<path d="M227.285 239.696C229.19 240.206 230.366 242.244 229.14 243.789C228.463 244.641 227.627 245.368 226.667 245.922C224.662 247.08 222.28 247.394 220.043 246.794C217.807 246.195 215.901 244.732 214.743 242.726C214.188 241.766 213.827 240.718 213.668 239.642C213.378 237.69 215.415 236.514 217.32 237.025L227.285 239.696Z" fill="white"/>
<path fill-rule="evenodd" clip-rule="evenodd" d="M179.634 227.363H179.635L179.641 227.361L179.667 227.357C179.69 227.354 179.726 227.348 179.772 227.342C179.865 227.328 180.002 227.309 180.172 227.289C180.513 227.249 180.988 227.202 181.521 227.178C182.611 227.13 183.855 227.182 184.72 227.509C184.904 227.579 185.086 227.667 185.266 227.772C185.198 227.782 185.129 227.792 185.059 227.803C184.131 227.946 182.93 228.206 182.052 228.686C181.584 228.941 181.065 229.337 180.679 229.651C180.482 229.811 180.313 229.956 180.192 230.062C180.132 230.115 180.083 230.158 180.05 230.188C180.033 230.203 180.02 230.214 180.011 230.223L180.001 230.232L179.997 230.236L179.997 230.236C179.997 230.236 179.996 230.236 180.372 230.646L179.997 230.236C179.754 230.458 179.737 230.835 179.959 231.077C180.181 231.32 180.558 231.336 180.8 231.115M180.8 231.115L180.802 231.113L180.81 231.105C180.818 231.098 180.829 231.088 180.845 231.074C180.875 231.047 180.92 231.008 180.975 230.959C181.088 230.86 181.247 230.724 181.431 230.574C181.806 230.268 182.256 229.931 182.622 229.731C183.307 229.357 184.333 229.12 185.24 228.98C185.684 228.911 186.081 228.868 186.367 228.843C186.438 228.837 186.501 228.832 186.557 228.827C187.486 229.802 188.259 231.078 188.815 232.16C189.108 232.732 189.337 233.239 189.491 233.603C189.568 233.784 189.627 233.929 189.666 234.029C189.685 234.078 189.7 234.116 189.709 234.141L189.72 234.169L189.722 234.175L189.723 234.176C189.836 234.485 190.178 234.643 190.486 234.53C190.795 234.417 190.953 234.075 190.84 233.766L190.281 233.971C190.84 233.766 190.84 233.766 190.84 233.766L190.838 233.762L190.835 233.752L190.822 233.719C190.811 233.689 190.795 233.647 190.774 233.593C190.731 233.485 190.668 233.329 190.587 233.137C190.423 232.753 190.183 232.218 189.873 231.616C189.259 230.421 188.352 228.916 187.207 227.79C186.604 227.198 185.913 226.688 185.142 226.396C184.035 225.977 182.582 225.939 181.468 225.989C180.898 226.014 180.394 226.064 180.031 226.107C179.85 226.128 179.704 226.149 179.602 226.163C179.551 226.171 179.511 226.177 179.483 226.181L179.451 226.186L179.442 226.187L179.439 226.188C179.439 226.188 179.438 226.188 179.536 226.776L179.438 226.188C179.114 226.242 178.895 226.549 178.949 226.873C179.003 227.198 179.309 227.417 179.634 227.363" fill="#CD764F"/>
<path d="M188.563 187.082C197.412 179.438 210.053 171.987 222.378 177.927C229.923 181.564 235.438 196.951 235.438 196.951C235.438 196.951 222.001 181.049 215.704 190.408C202.992 209.301 192.743 198.474 190.992 209.668C189.848 216.984 194.357 228.327 194.357 228.327C194.357 228.327 188.724 219.739 183.44 216.156C178.624 212.891 169.573 210.714 169.573 210.714C169.573 210.714 180.592 193.969 188.563 187.082Z" fill="#744F3A"/>
<path d="M192.339 244.422C192.339 247.56 189.796 250.103 186.659 250.103C183.522 250.103 180.979 247.56 180.979 244.422C180.979 241.285 183.522 238.741 186.659 238.741C189.796 238.741 192.339 241.285 192.339 244.422Z" fill="#FBF7B8"/>
<path d="M190.381 253.63C190.381 255.578 188.802 257.156 186.855 257.156C184.908 257.156 183.33 255.578 183.33 253.63C183.33 251.682 184.908 250.104 186.855 250.104C188.802 250.104 190.381 251.682 190.381 253.63Z" fill="#FBF7B8"/>
<path d="M403.948 223.301L396.826 207.462C394.635 202.588 396.004 196.849 400.162 193.492L504.818 109.002C510.96 104.044 520.146 106.432 523.098 113.754L553.765 189.86C556.539 196.736 552.333 204.429 545.048 205.805L416.847 230.029C411.51 231.037 406.178 228.256 403.948 223.301Z" fill="#FBC3DE"/>
<path d="M548.881 146.528C560.725 173.287 561.427 198.92 550.448 203.782C539.469 208.644 520.967 190.893 509.127 164.135C497.283 137.376 496.581 111.743 507.56 106.881C518.539 102.02 537.041 119.77 548.881 146.528Z" fill="#171625"/>
<path fill-rule="evenodd" clip-rule="evenodd" d="M216.471 310.398C216.134 310.833 216.007 311.368 216.155 312.108C216.161 312.138 216.167 312.169 216.174 312.2C216.228 312.281 216.292 312.378 216.364 312.488C216.624 312.886 216.993 313.464 217.435 314.188C217.842 314.854 218.309 315.643 218.81 316.53C220.437 318.388 222.696 320.419 225.364 322.488C228.794 325.148 232.099 327.252 234.783 328.322C236.129 328.859 237.232 329.101 238.07 329.079C238.872 329.058 239.357 328.805 239.675 328.395C240.021 327.948 240.271 327.129 240.227 325.891C240.188 324.682 239.87 323.212 239.259 321.629C238.039 318.462 235.712 315.004 232.436 312.463C229.167 309.928 225.58 308.791 222.569 308.633C221.063 308.553 219.727 308.72 218.663 309.058C217.587 309.4 216.865 309.89 216.471 310.398ZM220.733 320.162C221.908 321.237 223.221 322.333 224.635 323.429C231.562 328.802 238.266 332.156 240.616 329.125C242.965 326.093 240.092 316.895 233.165 311.522C226.238 306.149 217.881 306.637 215.53 309.668C215.428 309.801 215.338 309.938 215.261 310.079C215.197 309.969 215.124 309.862 215.043 309.757C212.693 306.726 204.335 306.238 197.408 311.611C190.481 316.984 187.608 326.182 189.958 329.214C192.307 332.245 199.012 328.891 205.939 323.518C207.425 322.366 208.8 321.214 210.021 320.086C207.609 324.748 205.189 330.733 205.344 335.84C205.447 339.229 206.719 343.326 207.938 346.533C208.551 348.146 209.157 349.551 209.61 350.554C209.837 351.055 210.025 351.456 210.157 351.732C210.223 351.87 210.275 351.977 210.311 352.05C210.329 352.087 210.343 352.114 210.352 352.133L210.363 352.155L210.366 352.161L210.367 352.162V352.163C210.367 352.163 210.367 352.163 210.899 351.896L210.367 352.163C210.514 352.457 210.872 352.576 211.165 352.429C211.459 352.281 211.578 351.924 211.431 351.63L211.43 351.629L211.428 351.624L211.419 351.605C211.41 351.587 211.397 351.561 211.38 351.526C211.346 351.456 211.296 351.353 211.231 351.218C211.102 350.949 210.917 350.556 210.694 350.063C210.249 349.077 209.652 347.695 209.051 346.11C207.839 342.922 206.631 338.982 206.534 335.804C206.388 330.998 208.702 325.212 211.115 320.561C211.875 319.097 212.639 317.755 213.328 316.606C214.161 315.566 214.798 314.573 215.196 313.649C215.242 313.578 215.288 313.511 215.33 313.447C215.809 314.609 216.671 315.881 217.832 317.22C218.395 318.221 218.997 319.345 219.597 320.552C221.907 325.201 224.127 330.992 223.986 335.804C223.893 338.987 222.735 342.93 221.575 346.118C220.998 347.703 220.427 349.086 220.001 350.071C219.787 350.564 219.61 350.958 219.487 351.227C219.425 351.362 219.376 351.465 219.344 351.535C219.328 351.57 219.315 351.596 219.307 351.614L219.297 351.633L219.295 351.638L219.295 351.639C219.153 351.935 219.278 352.291 219.574 352.433C219.87 352.576 220.226 352.451 220.368 352.154L219.832 351.896C220.368 352.154 220.368 352.154 220.368 352.154L220.368 352.153L220.369 352.152L220.372 352.146L220.382 352.124C220.391 352.105 220.404 352.077 220.422 352.041C220.456 351.968 220.505 351.861 220.569 351.723C220.695 351.447 220.876 351.046 221.093 350.545C221.527 349.543 222.107 348.138 222.694 346.525C223.861 343.317 225.077 339.223 225.176 335.839C225.324 330.763 223.032 324.815 220.733 320.162ZM205.209 322.577C208.214 320.246 210.701 317.965 212.349 315.924C212.738 315.276 213.103 314.691 213.43 314.179C213.694 313.763 213.935 313.395 214.142 313.083C214.273 312.766 214.364 312.471 214.419 312.198C214.567 311.457 214.44 310.922 214.102 310.487C213.709 309.979 212.986 309.489 211.91 309.147C210.846 308.81 209.511 308.643 208.004 308.722C204.993 308.88 201.406 310.017 198.137 312.552C194.861 315.093 192.534 318.552 191.315 321.718C190.705 323.301 190.387 324.771 190.346 325.981C190.303 327.218 190.552 328.037 190.898 328.484C191.216 328.894 191.701 329.147 192.503 329.168C193.342 329.19 194.445 328.948 195.791 328.411C198.474 327.341 201.779 325.238 205.209 322.577Z" fill="#171625"/>
<path d="M277.081 124.68C277.081 118.647 281.969 113.756 288 113.756H378.054C384.085 113.756 388.973 118.647 388.973 124.68V179.575C388.973 185.609 384.085 190.5 378.054 190.5H298.804C295.452 190.5 292.178 191.53 289.428 193.45L285.667 196.076C282.048 198.604 277.081 196.013 277.081 191.597V190.5V124.68Z" fill="#FFB99B"/>
<path fill-rule="evenodd" clip-rule="evenodd" d="M298.717 137.207C298.388 137.207 298.122 137.474 298.122 137.802C298.122 138.131 298.388 138.398 298.717 138.398H369.523C369.852 138.398 370.118 138.131 370.118 137.802C370.118 137.474 369.852 137.207 369.523 137.207H298.717ZM298.717 152.947C298.388 152.947 298.122 153.213 298.122 153.542C298.122 153.871 298.388 154.137 298.717 154.137H325.814C326.143 154.137 326.409 153.871 326.409 153.542C326.409 153.213 326.143 152.947 325.814 152.947H298.717ZM332.432 153.542C332.432 153.213 332.698 152.947 333.027 152.947H369.741C370.071 152.947 370.337 153.213 370.337 153.542C370.337 153.871 370.071 154.137 369.741 154.137H333.027C332.698 154.137 332.432 153.871 332.432 153.542ZM298.717 168.686C298.388 168.686 298.122 168.953 298.122 169.281C298.122 169.61 298.388 169.877 298.717 169.877H369.523C369.852 169.877 370.118 169.61 370.118 169.281C370.118 168.953 369.852 168.686 369.523 168.686H298.717Z" fill="white"/>
<path d="M84.6407 234.017C84.6407 257.252 65.8102 276.088 42.5817 276.088C19.3532 276.088 0.522705 257.252 0.522705 234.017C0.522705 210.781 19.3532 191.945 42.5817 191.945C65.8102 191.945 84.6407 210.781 84.6407 234.017Z" fill="#FFB99B"/>
<path d="M62.0099 234.017C62.0099 244.75 53.3116 253.451 42.5818 253.451C31.8516 253.451 23.1533 244.75 23.1533 234.017C23.1533 223.284 31.8516 214.583 42.5818 214.583C53.3116 214.583 62.0099 223.284 62.0099 234.017Z" fill="white"/>
<path d="M46.1361 226.969C48.5362 226.969 50.4808 228.932 50.4808 231.679C50.4808 236.654 45.6238 239.699 43.2395 241.104C42.834 241.343 42.3289 241.343 41.9234 241.104C39.5391 239.699 34.6821 236.654 34.6821 231.679C34.6821 228.932 36.6569 226.969 39.0269 226.969C40.4962 226.969 41.7917 227.754 42.5813 228.539C43.3713 227.754 44.6668 226.969 46.1361 226.969Z" fill="#FFB99B"/>
<path d="M115.216 157.254C115.955 155.822 118.001 155.822 118.741 157.254L123.314 166.105C123.475 166.415 123.713 166.677 124.007 166.865L131.232 171.491C132.451 172.272 132.451 174.053 131.232 174.834L124.185 179.346C123.781 179.605 123.485 180.001 123.35 180.461L118.883 195.749C118.326 197.652 115.63 197.652 115.074 195.749L110.607 180.461C110.472 180.001 110.176 179.605 109.772 179.346L102.725 174.834C101.506 174.053 101.506 172.272 102.725 171.491L109.949 166.865C110.244 166.677 110.482 166.415 110.642 166.105L115.216 157.254Z" fill="white"/>
<path d="M320.548 243.407C321.286 241.97 323.341 241.97 324.079 243.407L326.25 247.639C326.408 247.949 326.646 248.212 326.94 248.401L330.44 250.654C331.65 251.436 331.65 253.209 330.44 253.99L327.119 256.13C326.714 256.389 326.42 256.785 326.285 257.245L324.218 264.368C323.667 266.276 320.964 266.276 320.409 264.368L318.342 257.245C318.207 256.785 317.913 256.389 317.508 256.13L314.187 253.99C312.977 253.209 312.977 251.436 314.187 250.654L317.687 248.401C317.981 248.212 318.219 247.949 318.377 247.639L320.548 243.407Z" fill="#C2BBFF"/>
<defs>
<linearGradient id="paint0_linear_142_213" x1="-23.8355" y1="180.557" x2="65.6782" y2="84.4921" gradientUnits="userSpaceOnUse">
<stop stop-color="#97F7F5"/>
<stop offset="1" stop-color="#FBF7B8"/>
</linearGradient>
<linearGradient id="paint1_linear_142_213" x1="663.309" y1="235.038" x2="491.464" y2="113.329" gradientUnits="userSpaceOnUse">
<stop stop-color="#97F7F5"/>
<stop offset="1" stop-color="#FBF7B8"/>
</linearGradient>
<linearGradient id="paint2_linear_142_213" x1="-321.863" y1="524.747" x2="154.505" y2="865.423" gradientUnits="userSpaceOnUse">
<stop stop-color="#97F7F5"/>
<stop offset="1" stop-color="#FBF7B8"/>
</linearGradient>
<linearGradient id="paint3_linear_142_213" x1="0.324367" y1="214.965" x2="313.428" y2="288.558" gradientUnits="userSpaceOnUse">
<stop stop-color="#97F7F5"/>
<stop offset="1" stop-color="#FBF7B8"/>
</linearGradient>
</defs>
</svg>
