<svg width="1115" height="461" viewBox="0 0 1115 461" fill="none" xmlns="http://www.w3.org/2000/svg">
<g filter="url(#filter0_d_128_207)">
<path d="M856.044 11H261.98C253.154 11 246 18.1545 246 26.9786V418.021C246 426.847 253.154 434 261.98 434H856.044C864.869 434 872.023 426.847 872.023 418.021V26.9786C872.023 18.1545 864.869 11 856.044 11Z" fill="url(#paint0_linear_128_207)"/>
</g>
<path d="M842.717 286.507H732.028C727.922 286.507 724.594 289.835 724.594 293.941V414.064C724.594 418.17 727.922 421.498 732.028 421.498H842.717C846.823 421.498 850.151 418.17 850.151 414.064V293.941C850.151 289.835 846.823 286.507 842.717 286.507Z" fill="#FEBB94"/>
<path d="M431.965 285.242H271.866C268.388 285.242 265.57 288.061 265.57 291.538V415.203C265.57 418.68 268.388 421.498 271.866 421.498H431.965C435.442 421.498 438.26 418.68 438.26 415.203V291.538C438.26 288.061 435.442 285.242 431.965 285.242Z" fill="white"/>
<path d="M704.778 285.242H458.863C454.586 285.242 451.117 288.709 451.117 292.987V413.752C451.117 418.031 454.586 421.498 458.863 421.498H704.778C709.056 421.498 712.524 418.031 712.524 413.752V292.987C712.524 288.709 709.056 285.242 704.778 285.242Z" fill="white"/>
<path d="M582.102 66.2471H275.444C269.991 66.2471 265.57 70.6682 265.57 76.1226V263.013C265.57 268.468 269.991 272.888 275.444 272.888H582.102C587.556 272.888 591.977 268.468 591.977 263.013V76.1226C591.977 70.6682 587.556 66.2471 582.102 66.2471Z" fill="#FEBB94"/>
<path d="M477.694 314.601H494.089" stroke="#D4DCF4" stroke-width="12" stroke-miterlimit="10" stroke-linecap="round"/>
<path d="M530.176 314.601H682.849" stroke="#5661AE" stroke-width="12" stroke-miterlimit="10" stroke-linecap="round"/>
<path d="M477.694 350.512H494.089" stroke="#D4DCF4" stroke-width="12" stroke-miterlimit="10" stroke-linecap="round"/>
<path d="M530.176 350.512H601.261" stroke="#5661AE" stroke-width="12" stroke-miterlimit="10" stroke-linecap="round"/>
<path d="M477.694 387.052H494.089" stroke="#D4DCF4" stroke-width="12" stroke-miterlimit="10" stroke-linecap="round"/>
<path d="M530.176 387.052H652.421" stroke="#5661AE" stroke-width="12" stroke-miterlimit="10" stroke-linecap="round"/>
<path d="M287.275 177.111C287.275 177.111 314.299 171.418 322.87 184.561C331.441 197.703 340.012 222.39 359.441 219.19C378.868 215.988 388.245 151.415 407.672 151.987C427.099 152.558 424.01 194.846 445.152 195.418C466.294 195.989 460.401 171.784 474.517 172.446C491.64 173.249 489.721 223.416 512.006 223.988C534.291 224.559 532.005 157.705 565.719 158.847" stroke="white" stroke-width="6.35676" stroke-miterlimit="10" stroke-linecap="round"/>
<path d="M295.893 97.5301H349.845" stroke="white" stroke-width="10.0826" stroke-miterlimit="10" stroke-linecap="round"/>
<path opacity="0.4" d="M295.893 122.708H407.388" stroke="white" stroke-width="10.0826" stroke-miterlimit="10" stroke-linecap="round"/>
<g filter="url(#filter1_d_128_207)">
<path d="M315.25 93H72.7505C68.47 93 65 96.4716 65 100.754V176.517C65 180.799 68.47 184.27 72.7505 184.27H315.25C319.53 184.27 323 180.799 323 176.517V100.754C323 96.4716 319.53 93 315.25 93Z" fill="#1C85E8"/>
</g>
<path d="M145.336 138.275L151.398 138.276C151.928 138.274 152.436 138.047 152.811 137.643C153.185 137.239 153.396 136.691 153.396 136.12C153.396 135.549 153.185 135.001 152.811 134.596C152.436 134.192 151.928 133.965 151.398 133.964H145.336C144.805 133.964 144.296 134.191 143.921 134.595C143.545 134.999 143.334 135.548 143.334 136.12C143.334 136.691 143.545 137.239 143.921 137.644C144.296 138.048 144.805 138.275 145.336 138.275Z" fill="white"/>
<path d="M133.273 116.569C133.273 116.247 133.196 115.929 133.047 115.643C132.899 115.357 132.685 115.11 132.422 114.925C132.159 114.74 131.855 114.621 131.537 114.577C131.218 114.535 130.894 114.57 130.592 114.679L93.0022 128.256H84.2508C83.7195 128.256 83.2107 128.468 82.8349 128.845C82.4592 129.221 82.2487 129.732 82.248 130.265V142.439C82.248 142.972 82.4592 143.483 82.8349 143.86C83.2107 144.237 83.7195 144.449 84.2508 144.449H91.3486L91.3492 160.701C91.3486 160.965 91.4006 161.226 91.5011 161.47C91.6021 161.713 91.7492 161.935 91.9355 162.121C92.1213 162.308 92.3421 162.456 92.5853 162.557C92.828 162.658 93.0887 162.71 93.3513 162.71H103.969C104.232 162.71 104.492 162.658 104.735 162.557C104.978 162.456 105.199 162.308 105.385 162.121C105.571 161.935 105.718 161.714 105.819 161.469C105.919 161.226 105.971 160.964 105.971 160.701V149.133L130.592 158.026C130.894 158.135 131.218 158.17 131.537 158.127C131.855 158.084 132.159 157.964 132.422 157.779C132.684 157.594 132.899 157.348 133.047 157.062C133.196 156.776 133.273 156.458 133.273 156.135V116.569ZM86.2535 140.43V132.274H91.3486V140.43H86.2535ZM101.966 158.692H95.354V145.298L101.966 147.686V158.692ZM95.354 141.027V131.678L129.268 119.428V153.277L95.354 141.027Z" fill="white"/>
<path d="M144.892 151.315L141.794 148.218C141.605 148.027 141.379 147.877 141.131 147.774C140.883 147.672 140.617 147.618 140.349 147.618C140.08 147.618 139.814 147.672 139.566 147.774C139.318 147.877 139.093 148.027 138.902 148.218C138.713 148.407 138.562 148.633 138.459 148.881C138.357 149.129 138.304 149.395 138.304 149.663C138.304 149.932 138.357 150.197 138.459 150.446C138.562 150.693 138.713 150.919 138.902 151.109L142 154.206C142.19 154.396 142.415 154.546 142.663 154.649C142.911 154.752 143.177 154.805 143.445 154.805C143.714 154.805 143.98 154.752 144.228 154.649C144.477 154.546 144.702 154.396 144.892 154.206C145.081 154.016 145.232 153.791 145.335 153.543C145.438 153.295 145.49 153.029 145.49 152.76C145.49 152.492 145.438 152.226 145.335 151.978C145.232 151.73 145.081 151.505 144.892 151.315Z" fill="white"/>
<path d="M138.902 124.022C139.286 124.406 139.806 124.621 140.349 124.621C140.891 124.621 141.411 124.406 141.794 124.022L144.892 120.925C145.275 120.541 145.49 120.021 145.49 119.479C145.49 118.937 145.275 118.417 144.892 118.033C144.508 117.65 143.988 117.435 143.445 117.435C142.903 117.435 142.384 117.65 142 118.033L138.902 121.131C138.519 121.514 138.304 122.034 138.304 122.576C138.304 123.119 138.519 123.639 138.902 124.022Z" fill="white"/>
<path d="M178.549 118.153H218.075" stroke="white" stroke-width="14.8881" stroke-miterlimit="10" stroke-linecap="round"/>
<path d="M178.549 162.71H251.852" stroke="white" stroke-width="14.8881" stroke-miterlimit="10" stroke-linecap="round"/>
<path opacity="0.4" d="M178.549 140.432H272.694" stroke="white" stroke-width="14.8881" stroke-miterlimit="10" stroke-linecap="round"/>
<path d="M619.976 66H836.024C839.731 66 843.285 68.2618 845.907 72.2879C848.528 76.3139 850 81.7757 850 87.4693V251.53C850 257.224 848.528 262.685 845.907 266.712C843.285 270.738 839.731 273 836.024 273H619.976C616.269 273 612.715 270.738 610.094 266.712C607.472 262.685 606 257.224 606 251.53V87.4693C606 84.6505 606.362 81.8581 607.064 79.2535C607.766 76.649 608.796 74.2817 610.094 72.2879C611.392 70.2941 612.932 68.7133 614.627 67.6335C616.324 66.5547 618.141 66 619.976 66Z" stroke="#5661AE" stroke-miterlimit="10" stroke-dasharray="11.93 11.93"/>
<path d="M727.5 193C741.031 193 752 182.478 752 169.5C752 156.521 741.031 146 727.5 146C713.969 146 703 156.521 703 169.5C703 182.478 713.969 193 727.5 193Z" fill="#1C85E8"/>
<path d="M729 158.827C729 157.818 728.329 157 727.5 157C726.671 157 726 157.818 726 158.827V182.172C726 183.182 726.671 184 727.5 184C728.329 184 729 183.182 729 182.172V158.827Z" fill="white"/>
<path d="M740.037 172C741.121 172 742 171.329 742 170.5C742 169.671 741.121 169 740.037 169H714.963C713.879 169 713 169.671 713 170.5C713 171.329 713.879 172 714.963 172H740.037Z" fill="white"/>
<path d="M996.417 137.675H1001.36" stroke="#5CA4E6" stroke-miterlimit="10"/>
<g filter="url(#filter2_d_128_207)">
<path d="M1086.93 111.802H802.071C793.747 111.802 787 118.55 787 126.873V310.445C787 318.768 793.747 325.515 802.071 325.515H1086.93C1095.25 325.515 1102 318.768 1102 310.445V126.873C1102 118.55 1095.25 111.802 1086.93 111.802Z" fill="url(#paint1_linear_128_207)"/>
</g>
<path d="M1076.96 271.393H918.717C916.097 271.393 913.974 273.517 913.974 276.136V297.536C913.974 300.155 916.097 302.278 918.717 302.278H1076.96C1079.58 302.278 1081.71 300.155 1081.71 297.536V276.136C1081.71 273.517 1079.58 271.393 1076.96 271.393Z" fill="white"/>
<path d="M891.802 134.437H808.872C805.762 134.437 803.241 136.958 803.241 140.068V296.647C803.241 299.757 805.762 302.278 808.872 302.278H891.802C894.911 302.278 897.432 299.757 897.432 296.647V140.068C897.432 136.958 894.911 134.437 891.802 134.437Z" fill="#1C85E8"/>
<path opacity="0.4" d="M850.337 245.903C863.455 245.903 874.09 235.269 874.09 222.151C874.09 209.032 863.455 198.398 850.337 198.398C837.219 198.398 826.584 209.032 826.584 222.151C826.584 235.269 837.219 245.903 850.337 245.903Z" fill="white"/>
<path d="M842.988 215.611V230.686C842.988 231.105 843.097 231.516 843.304 231.879C843.511 232.242 843.809 232.545 844.168 232.758C844.528 232.971 844.937 233.087 845.354 233.095C845.772 233.101 846.185 233 846.552 232.8L860.332 225.261C860.711 225.054 861.028 224.749 861.248 224.377C861.469 224.005 861.585 223.581 861.585 223.149C861.585 222.717 861.469 222.293 861.248 221.921C861.028 221.549 860.711 221.244 860.332 221.037L846.552 213.498C846.185 213.298 845.772 213.197 845.354 213.204C844.937 213.211 844.528 213.327 844.168 213.54C843.809 213.753 843.511 214.056 843.304 214.419C843.097 214.782 842.988 215.193 842.988 215.611Z" fill="white"/>
<path d="M918.229 154.597H977.472" stroke="white" stroke-width="16.3488" stroke-miterlimit="10" stroke-linecap="round"/>
<path opacity="0.4" d="M918.229 182.245H1040.66" stroke="white" stroke-width="16.3488" stroke-miterlimit="10" stroke-linecap="round"/>
<path d="M918.959 218.891H978.203" stroke="white" stroke-width="16.3488" stroke-miterlimit="10" stroke-linecap="round"/>
<path opacity="0.4" d="M918.959 246.54H1041.39" stroke="white" stroke-width="16.3488" stroke-miterlimit="10" stroke-linecap="round"/>
<path d="M940.434 281.554C939.506 280.698 938.291 280.222 937.029 280.222C935.766 280.222 934.551 280.698 933.624 281.554L932.341 282.739L931.057 281.554C930.13 280.698 928.915 280.222 927.652 280.222C926.39 280.222 925.174 280.698 924.247 281.554C923.757 281.998 923.367 282.538 923.099 283.142C922.831 283.745 922.692 284.399 922.692 285.059C922.692 285.719 922.831 286.372 923.099 286.975C923.367 287.579 923.757 288.12 924.247 288.562L932.341 296.063L940.434 288.661C940.944 288.221 941.355 287.675 941.636 287.062C941.917 286.449 942.062 285.782 942.062 285.108C942.062 284.433 941.917 283.766 941.636 283.153C941.355 282.54 940.944 281.995 940.434 281.554Z" fill="#F4608A"/>
<path d="M949.47 286.184C949.539 285.275 949.89 284.563 950.522 284.05C951.154 283.536 951.975 283.279 952.982 283.279C953.655 283.279 954.232 283.402 954.717 283.649C955.211 283.887 955.582 284.213 955.829 284.628C956.085 285.043 956.214 285.512 956.214 286.036C956.214 286.648 956.036 287.177 955.681 287.622C955.334 288.067 954.88 288.353 954.317 288.481V288.556C954.959 288.714 955.468 289.025 955.844 289.489C956.219 289.954 956.407 290.561 956.407 291.312C956.407 291.876 956.278 292.384 956.021 292.839C955.765 293.284 955.379 293.635 954.865 293.892C954.351 294.148 953.734 294.277 953.012 294.277C951.965 294.277 951.105 294.005 950.433 293.462C949.762 292.909 949.386 292.127 949.307 291.119H950.611C950.68 291.713 950.923 292.196 951.337 292.572C951.753 292.948 952.306 293.135 952.997 293.135C953.689 293.135 954.213 292.958 954.569 292.602C954.934 292.236 955.117 291.767 955.117 291.194C955.117 290.453 954.87 289.919 954.376 289.593C953.882 289.267 953.136 289.104 952.138 289.104H951.797V287.978H952.152C953.061 287.968 953.749 287.82 954.213 287.533C954.678 287.236 954.909 286.782 954.909 286.17C954.909 285.645 954.737 285.226 954.391 284.91C954.054 284.593 953.571 284.435 952.939 284.435C952.325 284.435 951.832 284.593 951.456 284.91C951.08 285.226 950.858 285.65 950.789 286.184H949.47ZM959.843 292.335L958.183 296.322H957.279L958.361 292.335H959.843ZM967.999 284.657H962.796V288.037C963.024 287.721 963.36 287.464 963.804 287.266C964.249 287.059 964.728 286.955 965.242 286.955C966.062 286.955 966.729 287.128 967.243 287.473C967.757 287.81 968.122 288.249 968.34 288.793C968.567 289.326 968.68 289.895 968.68 290.497C968.68 291.208 968.547 291.846 968.281 292.409C968.014 292.973 967.603 293.417 967.05 293.743C966.506 294.069 965.83 294.232 965.02 294.232C963.982 294.232 963.142 293.965 962.5 293.432C961.857 292.899 961.468 292.187 961.329 291.297H962.648C962.776 291.861 963.048 292.3 963.464 292.617C963.878 292.933 964.402 293.091 965.034 293.091C965.815 293.091 966.403 292.859 966.798 292.394C967.194 291.92 967.391 291.297 967.391 290.527C967.391 289.756 967.194 289.163 966.798 288.748C966.403 288.323 965.82 288.111 965.049 288.111C964.526 288.111 964.066 288.239 963.67 288.496C963.286 288.743 963.004 289.085 962.826 289.519H961.552V283.471H967.999V284.657ZM970.31 293.12C971.565 292.112 972.548 291.288 973.259 290.646C973.971 289.994 974.569 289.316 975.053 288.615C975.547 287.904 975.794 287.206 975.794 286.525C975.794 285.883 975.636 285.378 975.32 285.013C975.013 284.638 974.514 284.45 973.823 284.45C973.151 284.45 972.627 284.662 972.251 285.088C971.886 285.502 971.689 286.061 971.659 286.762H970.354C970.394 285.655 970.73 284.801 971.362 284.198C971.995 283.595 972.81 283.294 973.808 283.294C974.826 283.294 975.631 283.575 976.224 284.139C976.827 284.702 977.128 285.477 977.128 286.465C977.128 287.286 976.881 288.087 976.387 288.867C975.903 289.638 975.349 290.319 974.727 290.913C974.104 291.495 973.309 292.177 972.34 292.958H977.439V294.084H970.31V293.12ZM985.594 284.539L981.473 294.202H980.11L984.29 284.672H978.568V283.516H985.594V284.539Z" fill="#1C85E8"/>
<path d="M1021.9 286.851C1021.9 282.305 1016.52 278.619 1009.87 278.619C1003.23 278.619 997.84 282.305 997.84 286.851C997.84 291.398 1003.23 295.084 1009.87 295.084C1010.35 295.084 1010.81 295.059 1011.27 295.02C1011.34 295.014 1011.42 295.024 1011.48 295.05C1011.55 295.075 1011.61 295.115 1011.66 295.167C1012.51 296.061 1014.38 297.446 1017.93 297.664C1018.02 297.671 1018.11 297.652 1018.19 297.61C1018.27 297.568 1018.34 297.507 1018.38 297.43C1018.43 297.353 1018.45 297.266 1018.45 297.177C1018.45 297.088 1018.42 297.001 1018.38 296.926C1017.76 295.999 1017.27 294.989 1016.94 293.926C1016.91 293.819 1016.92 293.707 1016.97 293.608C1017.01 293.509 1017.09 293.428 1017.19 293.379C1020.05 291.875 1021.9 289.513 1021.9 286.851Z" fill="#1C85E8"/>
<path d="M1027.95 284.717V283.486H1030.74V294.202H1029.37V284.717H1027.95ZM1033.02 286.184C1033.09 285.275 1033.44 284.563 1034.08 284.05C1034.71 283.536 1035.53 283.279 1036.54 283.279C1037.21 283.279 1037.79 283.402 1038.27 283.649C1038.76 283.887 1039.14 284.213 1039.38 284.628C1039.64 285.043 1039.77 285.512 1039.77 286.036C1039.77 286.648 1039.59 287.177 1039.23 287.622C1038.89 288.067 1038.43 288.353 1037.87 288.481V288.556C1038.51 288.714 1039.02 289.025 1039.4 289.489C1039.77 289.954 1039.96 290.561 1039.96 291.312C1039.96 291.876 1039.83 292.384 1039.58 292.839C1039.32 293.284 1038.93 293.635 1038.42 293.892C1037.91 294.148 1037.29 294.277 1036.57 294.277C1035.52 294.277 1034.66 294.005 1033.99 293.462C1033.32 292.909 1032.94 292.127 1032.86 291.119H1034.17C1034.23 291.713 1034.48 292.196 1034.89 292.572C1035.31 292.948 1035.86 293.135 1036.55 293.135C1037.24 293.135 1037.77 292.958 1038.12 292.602C1038.49 292.236 1038.67 291.767 1038.67 291.194C1038.67 290.453 1038.42 289.919 1037.93 289.593C1037.44 289.267 1036.69 289.104 1035.69 289.104H1035.35V287.978H1035.71C1036.62 287.968 1037.3 287.82 1037.77 287.533C1038.23 287.236 1038.46 286.782 1038.46 286.17C1038.46 285.645 1038.29 285.226 1037.94 284.91C1037.61 284.593 1037.12 284.435 1036.49 284.435C1035.88 284.435 1035.39 284.593 1035.01 284.91C1034.64 285.226 1034.41 285.65 1034.34 286.184H1033.02ZM1041.62 293.12C1042.87 292.112 1043.86 291.288 1044.57 290.646C1045.28 289.994 1045.88 289.316 1046.36 288.615C1046.86 287.904 1047.1 287.206 1047.1 286.525C1047.1 285.883 1046.95 285.378 1046.63 285.013C1046.32 284.638 1045.82 284.45 1045.13 284.45C1044.46 284.45 1043.94 284.662 1043.56 285.088C1043.19 285.502 1043 286.061 1042.97 286.762H1041.66C1041.7 285.655 1042.04 284.801 1042.67 284.198C1043.3 283.595 1044.12 283.294 1045.12 283.294C1046.13 283.294 1046.94 283.575 1047.53 284.139C1048.14 284.702 1048.44 285.477 1048.44 286.465C1048.44 287.285 1048.19 288.087 1047.7 288.867C1047.21 289.638 1046.66 290.319 1046.04 290.913C1045.41 291.495 1044.62 292.177 1043.65 292.958H1048.75V294.084H1041.62V293.12Z" fill="#1C85E8"/>
<defs>
<filter id="filter0_d_128_207" x="229" y="0" width="664.022" height="461" filterUnits="userSpaceOnUse" color-interpolation-filters="sRGB">
<feFlood flood-opacity="0" result="BackgroundImageFix"/>
<feColorMatrix in="SourceAlpha" type="matrix" values="0 0 0 0 0 0 0 0 0 0 0 0 0 0 0 0 0 0 127 0" result="hardAlpha"/>
<feOffset dx="2" dy="8"/>
<feGaussianBlur stdDeviation="9.5"/>
<feComposite in2="hardAlpha" operator="out"/>
<feColorMatrix type="matrix" values="0 0 0 0 0.807843 0 0 0 0 0.87451 0 0 0 0 1 0 0 0 1 0"/>
<feBlend mode="normal" in2="BackgroundImageFix" result="effect1_dropShadow_128_207"/>
<feBlend mode="normal" in="SourceGraphic" in2="effect1_dropShadow_128_207" result="shape"/>
</filter>
<filter id="filter1_d_128_207" x="0" y="36" width="388" height="221.27" filterUnits="userSpaceOnUse" color-interpolation-filters="sRGB">
<feFlood flood-opacity="0" result="BackgroundImageFix"/>
<feColorMatrix in="SourceAlpha" type="matrix" values="0 0 0 0 0 0 0 0 0 0 0 0 0 0 0 0 0 0 127 0" result="hardAlpha"/>
<feOffset dy="8"/>
<feGaussianBlur stdDeviation="32.5"/>
<feComposite in2="hardAlpha" operator="out"/>
<feColorMatrix type="matrix" values="0 0 0 0 0 0 0 0 0 0 0 0 0 0 0 0 0 0 0.25 0"/>
<feBlend mode="normal" in2="BackgroundImageFix" result="effect1_dropShadow_128_207"/>
<feBlend mode="normal" in="SourceGraphic" in2="effect1_dropShadow_128_207" result="shape"/>
</filter>
<filter id="filter2_d_128_207" x="774" y="104.802" width="341" height="239.713" filterUnits="userSpaceOnUse" color-interpolation-filters="sRGB">
<feFlood flood-opacity="0" result="BackgroundImageFix"/>
<feColorMatrix in="SourceAlpha" type="matrix" values="0 0 0 0 0 0 0 0 0 0 0 0 0 0 0 0 0 0 127 0" result="hardAlpha"/>
<feOffset dy="6"/>
<feGaussianBlur stdDeviation="6.5"/>
<feComposite in2="hardAlpha" operator="out"/>
<feColorMatrix type="matrix" values="0 0 0 0 0.4875 0 0 0 0 0.4875 0 0 0 0 0.4875 0 0 0 0.25 0"/>
<feBlend mode="normal" in2="BackgroundImageFix" result="effect1_dropShadow_128_207"/>
<feBlend mode="normal" in="SourceGraphic" in2="effect1_dropShadow_128_207" result="shape"/>
</filter>
<linearGradient id="paint0_linear_128_207" x1="543.426" y1="9.9948" x2="609.546" y2="912.542" gradientUnits="userSpaceOnUse">
<stop stop-color="white"/>
<stop offset="1" stop-color="#94B9FF"/>
</linearGradient>
<linearGradient id="paint1_linear_128_207" x1="908.033" y1="43.804" x2="956.858" y2="568.507" gradientUnits="userSpaceOnUse">
<stop stop-color="white"/>
<stop offset="1" stop-color="#94B9FF"/>
</linearGradient>
</defs>
</svg>
